{
  "header": {
    "keySignatures": [],
    "meta": [],
    "name": "Transport",
    "ppq": 15360,
    "tempos": [
      {
        "bpm": 136.0001450668214,
        "ticks": 0
      }
    ],
    "timeSignatures": [
      {
        "ticks": 0,
        "timeSignature": [
          5,
          4
        ],
        "measures": 0
      }
    ]
  },
  "tracks": [
    {
      "channel": 0,
      "controlChanges": {
        "1": [
          {
            "number": 1,
            "ticks": 0,
            "time": 0,
            "value": 0
          },
          {
            "number": 1,
            "ticks": 41600,
            "time": 1.1948516666666669,
            "value": 0
          },
          {
            "number": 1,
            "ticks": 1305600,
            "time": 37.49996,
            "value": 0
          },
          {
            "number": 1,
            "ticks": 2304000,
            "time": 66.1764,
            "value": 0
          },
          {
            "number": 1,
            "ticks": 4684800,
            "time": 134.55868,
            "value": 0
          }
        ],
        "11": [
          {
            "number": 11,
            "ticks": 0,
            "time": 0,
            "value": 0.8661417322834646
          },
          {
            "number": 11,
            "ticks": 42240,
            "time": 1.213234,
            "value": 0.8661417322834646
          },
          {
            "number": 11,
            "ticks": 1305600,
            "time": 37.49996,
            "value": 0
          },
          {
            "number": 11,
            "ticks": 2304000,
            "time": 66.1764,
            "value": 0.8661417322834646
          },
          {
            "number": 11,
            "ticks": 4684800,
            "time": 134.55868,
            "value": 0
          }
        ],
        "64": [
          {
            "number": 64,
            "ticks": 0,
            "time": 0,
            "value": 0
          },
          {
            "number": 64,
            "ticks": 42880,
            "time": 1.2316163333333332,
            "value": 0
          },
          {
            "number": 64,
            "ticks": 1305600,
            "time": 37.49996,
            "value": 0
          },
          {
            "number": 64,
            "ticks": 2304000,
            "time": 66.1764,
            "value": 0
          },
          {
            "number": 64,
            "ticks": 4684800,
            "time": 134.55868,
            "value": 0
          }
        ]
      },
      "pitchBends": [],
      "instrument": {
        "family": "piano",
        "name": "acoustic grand piano",
        "number": 0
      },
      "name": "recorder                 Ch1",
      "notes": [
        {
          "duration": 0.8786755333333334,
          "durationTicks": 30592,
          "midi": 62,
          "name": "D4",
          "ticks": 61440,
          "time": 1.764704,
          "velocity": 0.5905511811023622
        },
        {
          "duration": 0.43749953333333336,
          "durationTicks": 15232,
          "midi": 69,
          "name": "A4",
          "ticks": 61440,
          "time": 1.764704,
          "velocity": 0.6299212598425197
        },
        {
          "duration": 0.21691153333333313,
          "durationTicks": 7552,
          "midi": 69,
          "name": "A4",
          "ticks": 76800,
          "time": 2.20588,
          "velocity": 0.6299212598425197
        },
        {
          "duration": 0.21691153333333357,
          "durationTicks": 7552,
          "midi": 67,
          "name": "G4",
          "ticks": 84480,
          "time": 2.426468,
          "velocity": 0.5905511811023622
        },
        {
          "duration": 0.43749953333333336,
          "durationTicks": 15232,
          "midi": 62,
          "name": "D4",
          "ticks": 92160,
          "time": 2.647056,
          "velocity": 0.5905511811023622
        },
        {
          "duration": 0.43749953333333336,
          "durationTicks": 15232,
          "midi": 69,
          "name": "A4",
          "ticks": 92160,
          "time": 2.647056,
          "velocity": 0.6299212598425197
        },
        {
          "duration": 0.43749953333333336,
          "durationTicks": 15232,
          "midi": 65,
          "name": "F4",
          "ticks": 107520,
          "time": 3.088232,
          "velocity": 0.6456692913385826
        },
        {
          "duration": 0.43749953333333336,
          "durationTicks": 15232,
          "midi": 62,
          "name": "D4",
          "ticks": 122880,
          "time": 3.529408,
          "velocity": 0.6299212598425197
        },
        {
          "duration": 0.43749953333333336,
          "durationTicks": 15232,
          "midi": 69,
          "name": "A4",
          "ticks": 122880,
          "time": 3.529408,
          "velocity": 0.5905511811023622
        },
        {
          "duration": 0.43749953333333336,
          "durationTicks": 15232,
          "midi": 62,
          "name": "D4",
          "ticks": 138240,
          "time": 3.970584,
          "velocity": 0.5511811023622047
        },
        {
          "duration": 0.43749953333333336,
          "durationTicks": 15232,
          "midi": 65,
          "name": "F4",
          "ticks": 138240,
          "time": 3.970584,
          "velocity": 0.5511811023622047
        },
        {
          "duration": 0.8786755333333334,
          "durationTicks": 30592,
          "midi": 60,
          "name": "C4",
          "ticks": 153600,
          "time": 4.41176,
          "velocity": 0.5118110236220472
        },
        {
          "duration": 0.8786755333333334,
          "durationTicks": 30592,
          "midi": 67,
          "name": "G4",
          "ticks": 153600,
          "time": 4.41176,
          "velocity": 0.5118110236220472
        },
        {
          "duration": 0.44117600000000046,
          "durationTicks": 15360,
          "midi": 65,
          "name": "F4",
          "ticks": 184320,
          "time": 5.294112,
          "velocity": 0.5905511811023622
        },
        {
          "duration": 0.21691153333333357,
          "durationTicks": 7552,
          "midi": 70,
          "name": "A#4",
          "ticks": 184320,
          "time": 5.294112,
          "velocity": 0.6692913385826772
        },
        {
          "duration": 0.21691153333333357,
          "durationTicks": 7552,
          "midi": 69,
          "name": "A4",
          "ticks": 192000,
          "time": 5.5147,
          "velocity": 0.6299212598425197
        },
        {
          "duration": 0.21691153333333268,
          "durationTicks": 7552,
          "midi": 65,
          "name": "F4",
          "ticks": 199680,
          "time": 5.735288000000001,
          "velocity": 0.6535433070866141
        },
        {
          "duration": 0.21691153333333357,
          "durationTicks": 7552,
          "midi": 67,
          "name": "G4",
          "ticks": 207360,
          "time": 5.955876,
          "velocity": 0.6299212598425197
        },
        {
          "duration": 0.4374995333333338,
          "durationTicks": 15232,
          "midi": 64,
          "name": "E4",
          "ticks": 215040,
          "time": 6.176464,
          "velocity": 0.5905511811023622
        },
        {
          "duration": 0.4374995333333338,
          "durationTicks": 15232,
          "midi": 67,
          "name": "G4",
          "ticks": 215040,
          "time": 6.176464,
          "velocity": 0.5905511811023622
        },
        {
          "duration": 0.4374995333333338,
          "durationTicks": 15232,
          "midi": 62,
          "name": "D4",
          "ticks": 230400,
          "time": 6.61764,
          "velocity": 0.6299212598425197
        },
        {
          "duration": 0.4374995333333338,
          "durationTicks": 15232,
          "midi": 69,
          "name": "A4",
          "ticks": 230400,
          "time": 6.61764,
          "velocity": 0.5905511811023622
        },
        {
          "duration": 0.4374995333333338,
          "durationTicks": 15232,
          "midi": 62,
          "name": "D4",
          "ticks": 245760,
          "time": 7.058816,
          "velocity": 0.5905511811023622
        },
        {
          "duration": 0.4374995333333338,
          "durationTicks": 15232,
          "midi": 65,
          "name": "F4",
          "ticks": 245760,
          "time": 7.058816,
          "velocity": 0.6456692913385826
        },
        {
          "duration": 0.4374995333333329,
          "durationTicks": 15232,
          "midi": 60,
          "name": "C4",
          "ticks": 261120,
          "time": 7.499992000000001,
          "velocity": 0.5905511811023622
        },
        {
          "duration": 0.4374995333333329,
          "durationTicks": 15232,
          "midi": 67,
          "name": "G4",
          "ticks": 261120,
          "time": 7.499992000000001,
          "velocity": 0.6614173228346457
        },
        {
          "duration": 0.21691153333333357,
          "durationTicks": 7552,
          "midi": 67,
          "name": "G4",
          "ticks": 276480,
          "time": 7.941168,
          "velocity": 0.5905511811023622
        },
        {
          "duration": 0.21691153333333268,
          "durationTicks": 7552,
          "midi": 65,
          "name": "F4",
          "ticks": 284160,
          "time": 8.161756,
          "velocity": 0.6535433070866141
        },
        {
          "duration": 0.4374995333333338,
          "durationTicks": 15232,
          "midi": 62,
          "name": "D4",
          "ticks": 291840,
          "time": 8.382344,
          "velocity": 0.5905511811023622
        },
        {
          "duration": 0.4374995333333338,
          "durationTicks": 15232,
          "midi": 69,
          "name": "A4",
          "ticks": 291840,
          "time": 8.382344,
          "velocity": 0.5511811023622047
        },
        {
          "duration": 1.3235279999999996,
          "durationTicks": 46080,
          "midi": 60,
          "name": "C4",
          "ticks": 307200,
          "time": 8.82352,
          "velocity": 0.4330708661417323
        },
        {
          "duration": 1.3235279999999996,
          "durationTicks": 46080,
          "midi": 72,
          "name": "C5",
          "ticks": 307200,
          "time": 8.82352,
          "velocity": 0.4330708661417323
        },
        {
          "duration": 0.21691153333333446,
          "durationTicks": 7552,
          "midi": 62,
          "name": "D4",
          "ticks": 337920,
          "time": 9.705872,
          "velocity": 0.5984251968503937
        },
        {
          "duration": 0.21691153333333268,
          "durationTicks": 7552,
          "midi": 64,
          "name": "E4",
          "ticks": 345600,
          "time": 9.92646,
          "velocity": 0.6062992125984252
        },
        {
          "duration": 0.21691153333333446,
          "durationTicks": 7552,
          "midi": 65,
          "name": "F4",
          "ticks": 353280,
          "time": 10.147048,
          "velocity": 0.6141732283464567
        },
        {
          "duration": 0.21691153333333268,
          "durationTicks": 7552,
          "midi": 67,
          "name": "G4",
          "ticks": 360960,
          "time": 10.367636000000001,
          "velocity": 0.6220472440944882
        },
        {
          "duration": 0.8786755333333343,
          "durationTicks": 30592,
          "midi": 62,
          "name": "D4",
          "ticks": 368640,
          "time": 10.588224,
          "velocity": 0.5905511811023622
        },
        {
          "duration": 0.4374995333333338,
          "durationTicks": 15232,
          "midi": 69,
          "name": "A4",
          "ticks": 368640,
          "time": 10.588224,
          "velocity": 0.6299212598425197
        },
        {
          "duration": 0.21691153333333268,
          "durationTicks": 7552,
          "midi": 69,
          "name": "A4",
          "ticks": 384000,
          "time": 11.0294,
          "velocity": 0.6299212598425197
        },
        {
          "duration": 0.21691153333333446,
          "durationTicks": 7552,
          "midi": 67,
          "name": "G4",
          "ticks": 391680,
          "time": 11.249988,
          "velocity": 0.5905511811023622
        },
        {
          "duration": 0.437499533333332,
          "durationTicks": 15232,
          "midi": 62,
          "name": "D4",
          "ticks": 399360,
          "time": 11.470576000000001,
          "velocity": 0.5905511811023622
        },
        {
          "duration": 0.21691153333333268,
          "durationTicks": 7552,
          "midi": 69,
          "name": "A4",
          "ticks": 399360,
          "time": 11.470576000000001,
          "velocity": 0.6299212598425197
        },
        {
          "duration": 0.21691153333333268,
          "durationTicks": 7552,
          "midi": 67,
          "name": "G4",
          "ticks": 407040,
          "time": 11.691164,
          "velocity": 0.5905511811023622
        },
        {
          "duration": 0.4374995333333338,
          "durationTicks": 15232,
          "midi": 65,
          "name": "F4",
          "ticks": 414720,
          "time": 11.911752,
          "velocity": 0.6299212598425197
        },
        {
          "duration": 0.21691153333333268,
          "durationTicks": 7552,
          "midi": 64,
          "name": "E4",
          "ticks": 422400,
          "time": 12.132340000000001,
          "velocity": 0.5905511811023622
        },
        {
          "duration": 0.4374995333333338,
          "durationTicks": 15232,
          "midi": 62,
          "name": "D4",
          "ticks": 430080,
          "time": 12.352928,
          "velocity": 0.6299212598425197
        },
        {
          "duration": 0.4374995333333338,
          "durationTicks": 15232,
          "midi": 69,
          "name": "A4",
          "ticks": 430080,
          "time": 12.352928,
          "velocity": 0.5511811023622047
        },
        {
          "duration": 0.4374995333333338,
          "durationTicks": 15232,
          "midi": 62,
          "name": "D4",
          "ticks": 445440,
          "time": 12.794104,
          "velocity": 0.5511811023622047
        },
        {
          "duration": 0.4374995333333338,
          "durationTicks": 15232,
          "midi": 65,
          "name": "F4",
          "ticks": 445440,
          "time": 12.794104,
          "velocity": 0.5748031496062992
        },
        {
          "duration": 0.8786755333333343,
          "durationTicks": 30592,
          "midi": 60,
          "name": "C4",
          "ticks": 460800,
          "time": 13.23528,
          "velocity": 0.5118110236220472
        },
        {
          "duration": 0.8786755333333343,
          "durationTicks": 30592,
          "midi": 67,
          "name": "G4",
          "ticks": 460800,
          "time": 13.23528,
          "velocity": 0.5118110236220472
        },
        {
          "duration": 0.44117600000000046,
          "durationTicks": 15360,
          "midi": 65,
          "name": "F4",
          "ticks": 491520,
          "time": 14.117632,
          "velocity": 0.5905511811023622
        },
        {
          "duration": 0.21691153333333268,
          "durationTicks": 7552,
          "midi": 70,
          "name": "A#4",
          "ticks": 491520,
          "time": 14.117632,
          "velocity": 0.6692913385826772
        },
        {
          "duration": 0.21691153333333446,
          "durationTicks": 7552,
          "midi": 69,
          "name": "A4",
          "ticks": 499200,
          "time": 14.33822,
          "velocity": 0.6299212598425197
        },
        {
          "duration": 0.21691153333333268,
          "durationTicks": 7552,
          "midi": 65,
          "name": "F4",
          "ticks": 506880,
          "time": 14.558808,
          "velocity": 0.6535433070866141
        },
        {
          "duration": 0.21691153333333446,
          "durationTicks": 7552,
          "midi": 67,
          "name": "G4",
          "ticks": 514560,
          "time": 14.779396,
          "velocity": 0.6299212598425197
        },
        {
          "duration": 0.437499533333332,
          "durationTicks": 15232,
          "midi": 64,
          "name": "E4",
          "ticks": 522240,
          "time": 14.999984000000001,
          "velocity": 0.5984251968503937
        },
        {
          "duration": 0.437499533333332,
          "durationTicks": 15232,
          "midi": 67,
          "name": "G4",
          "ticks": 522240,
          "time": 14.999984000000001,
          "velocity": 0.5905511811023622
        },
        {
          "duration": 0.4374995333333338,
          "durationTicks": 15232,
          "midi": 62,
          "name": "D4",
          "ticks": 537600,
          "time": 15.44116,
          "velocity": 0.6299212598425197
        },
        {
          "duration": 0.4374995333333338,
          "durationTicks": 15232,
          "midi": 69,
          "name": "A4",
          "ticks": 537600,
          "time": 15.44116,
          "velocity": 0.5905511811023622
        },
        {
          "duration": 0.437499533333332,
          "durationTicks": 15232,
          "midi": 62,
          "name": "D4",
          "ticks": 552960,
          "time": 15.882336,
          "velocity": 0.5905511811023622
        },
        {
          "duration": 0.437499533333332,
          "durationTicks": 15232,
          "midi": 65,
          "name": "F4",
          "ticks": 552960,
          "time": 15.882336,
          "velocity": 0.6456692913385826
        },
        {
          "duration": 0.4374995333333338,
          "durationTicks": 15232,
          "midi": 60,
          "name": "C4",
          "ticks": 568320,
          "time": 16.323512,
          "velocity": 0.5905511811023622
        },
        {
          "duration": 0.4374995333333338,
          "durationTicks": 15232,
          "midi": 67,
          "name": "G4",
          "ticks": 568320,
          "time": 16.323512,
          "velocity": 0.6614173228346457
        },
        {
          "duration": 0.22058799999999934,
          "durationTicks": 7680,
          "midi": 65,
          "name": "F4",
          "ticks": 583680,
          "time": 16.764688,
          "velocity": 0.5905511811023622
        },
        {
          "duration": 0.21691153333333446,
          "durationTicks": 7552,
          "midi": 67,
          "name": "G4",
          "ticks": 583680,
          "time": 16.764688,
          "velocity": 0.6614173228346457
        },
        {
          "duration": 0.21691153333333446,
          "durationTicks": 7552,
          "midi": 65,
          "name": "F4",
          "ticks": 591360,
          "time": 16.985276,
          "velocity": 0.6299212598425197
        },
        {
          "duration": 0.2169115333333309,
          "durationTicks": 7552,
          "midi": 62,
          "name": "D4",
          "ticks": 599040,
          "time": 17.205864000000002,
          "velocity": 0.6456692913385826
        },
        {
          "duration": 0.4374995333333338,
          "durationTicks": 15232,
          "midi": 67,
          "name": "G4",
          "ticks": 599040,
          "time": 17.205864000000002,
          "velocity": 0.5905511811023622
        },
        {
          "duration": 0.10661753333333124,
          "durationTicks": 3712,
          "midi": 64,
          "name": "E4",
          "ticks": 606720,
          "time": 17.426452,
          "velocity": 0.5669291338582677
        },
        {
          "duration": 0.10661753333333479,
          "durationTicks": 3712,
          "midi": 60,
          "name": "C4",
          "ticks": 610560,
          "time": 17.536746,
          "velocity": 0.5669291338582677
        },
        {
          "duration": 1.3235279999999996,
          "durationTicks": 46080,
          "midi": 62,
          "name": "D4",
          "ticks": 614400,
          "time": 17.64704,
          "velocity": 0.5118110236220472
        },
        {
          "duration": 1.3235279999999996,
          "durationTicks": 46080,
          "midi": 69,
          "name": "A4",
          "ticks": 614400,
          "time": 17.64704,
          "velocity": 0.5118110236220472
        },
        {
          "duration": 0.878675533333336,
          "durationTicks": 30592,
          "midi": 62,
          "name": "D4",
          "ticks": 675840,
          "time": 19.411744,
          "velocity": 0.6299212598425197
        },
        {
          "duration": 0.4374995333333338,
          "durationTicks": 15232,
          "midi": 69,
          "name": "A4",
          "ticks": 675840,
          "time": 19.411744,
          "velocity": 0.6299212598425197
        },
        {
          "duration": 0.21691153333333446,
          "durationTicks": 7552,
          "midi": 69,
          "name": "A4",
          "ticks": 691200,
          "time": 19.85292,
          "velocity": 0.6299212598425197
        },
        {
          "duration": 0.21691153333333446,
          "durationTicks": 7552,
          "midi": 67,
          "name": "G4",
          "ticks": 698880,
          "time": 20.073508,
          "velocity": 0.5905511811023622
        },
        {
          "duration": 0.4374995333333338,
          "durationTicks": 15232,
          "midi": 62,
          "name": "D4",
          "ticks": 706560,
          "time": 20.294096,
          "velocity": 0.6299212598425197
        },
        {
          "duration": 0.4374995333333338,
          "durationTicks": 15232,
          "midi": 69,
          "name": "A4",
          "ticks": 706560,
          "time": 20.294096,
          "velocity": 0.6299212598425197
        },
        {
          "duration": 0.4374995333333338,
          "durationTicks": 15232,
          "midi": 65,
          "name": "F4",
          "ticks": 721920,
          "time": 20.735272000000002,
          "velocity": 0.6141732283464567
        },
        {
          "duration": 0.4374995333333338,
          "durationTicks": 15232,
          "midi": 62,
          "name": "D4",
          "ticks": 737280,
          "time": 21.176448,
          "velocity": 0.6299212598425197
        },
        {
          "duration": 0.4374995333333338,
          "durationTicks": 15232,
          "midi": 69,
          "name": "A4",
          "ticks": 737280,
          "time": 21.176448,
          "velocity": 0.6614173228346457
        },
        {
          "duration": 0.4374995333333338,
          "durationTicks": 15232,
          "midi": 62,
          "name": "D4",
          "ticks": 752640,
          "time": 21.617624,
          "velocity": 0.6456692913385826
        },
        {
          "duration": 0.4374995333333338,
          "durationTicks": 15232,
          "midi": 65,
          "name": "F4",
          "ticks": 752640,
          "time": 21.617624,
          "velocity": 0.6141732283464567
        },
        {
          "duration": 0.8786755333333325,
          "durationTicks": 30592,
          "midi": 60,
          "name": "C4",
          "ticks": 768000,
          "time": 22.0588,
          "velocity": 0.6299212598425197
        },
        {
          "duration": 0.8786755333333325,
          "durationTicks": 30592,
          "midi": 67,
          "name": "G4",
          "ticks": 768000,
          "time": 22.0588,
          "velocity": 0.5984251968503937
        },
        {
          "duration": 0.4411759999999987,
          "durationTicks": 15360,
          "midi": 65,
          "name": "F4",
          "ticks": 798720,
          "time": 22.941152000000002,
          "velocity": 0.6456692913385826
        },
        {
          "duration": 0.2169115333333309,
          "durationTicks": 7552,
          "midi": 70,
          "name": "A#4",
          "ticks": 798720,
          "time": 22.941152000000002,
          "velocity": 0.6692913385826772
        },
        {
          "duration": 0.2169115333333309,
          "durationTicks": 7552,
          "midi": 69,
          "name": "A4",
          "ticks": 806400,
          "time": 23.16174,
          "velocity": 0.6299212598425197
        },
        {
          "duration": 0.21691153333333446,
          "durationTicks": 7552,
          "midi": 65,
          "name": "F4",
          "ticks": 814080,
          "time": 23.382328,
          "velocity": 0.6535433070866141
        },
        {
          "duration": 0.21691153333333446,
          "durationTicks": 7552,
          "midi": 67,
          "name": "G4",
          "ticks": 821760,
          "time": 23.602916,
          "velocity": 0.6299212598425197
        },
        {
          "duration": 0.3860290000000006,
          "durationTicks": 13440,
          "midi": 64,
          "name": "E4",
          "ticks": 829440,
          "time": 23.823504,
          "velocity": 0.5905511811023622
        },
        {
          "duration": 0.39338193333333393,
          "durationTicks": 13696,
          "midi": 67,
          "name": "G4",
          "ticks": 829440,
          "time": 23.823504,
          "velocity": 0.6614173228346457
        },
        {
          "duration": 0.4374995333333338,
          "durationTicks": 15232,
          "midi": 62,
          "name": "D4",
          "ticks": 844800,
          "time": 24.264680000000002,
          "velocity": 0.6299212598425197
        },
        {
          "duration": 0.4374995333333338,
          "durationTicks": 15232,
          "midi": 69,
          "name": "A4",
          "ticks": 844800,
          "time": 24.264680000000002,
          "velocity": 0.6456692913385826
        },
        {
          "duration": 0.4374995333333338,
          "durationTicks": 15232,
          "midi": 62,
          "name": "D4",
          "ticks": 860160,
          "time": 24.705856,
          "velocity": 0.6456692913385826
        },
        {
          "duration": 0.4374995333333338,
          "durationTicks": 15232,
          "midi": 65,
          "name": "F4",
          "ticks": 860160,
          "time": 24.705856,
          "velocity": 0.6456692913385826
        },
        {
          "duration": 0.4374995333333338,
          "durationTicks": 15232,
          "midi": 60,
          "name": "C4",
          "ticks": 875520,
          "time": 25.147032,
          "velocity": 0.6299212598425197
        },
        {
          "duration": 0.4374995333333338,
          "durationTicks": 15232,
          "midi": 67,
          "name": "G4",
          "ticks": 875520,
          "time": 25.147032,
          "velocity": 0.6614173228346457
        },
        {
          "duration": 0.2169115333333309,
          "durationTicks": 7552,
          "midi": 67,
          "name": "G4",
          "ticks": 890880,
          "time": 25.588208,
          "velocity": 0.6614173228346457
        },
        {
          "duration": 0.21691153333333446,
          "durationTicks": 7552,
          "midi": 65,
          "name": "F4",
          "ticks": 898560,
          "time": 25.808796,
          "velocity": 0.6299212598425197
        },
        {
          "duration": 0.4374995333333338,
          "durationTicks": 15232,
          "midi": 62,
          "name": "D4",
          "ticks": 906240,
          "time": 26.029384,
          "velocity": 0.6456692913385826
        },
        {
          "duration": 0.4374995333333338,
          "durationTicks": 15232,
          "midi": 69,
          "name": "A4",
          "ticks": 906240,
          "time": 26.029384,
          "velocity": 0.6456692913385826
        },
        {
          "duration": 0.8860284666666693,
          "durationTicks": 30848,
          "midi": 60,
          "name": "C4",
          "ticks": 921600,
          "time": 26.47056,
          "velocity": 0.6062992125984252
        },
        {
          "duration": 1.3235280000000031,
          "durationTicks": 46080,
          "midi": 72,
          "name": "C5",
          "ticks": 921600,
          "time": 26.47056,
          "velocity": 0.6299212598425197
        },
        {
          "duration": 0.21691153333333446,
          "durationTicks": 7552,
          "midi": 62,
          "name": "D4",
          "ticks": 952320,
          "time": 27.352912,
          "velocity": 0.6062992125984252
        },
        {
          "duration": 0.21691153333333446,
          "durationTicks": 7552,
          "midi": 64,
          "name": "E4",
          "ticks": 960000,
          "time": 27.5735,
          "velocity": 0.6062992125984252
        },
        {
          "duration": 0.2169115333333309,
          "durationTicks": 7552,
          "midi": 65,
          "name": "F4",
          "ticks": 967680,
          "time": 27.794088000000002,
          "velocity": 0.6062992125984252
        },
        {
          "duration": 0.21691153333333446,
          "durationTicks": 7552,
          "midi": 67,
          "name": "G4",
          "ticks": 975360,
          "time": 28.014676,
          "velocity": 0.6062992125984252
        },
        {
          "duration": 0.8786755333333289,
          "durationTicks": 30592,
          "midi": 62,
          "name": "D4",
          "ticks": 983040,
          "time": 28.235264,
          "velocity": 0.6299212598425197
        },
        {
          "duration": 0.43749953333333025,
          "durationTicks": 15232,
          "midi": 69,
          "name": "A4",
          "ticks": 983040,
          "time": 28.235264,
          "velocity": 0.6299212598425197
        },
        {
          "duration": 0.2169115333333309,
          "durationTicks": 7552,
          "midi": 69,
          "name": "A4",
          "ticks": 998400,
          "time": 28.67644,
          "velocity": 0.6299212598425197
        },
        {
          "duration": 0.21691153333332736,
          "durationTicks": 7552,
          "midi": 67,
          "name": "G4",
          "ticks": 1006080,
          "time": 28.897028000000002,
          "velocity": 0.5905511811023622
        },
        {
          "duration": 0.43749953333333025,
          "durationTicks": 15232,
          "midi": 62,
          "name": "D4",
          "ticks": 1013760,
          "time": 29.117616,
          "velocity": 0.6299212598425197
        },
        {
          "duration": 0.43749953333333025,
          "durationTicks": 15232,
          "midi": 69,
          "name": "A4",
          "ticks": 1013760,
          "time": 29.117616,
          "velocity": 0.6299212598425197
        },
        {
          "duration": 0.43749953333333025,
          "durationTicks": 15232,
          "midi": 65,
          "name": "F4",
          "ticks": 1029120,
          "time": 29.558792,
          "velocity": 0.6456692913385826
        },
        {
          "duration": 0.43749953333333025,
          "durationTicks": 15232,
          "midi": 62,
          "name": "D4",
          "ticks": 1044480,
          "time": 29.999968000000003,
          "velocity": 0.6299212598425197
        },
        {
          "duration": 0.43749953333333025,
          "durationTicks": 15232,
          "midi": 69,
          "name": "A4",
          "ticks": 1044480,
          "time": 29.999968000000003,
          "velocity": 0.6614173228346457
        },
        {
          "duration": 0.43749953333333025,
          "durationTicks": 15232,
          "midi": 62,
          "name": "D4",
          "ticks": 1059840,
          "time": 30.441144,
          "velocity": 0.6456692913385826
        },
        {
          "duration": 0.43749953333333025,
          "durationTicks": 15232,
          "midi": 65,
          "name": "F4",
          "ticks": 1059840,
          "time": 30.441144,
          "velocity": 0.6141732283464567
        },
        {
          "duration": 0.8786755333333325,
          "durationTicks": 30592,
          "midi": 60,
          "name": "C4",
          "ticks": 1075200,
          "time": 30.88232,
          "velocity": 0.6299212598425197
        },
        {
          "duration": 0.8786755333333325,
          "durationTicks": 30592,
          "midi": 67,
          "name": "G4",
          "ticks": 1075200,
          "time": 30.88232,
          "velocity": 0.5984251968503937
        },
        {
          "duration": 0.44117600000000223,
          "durationTicks": 15360,
          "midi": 65,
          "name": "F4",
          "ticks": 1105920,
          "time": 31.764672,
          "velocity": 0.6456692913385826
        },
        {
          "duration": 0.2169115333333309,
          "durationTicks": 7552,
          "midi": 70,
          "name": "A#4",
          "ticks": 1105920,
          "time": 31.764672,
          "velocity": 0.6692913385826772
        },
        {
          "duration": 0.21691153333333446,
          "durationTicks": 7552,
          "midi": 69,
          "name": "A4",
          "ticks": 1113600,
          "time": 31.98526,
          "velocity": 0.6299212598425197
        },
        {
          "duration": 0.2169115333333309,
          "durationTicks": 7552,
          "midi": 65,
          "name": "F4",
          "ticks": 1121280,
          "time": 32.205848,
          "velocity": 0.6535433070866141
        },
        {
          "duration": 0.2169115333333309,
          "durationTicks": 7552,
          "midi": 67,
          "name": "G4",
          "ticks": 1128960,
          "time": 32.426436,
          "velocity": 0.6299212598425197
        },
        {
          "duration": 0.3860290000000006,
          "durationTicks": 13440,
          "midi": 64,
          "name": "E4",
          "ticks": 1136640,
          "time": 32.647024,
          "velocity": 0.5984251968503937
        },
        {
          "duration": 0.3933819333333304,
          "durationTicks": 13696,
          "midi": 67,
          "name": "G4",
          "ticks": 1136640,
          "time": 32.647024,
          "velocity": 0.6614173228346457
        },
        {
          "duration": 0.43749953333333025,
          "durationTicks": 15232,
          "midi": 62,
          "name": "D4",
          "ticks": 1152000,
          "time": 33.0882,
          "velocity": 0.6299212598425197
        },
        {
          "duration": 0.43749953333333025,
          "durationTicks": 15232,
          "midi": 69,
          "name": "A4",
          "ticks": 1152000,
          "time": 33.0882,
          "velocity": 0.6456692913385826
        },
        {
          "duration": 0.43749953333333025,
          "durationTicks": 15232,
          "midi": 62,
          "name": "D4",
          "ticks": 1167360,
          "time": 33.529376,
          "velocity": 0.6456692913385826
        },
        {
          "duration": 0.43749953333333025,
          "durationTicks": 15232,
          "midi": 65,
          "name": "F4",
          "ticks": 1167360,
          "time": 33.529376,
          "velocity": 0.6456692913385826
        },
        {
          "duration": 0.43749953333333025,
          "durationTicks": 15232,
          "midi": 60,
          "name": "C4",
          "ticks": 1182720,
          "time": 33.970552,
          "velocity": 0.6299212598425197
        },
        {
          "duration": 0.43749953333333025,
          "durationTicks": 15232,
          "midi": 67,
          "name": "G4",
          "ticks": 1182720,
          "time": 33.970552,
          "velocity": 0.6614173228346457
        },
        {
          "duration": 0.2169115333333309,
          "durationTicks": 7552,
          "midi": 65,
          "name": "F4",
          "ticks": 1198080,
          "time": 34.411728000000004,
          "velocity": 0.6614173228346457
        },
        {
          "duration": 0.2169115333333309,
          "durationTicks": 7552,
          "midi": 67,
          "name": "G4",
          "ticks": 1198080,
          "time": 34.411728000000004,
          "velocity": 0.6614173228346457
        },
        {
          "duration": 0.2169115333333309,
          "durationTicks": 7552,
          "midi": 65,
          "name": "F4",
          "ticks": 1205760,
          "time": 34.632316,
          "velocity": 0.6456692913385826
        },
        {
          "duration": 0.2169115333333309,
          "durationTicks": 7552,
          "midi": 62,
          "name": "D4",
          "ticks": 1213440,
          "time": 34.852904,
          "velocity": 0.6456692913385826
        },
        {
          "duration": 0.43749953333333025,
          "durationTicks": 15232,
          "midi": 67,
          "name": "G4",
          "ticks": 1213440,
          "time": 34.852904,
          "velocity": 0.6456692913385826
        },
        {
          "duration": 0.10661753333332769,
          "durationTicks": 3712,
          "midi": 64,
          "name": "E4",
          "ticks": 1221120,
          "time": 35.073492,
          "velocity": 0.6141732283464567
        },
        {
          "duration": 0.10661753333333479,
          "durationTicks": 3712,
          "midi": 60,
          "name": "C4",
          "ticks": 1224960,
          "time": 35.183786,
          "velocity": 0.6141732283464567
        },
        {
          "duration": 1.7647040000000018,
          "durationTicks": 61440,
          "midi": 62,
          "name": "D4",
          "ticks": 1228800,
          "time": 35.29408,
          "velocity": 0.6299212598425197
        },
        {
          "duration": 1.7647040000000018,
          "durationTicks": 61440,
          "midi": 69,
          "name": "A4",
          "ticks": 1228800,
          "time": 35.29408,
          "velocity": 0.6299212598425197
        },
        {
          "duration": 0.8639696666666765,
          "durationTicks": 30080,
          "midi": 62,
          "name": "D4",
          "ticks": 2350080,
          "time": 67.499928,
          "velocity": 0.6299212598425197
        },
        {
          "duration": 0.4227936666666636,
          "durationTicks": 14720,
          "midi": 62,
          "name": "D4",
          "ticks": 2380800,
          "time": 68.38228000000001,
          "velocity": 0.6299212598425197
        },
        {
          "duration": 0.4227936666666636,
          "durationTicks": 14720,
          "midi": 65,
          "name": "F4",
          "ticks": 2396160,
          "time": 68.82345600000001,
          "velocity": 0.6456692913385826
        },
        {
          "duration": 0.4227936666666636,
          "durationTicks": 14720,
          "midi": 69,
          "name": "A4",
          "ticks": 2411520,
          "time": 69.264632,
          "velocity": 0.6614173228346457
        },
        {
          "duration": 0.4227936666666636,
          "durationTicks": 14720,
          "midi": 62,
          "name": "D4",
          "ticks": 2426880,
          "time": 69.705808,
          "velocity": 0.6456692913385826
        },
        {
          "duration": 0.8639696666666765,
          "durationTicks": 30080,
          "midi": 60,
          "name": "C4",
          "ticks": 2442240,
          "time": 70.146984,
          "velocity": 0.6299212598425197
        },
        {
          "duration": 0.8639696666666765,
          "durationTicks": 30080,
          "midi": 65,
          "name": "F4",
          "ticks": 2472960,
          "time": 71.029336,
          "velocity": 0.6456692913385826
        },
        {
          "duration": 0.3933819333333446,
          "durationTicks": 13696,
          "midi": 67,
          "name": "G4",
          "ticks": 2503680,
          "time": 71.911688,
          "velocity": 0.6614173228346457
        },
        {
          "duration": 0.42279366666667784,
          "durationTicks": 14720,
          "midi": 69,
          "name": "A4",
          "ticks": 2519040,
          "time": 72.352864,
          "velocity": 0.6456692913385826
        },
        {
          "duration": 0.42279366666667784,
          "durationTicks": 14720,
          "midi": 62,
          "name": "D4",
          "ticks": 2534400,
          "time": 72.79404,
          "velocity": 0.6456692913385826
        },
        {
          "duration": 0.4227936666666636,
          "durationTicks": 14720,
          "midi": 60,
          "name": "C4",
          "ticks": 2549760,
          "time": 73.23521600000001,
          "velocity": 0.6299212598425197
        },
        {
          "duration": 0.4227936666666636,
          "durationTicks": 14720,
          "midi": 67,
          "name": "G4",
          "ticks": 2565120,
          "time": 73.676392,
          "velocity": 0.6614173228346457
        },
        {
          "duration": 0.4227936666666636,
          "durationTicks": 14720,
          "midi": 69,
          "name": "A4",
          "ticks": 2580480,
          "time": 74.117568,
          "velocity": 0.6456692913385826
        },
        {
          "duration": 1.323527999999996,
          "durationTicks": 46080,
          "midi": 72,
          "name": "C5",
          "ticks": 2595840,
          "time": 74.558744,
          "velocity": 0.6299212598425197
        },
        {
          "duration": 0.8639696666666765,
          "durationTicks": 30080,
          "midi": 62,
          "name": "D4",
          "ticks": 2657280,
          "time": 76.323448,
          "velocity": 0.6299212598425197
        },
        {
          "duration": 0.42279366666667784,
          "durationTicks": 14720,
          "midi": 62,
          "name": "D4",
          "ticks": 2688000,
          "time": 77.2058,
          "velocity": 0.6299212598425197
        },
        {
          "duration": 0.42279366666667784,
          "durationTicks": 14720,
          "midi": 65,
          "name": "F4",
          "ticks": 2703360,
          "time": 77.646976,
          "velocity": 0.6456692913385826
        },
        {
          "duration": 0.4227936666666636,
          "durationTicks": 14720,
          "midi": 69,
          "name": "A4",
          "ticks": 2718720,
          "time": 78.08815200000001,
          "velocity": 0.6614173228346457
        },
        {
          "duration": 0.4227936666666636,
          "durationTicks": 14720,
          "midi": 62,
          "name": "D4",
          "ticks": 2734080,
          "time": 78.529328,
          "velocity": 0.6456692913385826
        },
        {
          "duration": 0.8639696666666623,
          "durationTicks": 30080,
          "midi": 60,
          "name": "C4",
          "ticks": 2749440,
          "time": 78.970504,
          "velocity": 0.6299212598425197
        },
        {
          "duration": 0.8639696666666765,
          "durationTicks": 30080,
          "midi": 65,
          "name": "F4",
          "ticks": 2780160,
          "time": 79.852856,
          "velocity": 0.6456692913385826
        },
        {
          "duration": 0.3933819333333446,
          "durationTicks": 13696,
          "midi": 67,
          "name": "G4",
          "ticks": 2810880,
          "time": 80.735208,
          "velocity": 0.6614173228346457
        },
        {
          "duration": 0.42279366666667784,
          "durationTicks": 14720,
          "midi": 69,
          "name": "A4",
          "ticks": 2826240,
          "time": 81.176384,
          "velocity": 0.6456692913385826
        },
        {
          "duration": 0.42279366666667784,
          "durationTicks": 14720,
          "midi": 62,
          "name": "D4",
          "ticks": 2841600,
          "time": 81.61756,
          "velocity": 0.6456692913385826
        },
        {
          "duration": 0.42279366666667784,
          "durationTicks": 14720,
          "midi": 60,
          "name": "C4",
          "ticks": 2856960,
          "time": 82.058736,
          "velocity": 0.6299212598425197
        },
        {
          "duration": 0.4227936666666636,
          "durationTicks": 14720,
          "midi": 65,
          "name": "F4",
          "ticks": 2872320,
          "time": 82.49991200000001,
          "velocity": 0.6614173228346457
        },
        {
          "duration": 0.4227936666666636,
          "durationTicks": 14720,
          "midi": 67,
          "name": "G4",
          "ticks": 2887680,
          "time": 82.94108800000001,
          "velocity": 0.6456692913385826
        },
        {
          "duration": 1.323527999999996,
          "durationTicks": 46080,
          "midi": 69,
          "name": "A4",
          "ticks": 2903040,
          "time": 83.382264,
          "velocity": 0.6299212598425197
        },
        {
          "duration": 0.8639696666666765,
          "durationTicks": 30080,
          "midi": 69,
          "name": "A4",
          "ticks": 2964480,
          "time": 85.146968,
          "velocity": 0.6299212598425197
        },
        {
          "duration": 0.8639696666666765,
          "durationTicks": 30080,
          "midi": 62,
          "name": "D4",
          "ticks": 2995200,
          "time": 86.02932,
          "velocity": 0.6299212598425197
        },
        {
          "duration": 0.42279366666667784,
          "durationTicks": 14720,
          "midi": 62,
          "name": "D4",
          "ticks": 3025920,
          "time": 86.911672,
          "velocity": 0.6614173228346457
        },
        {
          "duration": 0.4227936666666636,
          "durationTicks": 14720,
          "midi": 67,
          "name": "G4",
          "ticks": 3041280,
          "time": 87.35284800000001,
          "velocity": 0.6456692913385826
        },
        {
          "duration": 0.4227936666666636,
          "durationTicks": 14720,
          "midi": 65,
          "name": "F4",
          "ticks": 3056640,
          "time": 87.79402400000001,
          "velocity": 0.6299212598425197
        },
        {
          "duration": 0.8639696666666623,
          "durationTicks": 30080,
          "midi": 64,
          "name": "E4",
          "ticks": 3072000,
          "time": 88.2352,
          "velocity": 0.6692913385826772
        },
        {
          "duration": 0.4227936666666636,
          "durationTicks": 14720,
          "midi": 60,
          "name": "C4",
          "ticks": 3102720,
          "time": 89.117552,
          "velocity": 0.6456692913385826
        },
        {
          "duration": 0.42279366666667784,
          "durationTicks": 14720,
          "midi": 62,
          "name": "D4",
          "ticks": 3118080,
          "time": 89.558728,
          "velocity": 0.6299212598425197
        },
        {
          "duration": 0.42279366666667784,
          "durationTicks": 14720,
          "midi": 65,
          "name": "F4",
          "ticks": 3133440,
          "time": 89.999904,
          "velocity": 0.6614173228346457
        },
        {
          "duration": 0.42279366666667784,
          "durationTicks": 14720,
          "midi": 67,
          "name": "G4",
          "ticks": 3148800,
          "time": 90.44108,
          "velocity": 0.6456692913385826
        },
        {
          "duration": 1.3235280000000103,
          "durationTicks": 46080,
          "midi": 69,
          "name": "A4",
          "ticks": 3164160,
          "time": 90.882256,
          "velocity": 0.6299212598425197
        },
        {
          "duration": 0.8639696666666623,
          "durationTicks": 30080,
          "midi": 69,
          "name": "A4",
          "ticks": 3225600,
          "time": 92.64696,
          "velocity": 0.6299212598425197
        },
        {
          "duration": 0.8639696666666623,
          "durationTicks": 30080,
          "midi": 62,
          "name": "D4",
          "ticks": 3256320,
          "time": 93.529312,
          "velocity": 0.6299212598425197
        },
        {
          "duration": 0.42279366666667784,
          "durationTicks": 14720,
          "midi": 62,
          "name": "D4",
          "ticks": 3287040,
          "time": 94.411664,
          "velocity": 0.6614173228346457
        },
        {
          "duration": 0.42279366666667784,
          "durationTicks": 14720,
          "midi": 67,
          "name": "G4",
          "ticks": 3302400,
          "time": 94.85284,
          "velocity": 0.6456692913385826
        },
        {
          "duration": 0.42279366666667784,
          "durationTicks": 14720,
          "midi": 65,
          "name": "F4",
          "ticks": 3317760,
          "time": 95.294016,
          "velocity": 0.6299212598425197
        },
        {
          "duration": 0.8639696666666765,
          "durationTicks": 30080,
          "midi": 64,
          "name": "E4",
          "ticks": 3333120,
          "time": 95.735192,
          "velocity": 0.6692913385826772
        },
        {
          "duration": 0.4227936666666636,
          "durationTicks": 14720,
          "midi": 60,
          "name": "C4",
          "ticks": 3363840,
          "time": 96.61754400000001,
          "velocity": 0.6456692913385826
        },
        {
          "duration": 0.4227936666666636,
          "durationTicks": 14720,
          "midi": 62,
          "name": "D4",
          "ticks": 3379200,
          "time": 97.05872000000001,
          "velocity": 0.6299212598425197
        },
        {
          "duration": 0.4227936666666636,
          "durationTicks": 14720,
          "midi": 65,
          "name": "F4",
          "ticks": 3394560,
          "time": 97.499896,
          "velocity": 0.6614173228346457
        },
        {
          "duration": 0.4227936666666636,
          "durationTicks": 14720,
          "midi": 67,
          "name": "G4",
          "ticks": 3409920,
          "time": 97.941072,
          "velocity": 0.6456692913385826
        },
        {
          "duration": 0.4227936666666636,
          "durationTicks": 14720,
          "midi": 69,
          "name": "A4",
          "ticks": 3425280,
          "time": 98.382248,
          "velocity": 0.6299212598425197
        },
        {
          "duration": 0.2022056666666714,
          "durationTicks": 7040,
          "midi": 65,
          "name": "F4",
          "ticks": 3440640,
          "time": 98.823424,
          "velocity": 0.6299212598425197
        },
        {
          "duration": 0.2022056666666714,
          "durationTicks": 7040,
          "midi": 67,
          "name": "G4",
          "ticks": 3448320,
          "time": 99.04401200000001,
          "velocity": 0.6299212598425197
        },
        {
          "duration": 0.5147053333333247,
          "durationTicks": 17920,
          "midi": 69,
          "name": "A4",
          "ticks": 3456000,
          "time": 99.2646,
          "velocity": 0.6299212598425197
        },
        {
          "duration": 0.8639696666666765,
          "durationTicks": 30080,
          "midi": 62,
          "name": "D4",
          "ticks": 3486720,
          "time": 100.146952,
          "velocity": 0.6299212598425197
        },
        {
          "duration": 0.42279366666667784,
          "durationTicks": 14720,
          "midi": 62,
          "name": "D4",
          "ticks": 3517440,
          "time": 101.029304,
          "velocity": 0.6299212598425197
        },
        {
          "duration": 0.4227936666666636,
          "durationTicks": 14720,
          "midi": 65,
          "name": "F4",
          "ticks": 3532800,
          "time": 101.47048000000001,
          "velocity": 0.6456692913385826
        },
        {
          "duration": 0.4227936666666636,
          "durationTicks": 14720,
          "midi": 69,
          "name": "A4",
          "ticks": 3548160,
          "time": 101.91165600000001,
          "velocity": 0.6614173228346457
        },
        {
          "duration": 0.4227936666666636,
          "durationTicks": 14720,
          "midi": 62,
          "name": "D4",
          "ticks": 3563520,
          "time": 102.352832,
          "velocity": 0.6456692913385826
        },
        {
          "duration": 0.8639696666666623,
          "durationTicks": 30080,
          "midi": 60,
          "name": "C4",
          "ticks": 3578880,
          "time": 102.794008,
          "velocity": 0.6299212598425197
        },
        {
          "duration": 0.8639696666666765,
          "durationTicks": 30080,
          "midi": 65,
          "name": "F4",
          "ticks": 3609600,
          "time": 103.67636,
          "velocity": 0.6456692913385826
        },
        {
          "duration": 0.3933819333333446,
          "durationTicks": 13696,
          "midi": 67,
          "name": "G4",
          "ticks": 3640320,
          "time": 104.558712,
          "velocity": 0.6614173228346457
        },
        {
          "duration": 0.42279366666667784,
          "durationTicks": 14720,
          "midi": 69,
          "name": "A4",
          "ticks": 3655680,
          "time": 104.999888,
          "velocity": 0.6456692913385826
        },
        {
          "duration": 0.42279366666667784,
          "durationTicks": 14720,
          "midi": 62,
          "name": "D4",
          "ticks": 3671040,
          "time": 105.441064,
          "velocity": 0.6456692913385826
        },
        {
          "duration": 0.42279366666667784,
          "durationTicks": 14720,
          "midi": 60,
          "name": "C4",
          "ticks": 3686400,
          "time": 105.88224,
          "velocity": 0.6299212598425197
        },
        {
          "duration": 0.4227936666666636,
          "durationTicks": 14720,
          "midi": 67,
          "name": "G4",
          "ticks": 3701760,
          "time": 106.32341600000001,
          "velocity": 0.6614173228346457
        },
        {
          "duration": 0.4227936666666636,
          "durationTicks": 14720,
          "midi": 69,
          "name": "A4",
          "ticks": 3717120,
          "time": 106.76459200000001,
          "velocity": 0.6456692913385826
        },
        {
          "duration": 0.8639696666666623,
          "durationTicks": 30080,
          "midi": 72,
          "name": "C5",
          "ticks": 3732480,
          "time": 107.205768,
          "velocity": 0.6299212598425197
        },
        {
          "duration": 0.2022056666666714,
          "durationTicks": 7040,
          "midi": 69,
          "name": "A4",
          "ticks": 3763200,
          "time": 108.08812,
          "velocity": 0.7086614173228346
        },
        {
          "duration": 0.20220566666665718,
          "durationTicks": 7040,
          "midi": 67,
          "name": "G4",
          "ticks": 3770880,
          "time": 108.30870800000001,
          "velocity": 0.6929133858267716
        },
        {
          "duration": 0.2022056666666714,
          "durationTicks": 7040,
          "midi": 65,
          "name": "F4",
          "ticks": 3778560,
          "time": 108.529296,
          "velocity": 0.6692913385826772
        },
        {
          "duration": 0.2022056666666714,
          "durationTicks": 7040,
          "midi": 64,
          "name": "E4",
          "ticks": 3786240,
          "time": 108.74988400000001,
          "velocity": 0.6456692913385826
        },
        {
          "duration": 0.8639696666666765,
          "durationTicks": 30080,
          "midi": 62,
          "name": "D4",
          "ticks": 3793920,
          "time": 108.970472,
          "velocity": 0.6299212598425197
        },
        {
          "duration": 0.42279366666667784,
          "durationTicks": 14720,
          "midi": 62,
          "name": "D4",
          "ticks": 3824640,
          "time": 109.852824,
          "velocity": 0.6299212598425197
        },
        {
          "duration": 0.42279366666667784,
          "durationTicks": 14720,
          "midi": 65,
          "name": "F4",
          "ticks": 3840000,
          "time": 110.294,
          "velocity": 0.6456692913385826
        },
        {
          "duration": 0.4227936666666636,
          "durationTicks": 14720,
          "midi": 69,
          "name": "A4",
          "ticks": 3855360,
          "time": 110.73517600000001,
          "velocity": 0.6614173228346457
        },
        {
          "duration": 0.4227936666666636,
          "durationTicks": 14720,
          "midi": 62,
          "name": "D4",
          "ticks": 3870720,
          "time": 111.17635200000001,
          "velocity": 0.6456692913385826
        },
        {
          "duration": 0.8639696666666623,
          "durationTicks": 30080,
          "midi": 60,
          "name": "C4",
          "ticks": 3886080,
          "time": 111.61752800000001,
          "velocity": 0.6299212598425197
        },
        {
          "duration": 0.8639696666666623,
          "durationTicks": 30080,
          "midi": 65,
          "name": "F4",
          "ticks": 3916800,
          "time": 112.49988,
          "velocity": 0.6456692913385826
        },
        {
          "duration": 0.3933819333333304,
          "durationTicks": 13696,
          "midi": 67,
          "name": "G4",
          "ticks": 3947520,
          "time": 113.382232,
          "velocity": 0.6614173228346457
        },
        {
          "duration": 0.4227936666666636,
          "durationTicks": 14720,
          "midi": 69,
          "name": "A4",
          "ticks": 3962880,
          "time": 113.823408,
          "velocity": 0.6456692913385826
        },
        {
          "duration": 0.4227936666666636,
          "durationTicks": 14720,
          "midi": 62,
          "name": "D4",
          "ticks": 3978240,
          "time": 114.264584,
          "velocity": 0.6456692913385826
        },
        {
          "duration": 0.4227936666666636,
          "durationTicks": 14720,
          "midi": 60,
          "name": "C4",
          "ticks": 3993600,
          "time": 114.70576,
          "velocity": 0.6299212598425197
        },
        {
          "duration": 0.4227936666666636,
          "durationTicks": 14720,
          "midi": 65,
          "name": "F4",
          "ticks": 4008960,
          "time": 115.146936,
          "velocity": 0.6614173228346457
        },
        {
          "duration": 0.4227936666666494,
          "durationTicks": 14720,
          "midi": 67,
          "name": "G4",
          "ticks": 4024320,
          "time": 115.58811200000001,
          "velocity": 0.6456692913385826
        },
        {
          "duration": 1.323527999999996,
          "durationTicks": 46080,
          "midi": 69,
          "name": "A4",
          "ticks": 4039680,
          "time": 116.02928800000001,
          "velocity": 0.6299212598425197
        },
        {
          "duration": 0.8639696666666623,
          "durationTicks": 30080,
          "midi": 62,
          "name": "D4",
          "ticks": 4101120,
          "time": 117.793992,
          "velocity": 0.6299212598425197
        },
        {
          "duration": 0.4227936666666636,
          "durationTicks": 14720,
          "midi": 62,
          "name": "D4",
          "ticks": 4131840,
          "time": 118.676344,
          "velocity": 0.6299212598425197
        },
        {
          "duration": 0.4227936666666636,
          "durationTicks": 14720,
          "midi": 65,
          "name": "F4",
          "ticks": 4147200,
          "time": 119.11752,
          "velocity": 0.6456692913385826
        },
        {
          "duration": 0.4227936666666636,
          "durationTicks": 14720,
          "midi": 69,
          "name": "A4",
          "ticks": 4162560,
          "time": 119.558696,
          "velocity": 0.6614173228346457
        },
        {
          "duration": 0.4227936666666494,
          "durationTicks": 14720,
          "midi": 62,
          "name": "D4",
          "ticks": 4177920,
          "time": 119.99987200000001,
          "velocity": 0.6456692913385826
        },
        {
          "duration": 0.8639696666666481,
          "durationTicks": 30080,
          "midi": 60,
          "name": "C4",
          "ticks": 4193280,
          "time": 120.44104800000001,
          "velocity": 0.6299212598425197
        },
        {
          "duration": 0.8639696666666623,
          "durationTicks": 30080,
          "midi": 65,
          "name": "F4",
          "ticks": 4224000,
          "time": 121.3234,
          "velocity": 0.6456692913385826
        },
        {
          "duration": 0.3933819333333304,
          "durationTicks": 13696,
          "midi": 67,
          "name": "G4",
          "ticks": 4254720,
          "time": 122.205752,
          "velocity": 0.6614173228346457
        },
        {
          "duration": 0.4227936666666636,
          "durationTicks": 14720,
          "midi": 69,
          "name": "A4",
          "ticks": 4270080,
          "time": 122.646928,
          "velocity": 0.6456692913385826
        },
        {
          "duration": 0.4227936666666636,
          "durationTicks": 14720,
          "midi": 62,
          "name": "D4",
          "ticks": 4285440,
          "time": 123.088104,
          "velocity": 0.6456692913385826
        },
        {
          "duration": 0.4227936666666636,
          "durationTicks": 14720,
          "midi": 60,
          "name": "C4",
          "ticks": 4300800,
          "time": 123.52928,
          "velocity": 0.6299212598425197
        },
        {
          "duration": 0.4227936666666636,
          "durationTicks": 14720,
          "midi": 67,
          "name": "G4",
          "ticks": 4316160,
          "time": 123.970456,
          "velocity": 0.6614173228346457
        },
        {
          "duration": 0.4227936666666636,
          "durationTicks": 14720,
          "midi": 69,
          "name": "A4",
          "ticks": 4331520,
          "time": 124.411632,
          "velocity": 0.6456692913385826
        },
        {
          "duration": 0.8639696666666481,
          "durationTicks": 30080,
          "midi": 72,
          "name": "C5",
          "ticks": 4346880,
          "time": 124.85280800000001,
          "velocity": 0.6299212598425197
        },
        {
          "duration": 0.20220566666665718,
          "durationTicks": 7040,
          "midi": 72,
          "name": "C5",
          "ticks": 4377600,
          "time": 125.73516000000001,
          "velocity": 0.6299212598425197
        },
        {
          "duration": 0.20220566666665718,
          "durationTicks": 7040,
          "midi": 74,
          "name": "D5",
          "ticks": 4385152,
          "time": 125.95207153333334,
          "velocity": 0.6299212598425197
        },
        {
          "duration": 0.20220566666665718,
          "durationTicks": 7040,
          "midi": 72,
          "name": "C5",
          "ticks": 4392704,
          "time": 126.16898306666668,
          "velocity": 0.6299212598425197
        },
        {
          "duration": 0.20220566666665718,
          "durationTicks": 7040,
          "midi": 70,
          "name": "A#4",
          "ticks": 4400256,
          "time": 126.38589460000001,
          "velocity": 0.6299212598425197
        },
        {
          "duration": 0.8639696666666765,
          "durationTicks": 30080,
          "midi": 62,
          "name": "D4",
          "ticks": 4407808,
          "time": 126.60280613333333,
          "velocity": 0.6299212598425197
        },
        {
          "duration": 0.42279366666667784,
          "durationTicks": 14720,
          "midi": 62,
          "name": "D4",
          "ticks": 4438528,
          "time": 127.48515813333333,
          "velocity": 0.6299212598425197
        },
        {
          "duration": 0.42279366666669205,
          "durationTicks": 14720,
          "midi": 65,
          "name": "F4",
          "ticks": 4453888,
          "time": 127.92633413333333,
          "velocity": 0.6456692913385826
        },
        {
          "duration": 0.42279366666667784,
          "durationTicks": 14720,
          "midi": 69,
          "name": "A4",
          "ticks": 4469248,
          "time": 128.36751013333333,
          "velocity": 0.6614173228346457
        },
        {
          "duration": 0.42279366666667784,
          "durationTicks": 14720,
          "midi": 62,
          "name": "D4",
          "ticks": 4484608,
          "time": 128.80868613333334,
          "velocity": 0.6456692913385826
        },
        {
          "duration": 0.8639696666666907,
          "durationTicks": 30080,
          "midi": 60,
          "name": "C4",
          "ticks": 4499968,
          "time": 129.24986213333332,
          "velocity": 0.6299212598425197
        },
        {
          "duration": 0.8639696666666907,
          "durationTicks": 30080,
          "midi": 65,
          "name": "F4",
          "ticks": 4530688,
          "time": 130.13221413333332,
          "velocity": 0.6456692913385826
        },
        {
          "duration": 0.3933819333333588,
          "durationTicks": 13696,
          "midi": 67,
          "name": "G4",
          "ticks": 4561408,
          "time": 131.01456613333332,
          "velocity": 0.6614173228346457
        },
        {
          "duration": 0.42279366666667784,
          "durationTicks": 14720,
          "midi": 69,
          "name": "A4",
          "ticks": 4576768,
          "time": 131.45574213333333,
          "velocity": 0.6456692913385826
        },
        {
          "duration": 0.42279366666670626,
          "durationTicks": 14720,
          "midi": 62,
          "name": "D4",
          "ticks": 4592128,
          "time": 131.89691813333332,
          "velocity": 0.6456692913385826
        },
        {
          "duration": 0.42279366666667784,
          "durationTicks": 14720,
          "midi": 60,
          "name": "C4",
          "ticks": 4607488,
          "time": 132.33809413333333,
          "velocity": 0.6299212598425197
        },
        {
          "duration": 0.42279366666670626,
          "durationTicks": 14720,
          "midi": 65,
          "name": "F4",
          "ticks": 4622848,
          "time": 132.7792701333333,
          "velocity": 0.6614173228346457
        },
        {
          "duration": 0.42279366666667784,
          "durationTicks": 14720,
          "midi": 67,
          "name": "G4",
          "ticks": 4638208,
          "time": 133.22044613333333,
          "velocity": 0.6456692913385826
        },
        {
          "duration": 1.3235279999999818,
          "durationTicks": 46080,
          "midi": 69,
          "name": "A4",
          "ticks": 4653568,
          "time": 133.66162213333334,
          "velocity": 0.6299212598425197
        }
      ]
    },
    {
      "channel": 0,
      "controlChanges": {
        "1": [
          {
            "number": 1,
            "ticks": 0,
            "time": 0,
            "value": 0
          },
          {
            "number": 1,
            "ticks": 35200,
            "time": 1.0110283333333332,
            "value": 0
          },
          {
            "number": 1,
            "ticks": 2304000,
            "time": 66.1764,
            "value": 0
          },
          {
            "number": 1,
            "ticks": 4147200,
            "time": 119.11752,
            "value": 0
          }
        ],
        "11": [
          {
            "number": 11,
            "ticks": 0,
            "time": 0,
            "value": 0.8661417322834646
          },
          {
            "number": 11,
            "ticks": 35840,
            "time": 1.0294106666666667,
            "value": 0.8661417322834646
          },
          {
            "number": 11,
            "ticks": 612480,
            "time": 17.591893,
            "value": 0.8661417322834646
          },
          {
            "number": 11,
            "ticks": 612480,
            "time": 17.591893,
            "value": 0.15748031496062992
          },
          {
            "number": 11,
            "ticks": 612992,
            "time": 17.606598866666666,
            "value": 0.16535433070866143
          },
          {
            "number": 11,
            "ticks": 613504,
            "time": 17.621304733333336,
            "value": 0.1732283464566929
          },
          {
            "number": 11,
            "ticks": 614016,
            "time": 17.636010600000002,
            "value": 0.18110236220472442
          },
          {
            "number": 11,
            "ticks": 614528,
            "time": 17.650716466666665,
            "value": 0.1889763779527559
          },
          {
            "number": 11,
            "ticks": 615040,
            "time": 17.665422333333332,
            "value": 0.1968503937007874
          },
          {
            "number": 11,
            "ticks": 615552,
            "time": 17.680128200000002,
            "value": 0.2047244094488189
          },
          {
            "number": 11,
            "ticks": 616064,
            "time": 17.69483406666667,
            "value": 0.2125984251968504
          },
          {
            "number": 11,
            "ticks": 616576,
            "time": 17.709539933333332,
            "value": 0.2204724409448819
          },
          {
            "number": 11,
            "ticks": 617088,
            "time": 17.7242458,
            "value": 0.2283464566929134
          },
          {
            "number": 11,
            "ticks": 617600,
            "time": 17.73895166666667,
            "value": 0.23622047244094488
          },
          {
            "number": 11,
            "ticks": 618112,
            "time": 17.753657533333335,
            "value": 0.2440944881889764
          },
          {
            "number": 11,
            "ticks": 618624,
            "time": 17.7683634,
            "value": 0.25196850393700787
          },
          {
            "number": 11,
            "ticks": 619136,
            "time": 17.783069266666665,
            "value": 0.25984251968503935
          },
          {
            "number": 11,
            "ticks": 619648,
            "time": 17.797775133333335,
            "value": 0.2677165354330709
          },
          {
            "number": 11,
            "ticks": 620160,
            "time": 17.812481000000002,
            "value": 0.2755905511811024
          },
          {
            "number": 11,
            "ticks": 620672,
            "time": 17.827186866666665,
            "value": 0.28346456692913385
          },
          {
            "number": 11,
            "ticks": 621184,
            "time": 17.841892733333335,
            "value": 0.29133858267716534
          },
          {
            "number": 11,
            "ticks": 621696,
            "time": 17.8565986,
            "value": 0.2992125984251969
          },
          {
            "number": 11,
            "ticks": 622208,
            "time": 17.87130446666667,
            "value": 0.30708661417322836
          },
          {
            "number": 11,
            "ticks": 622720,
            "time": 17.88601033333333,
            "value": 0.31496062992125984
          },
          {
            "number": 11,
            "ticks": 623232,
            "time": 17.9007162,
            "value": 0.3228346456692913
          },
          {
            "number": 11,
            "ticks": 623744,
            "time": 17.915422066666668,
            "value": 0.33070866141732286
          },
          {
            "number": 11,
            "ticks": 624256,
            "time": 17.930127933333335,
            "value": 0.33858267716535434
          },
          {
            "number": 11,
            "ticks": 624768,
            "time": 17.944833799999998,
            "value": 0.3464566929133858
          },
          {
            "number": 11,
            "ticks": 625280,
            "time": 17.959539666666668,
            "value": 0.3543307086614173
          },
          {
            "number": 11,
            "ticks": 625792,
            "time": 17.974245533333335,
            "value": 0.36220472440944884
          },
          {
            "number": 11,
            "ticks": 626304,
            "time": 17.9889514,
            "value": 0.3700787401574803
          },
          {
            "number": 11,
            "ticks": 626816,
            "time": 18.003657266666664,
            "value": 0.3779527559055118
          },
          {
            "number": 11,
            "ticks": 627328,
            "time": 18.018363133333335,
            "value": 0.3858267716535433
          },
          {
            "number": 11,
            "ticks": 627840,
            "time": 18.033069,
            "value": 0.3937007874015748
          },
          {
            "number": 11,
            "ticks": 628352,
            "time": 18.047774866666668,
            "value": 0.4015748031496063
          },
          {
            "number": 11,
            "ticks": 628864,
            "time": 18.062480733333334,
            "value": 0.4094488188976378
          },
          {
            "number": 11,
            "ticks": 629376,
            "time": 18.0771866,
            "value": 0.41732283464566927
          },
          {
            "number": 11,
            "ticks": 629888,
            "time": 18.091892466666668,
            "value": 0.4251968503937008
          },
          {
            "number": 11,
            "ticks": 630400,
            "time": 18.106598333333334,
            "value": 0.4330708661417323
          },
          {
            "number": 11,
            "ticks": 630912,
            "time": 18.1213042,
            "value": 0.4409448818897638
          },
          {
            "number": 11,
            "ticks": 631424,
            "time": 18.136010066666667,
            "value": 0.44881889763779526
          },
          {
            "number": 11,
            "ticks": 631936,
            "time": 18.150715933333334,
            "value": 0.4566929133858268
          },
          {
            "number": 11,
            "ticks": 632448,
            "time": 18.1654218,
            "value": 0.4645669291338583
          },
          {
            "number": 11,
            "ticks": 632960,
            "time": 18.180127666666667,
            "value": 0.47244094488188976
          },
          {
            "number": 11,
            "ticks": 633472,
            "time": 18.194833533333334,
            "value": 0.48031496062992124
          },
          {
            "number": 11,
            "ticks": 633984,
            "time": 18.2095394,
            "value": 0.4881889763779528
          },
          {
            "number": 11,
            "ticks": 634496,
            "time": 18.224245266666667,
            "value": 0.49606299212598426
          },
          {
            "number": 11,
            "ticks": 635008,
            "time": 18.238951133333334,
            "value": 0.5039370078740157
          },
          {
            "number": 11,
            "ticks": 635520,
            "time": 18.253657,
            "value": 0.5118110236220472
          },
          {
            "number": 11,
            "ticks": 636032,
            "time": 18.268362866666667,
            "value": 0.5196850393700787
          },
          {
            "number": 11,
            "ticks": 636544,
            "time": 18.283068733333334,
            "value": 0.5275590551181102
          },
          {
            "number": 11,
            "ticks": 637056,
            "time": 18.2977746,
            "value": 0.5354330708661418
          },
          {
            "number": 11,
            "ticks": 637568,
            "time": 18.312480466666667,
            "value": 0.5433070866141733
          },
          {
            "number": 11,
            "ticks": 638080,
            "time": 18.327186333333334,
            "value": 0.5511811023622047
          },
          {
            "number": 11,
            "ticks": 638592,
            "time": 18.3418922,
            "value": 0.5590551181102362
          },
          {
            "number": 11,
            "ticks": 639104,
            "time": 18.356598066666667,
            "value": 0.5669291338582677
          },
          {
            "number": 11,
            "ticks": 639616,
            "time": 18.371303933333333,
            "value": 0.5748031496062992
          },
          {
            "number": 11,
            "ticks": 640128,
            "time": 18.3860098,
            "value": 0.5826771653543307
          },
          {
            "number": 11,
            "ticks": 640640,
            "time": 18.400715666666667,
            "value": 0.5905511811023622
          },
          {
            "number": 11,
            "ticks": 641152,
            "time": 18.415421533333333,
            "value": 0.5984251968503937
          },
          {
            "number": 11,
            "ticks": 641664,
            "time": 18.4301274,
            "value": 0.6062992125984252
          },
          {
            "number": 11,
            "ticks": 642176,
            "time": 18.444833266666667,
            "value": 0.6141732283464567
          },
          {
            "number": 11,
            "ticks": 642688,
            "time": 18.459539133333333,
            "value": 0.6220472440944882
          },
          {
            "number": 11,
            "ticks": 643200,
            "time": 18.474245,
            "value": 0.6299212598425197
          },
          {
            "number": 11,
            "ticks": 643712,
            "time": 18.488950866666666,
            "value": 0.6377952755905512
          },
          {
            "number": 11,
            "ticks": 644224,
            "time": 18.503656733333337,
            "value": 0.6456692913385826
          },
          {
            "number": 11,
            "ticks": 644736,
            "time": 18.5183626,
            "value": 0.6535433070866141
          },
          {
            "number": 11,
            "ticks": 645248,
            "time": 18.533068466666666,
            "value": 0.6614173228346457
          },
          {
            "number": 11,
            "ticks": 645760,
            "time": 18.547774333333333,
            "value": 0.6692913385826772
          },
          {
            "number": 11,
            "ticks": 646272,
            "time": 18.562480200000003,
            "value": 0.6771653543307087
          },
          {
            "number": 11,
            "ticks": 646784,
            "time": 18.577186066666666,
            "value": 0.6850393700787402
          },
          {
            "number": 11,
            "ticks": 647296,
            "time": 18.591891933333333,
            "value": 0.6929133858267716
          },
          {
            "number": 11,
            "ticks": 647808,
            "time": 18.6065978,
            "value": 0.7007874015748031
          },
          {
            "number": 11,
            "ticks": 648320,
            "time": 18.62130366666667,
            "value": 0.7086614173228346
          },
          {
            "number": 11,
            "ticks": 648832,
            "time": 18.636009533333333,
            "value": 0.7165354330708661
          },
          {
            "number": 11,
            "ticks": 649344,
            "time": 18.6507154,
            "value": 0.7244094488188977
          },
          {
            "number": 11,
            "ticks": 649856,
            "time": 18.665421266666666,
            "value": 0.7322834645669292
          },
          {
            "number": 11,
            "ticks": 650368,
            "time": 18.680127133333336,
            "value": 0.7401574803149606
          },
          {
            "number": 11,
            "ticks": 650880,
            "time": 18.694833,
            "value": 0.7480314960629921
          },
          {
            "number": 11,
            "ticks": 651392,
            "time": 18.709538866666666,
            "value": 0.7559055118110236
          },
          {
            "number": 11,
            "ticks": 651904,
            "time": 18.724244733333336,
            "value": 0.7637795275590551
          },
          {
            "number": 11,
            "ticks": 652416,
            "time": 18.738950600000003,
            "value": 0.7716535433070866
          },
          {
            "number": 11,
            "ticks": 652928,
            "time": 18.753656466666666,
            "value": 0.7795275590551181
          },
          {
            "number": 11,
            "ticks": 653440,
            "time": 18.768362333333332,
            "value": 0.7874015748031497
          },
          {
            "number": 11,
            "ticks": 653952,
            "time": 18.783068200000002,
            "value": 0.7952755905511811
          },
          {
            "number": 11,
            "ticks": 654464,
            "time": 18.79777406666667,
            "value": 0.8031496062992126
          },
          {
            "number": 11,
            "ticks": 654976,
            "time": 18.812479933333332,
            "value": 0.8110236220472441
          },
          {
            "number": 11,
            "ticks": 655488,
            "time": 18.8271858,
            "value": 0.8188976377952756
          },
          {
            "number": 11,
            "ticks": 656000,
            "time": 18.84189166666667,
            "value": 0.8267716535433071
          },
          {
            "number": 11,
            "ticks": 656512,
            "time": 18.856597533333336,
            "value": 0.8346456692913385
          },
          {
            "number": 11,
            "ticks": 657024,
            "time": 18.8713034,
            "value": 0.84251968503937
          },
          {
            "number": 11,
            "ticks": 657536,
            "time": 18.886009266666665,
            "value": 0.8503937007874016
          },
          {
            "number": 11,
            "ticks": 658048,
            "time": 18.900715133333335,
            "value": 0.8661417322834646
          },
          {
            "number": 11,
            "ticks": 2304000,
            "time": 66.1764,
            "value": 0.8661417322834646
          },
          {
            "number": 11,
            "ticks": 4147200,
            "time": 119.11752,
            "value": 0.8661417322834646
          }
        ],
        "64": [
          {
            "number": 64,
            "ticks": 0,
            "time": 0,
            "value": 0
          },
          {
            "number": 64,
            "ticks": 36480,
            "time": 1.047793,
            "value": 0
          },
          {
            "number": 64,
            "ticks": 2304000,
            "time": 66.1764,
            "value": 0
          },
          {
            "number": 64,
            "ticks": 4147200,
            "time": 119.11752,
            "value": 0
          }
        ]
      },
      "pitchBends": [],
      "instrument": {
        "family": "piano",
        "name": "acoustic grand piano",
        "number": 0
      },
      "name": "harp                     Ch2",
      "notes": [
        {
          "duration": 1.761027533333337,
          "durationTicks": 61312,
          "midi": 57,
          "name": "A3",
          "ticks": 612480,
          "time": 17.591893,
          "velocity": 0.6299212598425197
        },
        {
          "duration": 0.4227936666666672,
          "durationTicks": 14720,
          "midi": 57,
          "name": "A3",
          "ticks": 673920,
          "time": 19.356597,
          "velocity": 0.6299212598425197
        },
        {
          "duration": 0.21691153333333446,
          "durationTicks": 7552,
          "midi": 57,
          "name": "A3",
          "ticks": 689280,
          "time": 19.797773,
          "velocity": 0.6299212598425197
        },
        {
          "duration": 0.2169115333333309,
          "durationTicks": 7552,
          "midi": 55,
          "name": "G3",
          "ticks": 696960,
          "time": 20.018361000000002,
          "velocity": 0.5905511811023622
        },
        {
          "duration": 0.4044113333333321,
          "durationTicks": 14080,
          "midi": 57,
          "name": "A3",
          "ticks": 704640,
          "time": 20.238949,
          "velocity": 0.6299212598425197
        },
        {
          "duration": 0.4044113333333321,
          "durationTicks": 14080,
          "midi": 53,
          "name": "F3",
          "ticks": 720000,
          "time": 20.680125,
          "velocity": 0.6141732283464567
        },
        {
          "duration": 0.4044113333333357,
          "durationTicks": 14080,
          "midi": 50,
          "name": "D3",
          "ticks": 735360,
          "time": 21.121301,
          "velocity": 0.6299212598425197
        },
        {
          "duration": 0.4044113333333321,
          "durationTicks": 14080,
          "midi": 53,
          "name": "F3",
          "ticks": 750720,
          "time": 21.562477,
          "velocity": 0.6141732283464567
        },
        {
          "duration": 0.878675533333336,
          "durationTicks": 30592,
          "midi": 55,
          "name": "G3",
          "ticks": 766080,
          "time": 22.003653,
          "velocity": 0.5984251968503937
        },
        {
          "duration": 0.21691153333333446,
          "durationTicks": 7552,
          "midi": 58,
          "name": "A#3",
          "ticks": 796800,
          "time": 22.886005,
          "velocity": 0.6692913385826772
        },
        {
          "duration": 0.21691153333333446,
          "durationTicks": 7552,
          "midi": 57,
          "name": "A3",
          "ticks": 804480,
          "time": 23.106593,
          "velocity": 0.6299212598425197
        },
        {
          "duration": 0.21691153333333446,
          "durationTicks": 7552,
          "midi": 53,
          "name": "F3",
          "ticks": 812160,
          "time": 23.327181,
          "velocity": 0.6535433070866141
        },
        {
          "duration": 0.2169115333333309,
          "durationTicks": 7552,
          "midi": 55,
          "name": "G3",
          "ticks": 819840,
          "time": 23.547769000000002,
          "velocity": 0.6299212598425197
        },
        {
          "duration": 0.3860290000000006,
          "durationTicks": 13440,
          "midi": 52,
          "name": "E3",
          "ticks": 827520,
          "time": 23.768357,
          "velocity": 0.5905511811023622
        },
        {
          "duration": 0.4044113333333321,
          "durationTicks": 14080,
          "midi": 50,
          "name": "D3",
          "ticks": 842880,
          "time": 24.209533,
          "velocity": 0.6299212598425197
        },
        {
          "duration": 0.4044113333333357,
          "durationTicks": 14080,
          "midi": 53,
          "name": "F3",
          "ticks": 858240,
          "time": 24.650709,
          "velocity": 0.6456692913385826
        },
        {
          "duration": 0.4044113333333321,
          "durationTicks": 14080,
          "midi": 55,
          "name": "G3",
          "ticks": 873600,
          "time": 25.091885,
          "velocity": 0.6614173228346457
        },
        {
          "duration": 0.21691153333333446,
          "durationTicks": 7552,
          "midi": 55,
          "name": "G3",
          "ticks": 888960,
          "time": 25.533061,
          "velocity": 0.6692913385826772
        },
        {
          "duration": 0.21691153333333446,
          "durationTicks": 7552,
          "midi": 53,
          "name": "F3",
          "ticks": 896640,
          "time": 25.753649,
          "velocity": 0.6535433070866141
        },
        {
          "duration": 0.4374995333333338,
          "durationTicks": 15232,
          "midi": 50,
          "name": "D3",
          "ticks": 904320,
          "time": 25.974237000000002,
          "velocity": 0.6299212598425197
        },
        {
          "duration": 1.3235279999999996,
          "durationTicks": 46080,
          "midi": 48,
          "name": "C3",
          "ticks": 919680,
          "time": 26.415413,
          "velocity": 0.5905511811023622
        },
        {
          "duration": 0.4227936666666672,
          "durationTicks": 14720,
          "midi": 57,
          "name": "A3",
          "ticks": 981120,
          "time": 28.180117,
          "velocity": 0.6299212598425197
        },
        {
          "duration": 0.2169115333333309,
          "durationTicks": 7552,
          "midi": 57,
          "name": "A3",
          "ticks": 996480,
          "time": 28.621293,
          "velocity": 0.6299212598425197
        },
        {
          "duration": 0.2169115333333309,
          "durationTicks": 7552,
          "midi": 55,
          "name": "G3",
          "ticks": 1004160,
          "time": 28.841881,
          "velocity": 0.5905511811023622
        },
        {
          "duration": 0.3860290000000006,
          "durationTicks": 13440,
          "midi": 57,
          "name": "A3",
          "ticks": 1011840,
          "time": 29.062469,
          "velocity": 0.6299212598425197
        },
        {
          "duration": 0.4044113333333357,
          "durationTicks": 14080,
          "midi": 53,
          "name": "F3",
          "ticks": 1027200,
          "time": 29.503645000000002,
          "velocity": 0.6141732283464567
        },
        {
          "duration": 0.4044113333333357,
          "durationTicks": 14080,
          "midi": 50,
          "name": "D3",
          "ticks": 1042560,
          "time": 29.944821,
          "velocity": 0.6299212598425197
        },
        {
          "duration": 0.4044113333333357,
          "durationTicks": 14080,
          "midi": 53,
          "name": "F3",
          "ticks": 1057920,
          "time": 30.385997,
          "velocity": 0.6141732283464567
        },
        {
          "duration": 0.8786755333333289,
          "durationTicks": 30592,
          "midi": 55,
          "name": "G3",
          "ticks": 1073280,
          "time": 30.827173000000002,
          "velocity": 0.5984251968503937
        },
        {
          "duration": 0.2169115333333309,
          "durationTicks": 7552,
          "midi": 58,
          "name": "A#3",
          "ticks": 1104000,
          "time": 31.709525,
          "velocity": 0.6692913385826772
        },
        {
          "duration": 0.21691153333332736,
          "durationTicks": 7552,
          "midi": 57,
          "name": "A3",
          "ticks": 1111680,
          "time": 31.930113000000002,
          "velocity": 0.6299212598425197
        },
        {
          "duration": 0.2169115333333309,
          "durationTicks": 7552,
          "midi": 53,
          "name": "F3",
          "ticks": 1119360,
          "time": 32.150701,
          "velocity": 0.6535433070866141
        },
        {
          "duration": 0.2169115333333238,
          "durationTicks": 7552,
          "midi": 55,
          "name": "G3",
          "ticks": 1127040,
          "time": 32.371289000000004,
          "velocity": 0.6299212598425197
        },
        {
          "duration": 0.3860290000000006,
          "durationTicks": 13440,
          "midi": 52,
          "name": "E3",
          "ticks": 1134720,
          "time": 32.591877000000004,
          "velocity": 0.5984251968503937
        },
        {
          "duration": 0.4044113333333357,
          "durationTicks": 14080,
          "midi": 50,
          "name": "D3",
          "ticks": 1150080,
          "time": 33.033053,
          "velocity": 0.6299212598425197
        },
        {
          "duration": 0.4044113333333357,
          "durationTicks": 14080,
          "midi": 53,
          "name": "F3",
          "ticks": 1165440,
          "time": 33.474229,
          "velocity": 0.6456692913385826
        },
        {
          "duration": 0.4044113333333357,
          "durationTicks": 14080,
          "midi": 55,
          "name": "G3",
          "ticks": 1180800,
          "time": 33.915405,
          "velocity": 0.6614173228346457
        },
        {
          "duration": 0.2169115333333309,
          "durationTicks": 7552,
          "midi": 55,
          "name": "G3",
          "ticks": 1196160,
          "time": 34.356581,
          "velocity": 0.6771653543307087
        },
        {
          "duration": 0.2169115333333309,
          "durationTicks": 7552,
          "midi": 53,
          "name": "F3",
          "ticks": 1203840,
          "time": 34.577169,
          "velocity": 0.6614173228346457
        },
        {
          "duration": 0.2169115333333238,
          "durationTicks": 7552,
          "midi": 50,
          "name": "D3",
          "ticks": 1211520,
          "time": 34.797757000000004,
          "velocity": 0.6456692913385826
        },
        {
          "duration": 0.10661753333332769,
          "durationTicks": 3712,
          "midi": 52,
          "name": "E3",
          "ticks": 1219200,
          "time": 35.018345000000004,
          "velocity": 0.5984251968503937
        },
        {
          "duration": 0.10661753333333479,
          "durationTicks": 3712,
          "midi": 48,
          "name": "C3",
          "ticks": 1223040,
          "time": 35.128639,
          "velocity": 0.5984251968503937
        },
        {
          "duration": 1.323527999999996,
          "durationTicks": 46080,
          "midi": 50,
          "name": "D3",
          "ticks": 1226880,
          "time": 35.238933,
          "velocity": 0.5905511811023622
        },
        {
          "duration": 0.43749953333333735,
          "durationTicks": 15232,
          "midi": 50,
          "name": "D3",
          "ticks": 1288320,
          "time": 37.003637,
          "velocity": 0.6692913385826772
        },
        {
          "duration": 0.43749953333333025,
          "durationTicks": 15232,
          "midi": 50,
          "name": "D3",
          "ticks": 1303680,
          "time": 37.444813,
          "velocity": 0.6692913385826772
        },
        {
          "duration": 0.43749953333333025,
          "durationTicks": 15232,
          "midi": 57,
          "name": "A3",
          "ticks": 1319040,
          "time": 37.885989,
          "velocity": 0.7086614173228346
        },
        {
          "duration": 0.43749953333333025,
          "durationTicks": 15232,
          "midi": 59,
          "name": "B3",
          "ticks": 1334400,
          "time": 38.327165,
          "velocity": 0.7480314960629921
        },
        {
          "duration": 0.43749953333333025,
          "durationTicks": 15232,
          "midi": 62,
          "name": "D4",
          "ticks": 1349760,
          "time": 38.768341,
          "velocity": 0.7874015748031497
        },
        {
          "duration": 0.43749953333333025,
          "durationTicks": 15232,
          "midi": 59,
          "name": "B3",
          "ticks": 1365120,
          "time": 39.209517,
          "velocity": 0.7480314960629921
        },
        {
          "duration": 0.2169115333333309,
          "durationTicks": 7552,
          "midi": 60,
          "name": "C4",
          "ticks": 1380480,
          "time": 39.650693000000004,
          "velocity": 0.7874015748031497
        },
        {
          "duration": 0.2169115333333309,
          "durationTicks": 7552,
          "midi": 57,
          "name": "A3",
          "ticks": 1388160,
          "time": 39.871281,
          "velocity": 0.7480314960629921
        },
        {
          "duration": 0.36764666666666557,
          "durationTicks": 12800,
          "midi": 55,
          "name": "G3",
          "ticks": 1395840,
          "time": 40.091869,
          "velocity": 0.7244094488188977
        },
        {
          "duration": 0.43749953333333025,
          "durationTicks": 15232,
          "midi": 59,
          "name": "B3",
          "ticks": 1411200,
          "time": 40.533045,
          "velocity": 0.7480314960629921
        },
        {
          "duration": 0.43749953333333025,
          "durationTicks": 15232,
          "midi": 60,
          "name": "C4",
          "ticks": 1426560,
          "time": 40.974221,
          "velocity": 0.7716535433070866
        },
        {
          "duration": 0.43749953333333025,
          "durationTicks": 15232,
          "midi": 57,
          "name": "A3",
          "ticks": 1441920,
          "time": 41.415397,
          "velocity": 0.7480314960629921
        },
        {
          "duration": 0.2169115333333238,
          "durationTicks": 7552,
          "midi": 55,
          "name": "G3",
          "ticks": 1457280,
          "time": 41.856573000000004,
          "velocity": 0.7480314960629921
        },
        {
          "duration": 0.2169115333333309,
          "durationTicks": 7552,
          "midi": 53,
          "name": "F3",
          "ticks": 1464960,
          "time": 42.077161000000004,
          "velocity": 0.7086614173228346
        },
        {
          "duration": 0.2169115333333309,
          "durationTicks": 7552,
          "midi": 53,
          "name": "F3",
          "ticks": 1472640,
          "time": 42.297749,
          "velocity": 0.7244094488188977
        },
        {
          "duration": 0.2169115333333309,
          "durationTicks": 7552,
          "midi": 52,
          "name": "E3",
          "ticks": 1480320,
          "time": 42.518337,
          "velocity": 0.6850393700787402
        },
        {
          "duration": 1.323527999999996,
          "durationTicks": 46080,
          "midi": 50,
          "name": "D3",
          "ticks": 1488000,
          "time": 42.738925,
          "velocity": 0.6299212598425197
        },
        {
          "duration": 0.43749953333333025,
          "durationTicks": 15232,
          "midi": 50,
          "name": "D3",
          "ticks": 1549440,
          "time": 44.503629000000004,
          "velocity": 0.6692913385826772
        },
        {
          "duration": 0.43749953333333025,
          "durationTicks": 15232,
          "midi": 50,
          "name": "D3",
          "ticks": 1564800,
          "time": 44.944805,
          "velocity": 0.6692913385826772
        },
        {
          "duration": 0.43749953333333025,
          "durationTicks": 15232,
          "midi": 57,
          "name": "A3",
          "ticks": 1580160,
          "time": 45.385981,
          "velocity": 0.7086614173228346
        },
        {
          "duration": 0.43749953333333025,
          "durationTicks": 15232,
          "midi": 59,
          "name": "B3",
          "ticks": 1595520,
          "time": 45.827157,
          "velocity": 0.7480314960629921
        },
        {
          "duration": 0.43749953333333025,
          "durationTicks": 15232,
          "midi": 62,
          "name": "D4",
          "ticks": 1610880,
          "time": 46.268333,
          "velocity": 0.7874015748031497
        },
        {
          "duration": 0.43749953333333025,
          "durationTicks": 15232,
          "midi": 59,
          "name": "B3",
          "ticks": 1626240,
          "time": 46.709509000000004,
          "velocity": 0.7480314960629921
        },
        {
          "duration": 0.2169115333333309,
          "durationTicks": 7552,
          "midi": 60,
          "name": "C4",
          "ticks": 1641600,
          "time": 47.150685,
          "velocity": 0.7874015748031497
        },
        {
          "duration": 0.2169115333333309,
          "durationTicks": 7552,
          "midi": 57,
          "name": "A3",
          "ticks": 1649280,
          "time": 47.371273,
          "velocity": 0.7480314960629921
        },
        {
          "duration": 0.3860290000000006,
          "durationTicks": 13440,
          "midi": 55,
          "name": "G3",
          "ticks": 1656960,
          "time": 47.591861,
          "velocity": 0.7244094488188977
        },
        {
          "duration": 0.43749953333333025,
          "durationTicks": 15232,
          "midi": 59,
          "name": "B3",
          "ticks": 1672320,
          "time": 48.033037,
          "velocity": 0.7480314960629921
        },
        {
          "duration": 0.43749953333333025,
          "durationTicks": 15232,
          "midi": 60,
          "name": "C4",
          "ticks": 1687680,
          "time": 48.474213,
          "velocity": 0.7716535433070866
        },
        {
          "duration": 0.43749953333333025,
          "durationTicks": 15232,
          "midi": 57,
          "name": "A3",
          "ticks": 1703040,
          "time": 48.915389000000005,
          "velocity": 0.7480314960629921
        },
        {
          "duration": 0.2169115333333309,
          "durationTicks": 7552,
          "midi": 55,
          "name": "G3",
          "ticks": 1718400,
          "time": 49.356565,
          "velocity": 0.7480314960629921
        },
        {
          "duration": 0.2169115333333309,
          "durationTicks": 7552,
          "midi": 53,
          "name": "F3",
          "ticks": 1726080,
          "time": 49.577153,
          "velocity": 0.7086614173228346
        },
        {
          "duration": 0.2169115333333309,
          "durationTicks": 7552,
          "midi": 53,
          "name": "F3",
          "ticks": 1733760,
          "time": 49.797741,
          "velocity": 0.7244094488188977
        },
        {
          "duration": 0.2169115333333309,
          "durationTicks": 7552,
          "midi": 52,
          "name": "E3",
          "ticks": 1741440,
          "time": 50.018329,
          "velocity": 0.6850393700787402
        },
        {
          "duration": 1.3235280000000031,
          "durationTicks": 46080,
          "midi": 50,
          "name": "D3",
          "ticks": 1749120,
          "time": 50.238917,
          "velocity": 0.6299212598425197
        },
        {
          "duration": 0.4227936666666636,
          "durationTicks": 14720,
          "midi": 57,
          "name": "A3",
          "ticks": 1810560,
          "time": 52.003621,
          "velocity": 0.7086614173228346
        },
        {
          "duration": 0.2169115333333309,
          "durationTicks": 7552,
          "midi": 57,
          "name": "A3",
          "ticks": 1825920,
          "time": 52.444797,
          "velocity": 0.7086614173228346
        },
        {
          "duration": 0.2169115333333309,
          "durationTicks": 7552,
          "midi": 55,
          "name": "G3",
          "ticks": 1833600,
          "time": 52.665385,
          "velocity": 0.6692913385826772
        },
        {
          "duration": 0.3970584000000059,
          "durationTicks": 13824,
          "midi": 57,
          "name": "A3",
          "ticks": 1841280,
          "time": 52.885973,
          "velocity": 0.7086614173228346
        },
        {
          "duration": 0.4044113333333357,
          "durationTicks": 14080,
          "midi": 53,
          "name": "F3",
          "ticks": 1856640,
          "time": 53.327149,
          "velocity": 0.6929133858267716
        },
        {
          "duration": 0.4044113333333357,
          "durationTicks": 14080,
          "midi": 50,
          "name": "D3",
          "ticks": 1872000,
          "time": 53.768325000000004,
          "velocity": 0.7086614173228346
        },
        {
          "duration": 0.4044113333333357,
          "durationTicks": 14080,
          "midi": 53,
          "name": "F3",
          "ticks": 1887360,
          "time": 54.209501,
          "velocity": 0.6929133858267716
        },
        {
          "duration": 0.8786755333333289,
          "durationTicks": 30592,
          "midi": 55,
          "name": "G3",
          "ticks": 1902720,
          "time": 54.650677,
          "velocity": 0.6771653543307087
        },
        {
          "duration": 0.2169115333333309,
          "durationTicks": 7552,
          "midi": 58,
          "name": "A#3",
          "ticks": 1933440,
          "time": 55.533029,
          "velocity": 0.7480314960629921
        },
        {
          "duration": 0.2169115333333309,
          "durationTicks": 7552,
          "midi": 57,
          "name": "A3",
          "ticks": 1941120,
          "time": 55.753617,
          "velocity": 0.7086614173228346
        },
        {
          "duration": 0.2169115333333238,
          "durationTicks": 7552,
          "midi": 53,
          "name": "F3",
          "ticks": 1948800,
          "time": 55.974205000000005,
          "velocity": 0.7322834645669292
        },
        {
          "duration": 0.2169115333333309,
          "durationTicks": 7552,
          "midi": 55,
          "name": "G3",
          "ticks": 1956480,
          "time": 56.194793000000004,
          "velocity": 0.7086614173228346
        },
        {
          "duration": 0.3860290000000006,
          "durationTicks": 13440,
          "midi": 52,
          "name": "E3",
          "ticks": 1964160,
          "time": 56.415381000000004,
          "velocity": 0.6692913385826772
        },
        {
          "duration": 0.40441133333332857,
          "durationTicks": 14080,
          "midi": 50,
          "name": "D3",
          "ticks": 1979520,
          "time": 56.856557,
          "velocity": 0.7086614173228346
        },
        {
          "duration": 0.40441133333332857,
          "durationTicks": 14080,
          "midi": 53,
          "name": "F3",
          "ticks": 1994880,
          "time": 57.297733,
          "velocity": 0.7244094488188977
        },
        {
          "duration": 0.40441133333332857,
          "durationTicks": 14080,
          "midi": 55,
          "name": "G3",
          "ticks": 2010240,
          "time": 57.738909,
          "velocity": 0.7401574803149606
        },
        {
          "duration": 0.216911533333338,
          "durationTicks": 7552,
          "midi": 55,
          "name": "G3",
          "ticks": 2025600,
          "time": 58.180085,
          "velocity": 0.7480314960629921
        },
        {
          "duration": 0.2169115333333309,
          "durationTicks": 7552,
          "midi": 53,
          "name": "F3",
          "ticks": 2033280,
          "time": 58.400673000000005,
          "velocity": 0.7086614173228346
        },
        {
          "duration": 0.43749953333333735,
          "durationTicks": 15232,
          "midi": 50,
          "name": "D3",
          "ticks": 2040960,
          "time": 58.621261000000004,
          "velocity": 0.7244094488188977
        },
        {
          "duration": 1.323527999999996,
          "durationTicks": 46080,
          "midi": 48,
          "name": "C3",
          "ticks": 2056320,
          "time": 59.062437,
          "velocity": 0.6692913385826772
        },
        {
          "duration": 0.42279366666667073,
          "durationTicks": 14720,
          "midi": 57,
          "name": "A3",
          "ticks": 2117760,
          "time": 60.827141000000005,
          "velocity": 0.7086614173228346
        },
        {
          "duration": 0.216911533333338,
          "durationTicks": 7552,
          "midi": 57,
          "name": "A3",
          "ticks": 2133120,
          "time": 61.268317,
          "velocity": 0.7086614173228346
        },
        {
          "duration": 0.216911533333338,
          "durationTicks": 7552,
          "midi": 55,
          "name": "G3",
          "ticks": 2140800,
          "time": 61.488905,
          "velocity": 0.6692913385826772
        },
        {
          "duration": 0.3970583999999988,
          "durationTicks": 13824,
          "midi": 57,
          "name": "A3",
          "ticks": 2148480,
          "time": 61.709493,
          "velocity": 0.7086614173228346
        },
        {
          "duration": 0.40441133333332857,
          "durationTicks": 14080,
          "midi": 53,
          "name": "F3",
          "ticks": 2163840,
          "time": 62.150669,
          "velocity": 0.6929133858267716
        },
        {
          "duration": 0.40441133333332857,
          "durationTicks": 14080,
          "midi": 50,
          "name": "D3",
          "ticks": 2179200,
          "time": 62.591845,
          "velocity": 0.7086614173228346
        },
        {
          "duration": 0.40441133333332857,
          "durationTicks": 14080,
          "midi": 53,
          "name": "F3",
          "ticks": 2194560,
          "time": 63.033021000000005,
          "velocity": 0.6929133858267716
        },
        {
          "duration": 0.878675533333336,
          "durationTicks": 30592,
          "midi": 55,
          "name": "G3",
          "ticks": 2209920,
          "time": 63.474197000000004,
          "velocity": 0.6771653543307087
        },
        {
          "duration": 0.2169115333333309,
          "durationTicks": 7552,
          "midi": 58,
          "name": "A#3",
          "ticks": 2240640,
          "time": 64.356549,
          "velocity": 0.7480314960629921
        },
        {
          "duration": 0.2169115333333309,
          "durationTicks": 7552,
          "midi": 57,
          "name": "A3",
          "ticks": 2248320,
          "time": 64.57713700000001,
          "velocity": 0.7086614173228346
        },
        {
          "duration": 0.21691153333334512,
          "durationTicks": 7552,
          "midi": 53,
          "name": "F3",
          "ticks": 2256000,
          "time": 64.797725,
          "velocity": 0.7322834645669292
        },
        {
          "duration": 0.2169115333333309,
          "durationTicks": 7552,
          "midi": 55,
          "name": "G3",
          "ticks": 2263680,
          "time": 65.018313,
          "velocity": 0.7086614173228346
        },
        {
          "duration": 0.3860290000000077,
          "durationTicks": 13440,
          "midi": 52,
          "name": "E3",
          "ticks": 2271360,
          "time": 65.238901,
          "velocity": 0.6771653543307087
        },
        {
          "duration": 0.40441133333332857,
          "durationTicks": 14080,
          "midi": 50,
          "name": "D3",
          "ticks": 2286720,
          "time": 65.680077,
          "velocity": 0.7086614173228346
        },
        {
          "duration": 0.40441133333332857,
          "durationTicks": 14080,
          "midi": 53,
          "name": "F3",
          "ticks": 2302080,
          "time": 66.121253,
          "velocity": 0.7244094488188977
        },
        {
          "duration": 0.8639696666666765,
          "durationTicks": 30080,
          "midi": 62,
          "name": "D4",
          "ticks": 2365440,
          "time": 67.941104,
          "velocity": 0.6299212598425197
        },
        {
          "duration": 0.09558813333332239,
          "durationTicks": 3328,
          "midi": 62,
          "name": "D4",
          "ticks": 2396160,
          "time": 68.82345600000001,
          "velocity": 0.6299212598425197
        },
        {
          "duration": 0.0955881333333366,
          "durationTicks": 3328,
          "midi": 64,
          "name": "E4",
          "ticks": 2400000,
          "time": 68.93375,
          "velocity": 0.6299212598425197
        },
        {
          "duration": 0.0955881333333366,
          "durationTicks": 3328,
          "midi": 62,
          "name": "D4",
          "ticks": 2403840,
          "time": 69.044044,
          "velocity": 0.6299212598425197
        },
        {
          "duration": 0.0955881333333366,
          "durationTicks": 3328,
          "midi": 64,
          "name": "E4",
          "ticks": 2407680,
          "time": 69.154338,
          "velocity": 0.6299212598425197
        },
        {
          "duration": 0.4227936666666636,
          "durationTicks": 14720,
          "midi": 62,
          "name": "D4",
          "ticks": 2411520,
          "time": 69.264632,
          "velocity": 0.6299212598425197
        },
        {
          "duration": 0.4227936666666636,
          "durationTicks": 14720,
          "midi": 69,
          "name": "A4",
          "ticks": 2426880,
          "time": 69.705808,
          "velocity": 0.6299212598425197
        },
        {
          "duration": 0.2022056666666714,
          "durationTicks": 7040,
          "midi": 69,
          "name": "A4",
          "ticks": 2442240,
          "time": 70.146984,
          "velocity": 0.6299212598425197
        },
        {
          "duration": 0.2022056666666714,
          "durationTicks": 7040,
          "midi": 67,
          "name": "G4",
          "ticks": 2449920,
          "time": 70.367572,
          "velocity": 0.5905511811023622
        },
        {
          "duration": 0.42279366666667784,
          "durationTicks": 14720,
          "midi": 69,
          "name": "A4",
          "ticks": 2457600,
          "time": 70.58816,
          "velocity": 0.6299212598425197
        },
        {
          "duration": 0.42279366666667784,
          "durationTicks": 14720,
          "midi": 65,
          "name": "F4",
          "ticks": 2472960,
          "time": 71.029336,
          "velocity": 0.6141732283464567
        },
        {
          "duration": 0.42279366666667784,
          "durationTicks": 14720,
          "midi": 62,
          "name": "D4",
          "ticks": 2488320,
          "time": 71.470512,
          "velocity": 0.6299212598425197
        },
        {
          "duration": 0.42279366666667784,
          "durationTicks": 14720,
          "midi": 65,
          "name": "F4",
          "ticks": 2503680,
          "time": 71.911688,
          "velocity": 0.6141732283464567
        },
        {
          "duration": 0.8639696666666765,
          "durationTicks": 30080,
          "midi": 67,
          "name": "G4",
          "ticks": 2519040,
          "time": 72.352864,
          "velocity": 0.5984251968503937
        },
        {
          "duration": 0.2022056666666714,
          "durationTicks": 7040,
          "midi": 70,
          "name": "A#4",
          "ticks": 2549760,
          "time": 73.23521600000001,
          "velocity": 0.6692913385826772
        },
        {
          "duration": 0.2022056666666714,
          "durationTicks": 7040,
          "midi": 69,
          "name": "A4",
          "ticks": 2557440,
          "time": 73.455804,
          "velocity": 0.6299212598425197
        },
        {
          "duration": 0.2022056666666714,
          "durationTicks": 7040,
          "midi": 65,
          "name": "F4",
          "ticks": 2565120,
          "time": 73.676392,
          "velocity": 0.6535433070866141
        },
        {
          "duration": 0.2022056666666714,
          "durationTicks": 7040,
          "midi": 67,
          "name": "G4",
          "ticks": 2572800,
          "time": 73.89698,
          "velocity": 0.6299212598425197
        },
        {
          "duration": 0.3860289999999935,
          "durationTicks": 13440,
          "midi": 64,
          "name": "E4",
          "ticks": 2580480,
          "time": 74.117568,
          "velocity": 0.5905511811023622
        },
        {
          "duration": 0.4227936666666636,
          "durationTicks": 14720,
          "midi": 62,
          "name": "D4",
          "ticks": 2595840,
          "time": 74.558744,
          "velocity": 0.6299212598425197
        },
        {
          "duration": 0.4227936666666636,
          "durationTicks": 14720,
          "midi": 65,
          "name": "F4",
          "ticks": 2611200,
          "time": 74.99992,
          "velocity": 0.6456692913385826
        },
        {
          "duration": 0.42279366666667784,
          "durationTicks": 14720,
          "midi": 67,
          "name": "G4",
          "ticks": 2626560,
          "time": 75.441096,
          "velocity": 0.6614173228346457
        },
        {
          "duration": 0.2022056666666714,
          "durationTicks": 7040,
          "midi": 67,
          "name": "G4",
          "ticks": 2641920,
          "time": 75.882272,
          "velocity": 0.6692913385826772
        },
        {
          "duration": 0.2022056666666714,
          "durationTicks": 7040,
          "midi": 65,
          "name": "F4",
          "ticks": 2649600,
          "time": 76.10286,
          "velocity": 0.6535433070866141
        },
        {
          "duration": 0.42279366666667784,
          "durationTicks": 14720,
          "midi": 62,
          "name": "D4",
          "ticks": 2657280,
          "time": 76.323448,
          "velocity": 0.6299212598425197
        },
        {
          "duration": 0.8639696666666765,
          "durationTicks": 30080,
          "midi": 60,
          "name": "C4",
          "ticks": 2672640,
          "time": 76.764624,
          "velocity": 0.5905511811023622
        },
        {
          "duration": 0.2022056666666714,
          "durationTicks": 7040,
          "midi": 62,
          "name": "D4",
          "ticks": 2703360,
          "time": 77.646976,
          "velocity": 0.5905511811023622
        },
        {
          "duration": 0.2022056666666714,
          "durationTicks": 7040,
          "midi": 64,
          "name": "E4",
          "ticks": 2711040,
          "time": 77.867564,
          "velocity": 0.5905511811023622
        },
        {
          "duration": 0.2022056666666714,
          "durationTicks": 7040,
          "midi": 65,
          "name": "F4",
          "ticks": 2718720,
          "time": 78.08815200000001,
          "velocity": 0.5905511811023622
        },
        {
          "duration": 0.2022056666666714,
          "durationTicks": 7040,
          "midi": 67,
          "name": "G4",
          "ticks": 2726400,
          "time": 78.30874,
          "velocity": 0.5905511811023622
        },
        {
          "duration": 0.4227936666666636,
          "durationTicks": 14720,
          "midi": 69,
          "name": "A4",
          "ticks": 2734080,
          "time": 78.529328,
          "velocity": 0.6299212598425197
        },
        {
          "duration": 0.2022056666666714,
          "durationTicks": 7040,
          "midi": 69,
          "name": "A4",
          "ticks": 2749440,
          "time": 78.970504,
          "velocity": 0.6299212598425197
        },
        {
          "duration": 0.2022056666666714,
          "durationTicks": 7040,
          "midi": 67,
          "name": "G4",
          "ticks": 2757120,
          "time": 79.191092,
          "velocity": 0.5905511811023622
        },
        {
          "duration": 0.4227936666666636,
          "durationTicks": 14720,
          "midi": 69,
          "name": "A4",
          "ticks": 2764800,
          "time": 79.41168,
          "velocity": 0.6299212598425197
        },
        {
          "duration": 0.4227936666666636,
          "durationTicks": 14720,
          "midi": 65,
          "name": "F4",
          "ticks": 2780160,
          "time": 79.852856,
          "velocity": 0.6141732283464567
        },
        {
          "duration": 0.42279366666667784,
          "durationTicks": 14720,
          "midi": 62,
          "name": "D4",
          "ticks": 2795520,
          "time": 80.294032,
          "velocity": 0.6299212598425197
        },
        {
          "duration": 0.42279366666667784,
          "durationTicks": 14720,
          "midi": 65,
          "name": "F4",
          "ticks": 2810880,
          "time": 80.735208,
          "velocity": 0.6141732283464567
        },
        {
          "duration": 0.8639696666666765,
          "durationTicks": 30080,
          "midi": 67,
          "name": "G4",
          "ticks": 2826240,
          "time": 81.176384,
          "velocity": 0.5984251968503937
        },
        {
          "duration": 0.2022056666666714,
          "durationTicks": 7040,
          "midi": 70,
          "name": "A#4",
          "ticks": 2856960,
          "time": 82.058736,
          "velocity": 0.6692913385826772
        },
        {
          "duration": 0.2022056666666714,
          "durationTicks": 7040,
          "midi": 69,
          "name": "A4",
          "ticks": 2864640,
          "time": 82.279324,
          "velocity": 0.6299212598425197
        },
        {
          "duration": 0.20220566666665718,
          "durationTicks": 7040,
          "midi": 65,
          "name": "F4",
          "ticks": 2872320,
          "time": 82.49991200000001,
          "velocity": 0.6535433070866141
        },
        {
          "duration": 0.2022056666666714,
          "durationTicks": 7040,
          "midi": 67,
          "name": "G4",
          "ticks": 2880000,
          "time": 82.7205,
          "velocity": 0.6299212598425197
        },
        {
          "duration": 0.3860289999999935,
          "durationTicks": 13440,
          "midi": 64,
          "name": "E4",
          "ticks": 2887680,
          "time": 82.94108800000001,
          "velocity": 0.5984251968503937
        },
        {
          "duration": 0.4227936666666636,
          "durationTicks": 14720,
          "midi": 62,
          "name": "D4",
          "ticks": 2903040,
          "time": 83.382264,
          "velocity": 0.6299212598425197
        },
        {
          "duration": 0.4227936666666636,
          "durationTicks": 14720,
          "midi": 65,
          "name": "F4",
          "ticks": 2918400,
          "time": 83.82344,
          "velocity": 0.6456692913385826
        },
        {
          "duration": 0.4227936666666636,
          "durationTicks": 14720,
          "midi": 67,
          "name": "G4",
          "ticks": 2933760,
          "time": 84.264616,
          "velocity": 0.6614173228346457
        },
        {
          "duration": 0.2022056666666714,
          "durationTicks": 7040,
          "midi": 67,
          "name": "G4",
          "ticks": 2949120,
          "time": 84.705792,
          "velocity": 0.6771653543307087
        },
        {
          "duration": 0.2022056666666714,
          "durationTicks": 7040,
          "midi": 65,
          "name": "F4",
          "ticks": 2956800,
          "time": 84.92638000000001,
          "velocity": 0.6614173228346457
        },
        {
          "duration": 0.2022056666666714,
          "durationTicks": 7040,
          "midi": 62,
          "name": "D4",
          "ticks": 2964480,
          "time": 85.146968,
          "velocity": 0.6456692913385826
        },
        {
          "duration": 0.09558813333332239,
          "durationTicks": 3328,
          "midi": 64,
          "name": "E4",
          "ticks": 2972160,
          "time": 85.36755600000001,
          "velocity": 0.5984251968503937
        },
        {
          "duration": 0.0955881333333366,
          "durationTicks": 3328,
          "midi": 60,
          "name": "C4",
          "ticks": 2976000,
          "time": 85.47785,
          "velocity": 0.5984251968503937
        },
        {
          "duration": 1.323527999999996,
          "durationTicks": 46080,
          "midi": 62,
          "name": "D4",
          "ticks": 2979840,
          "time": 85.588144,
          "velocity": 0.5905511811023622
        },
        {
          "duration": 0.4227936666666636,
          "durationTicks": 14720,
          "midi": 62,
          "name": "D4",
          "ticks": 3041280,
          "time": 87.35284800000001,
          "velocity": 0.6299212598425197
        },
        {
          "duration": 0.4227936666666636,
          "durationTicks": 14720,
          "midi": 62,
          "name": "D4",
          "ticks": 3056640,
          "time": 87.79402400000001,
          "velocity": 0.6299212598425197
        },
        {
          "duration": 0.4227936666666636,
          "durationTicks": 14720,
          "midi": 69,
          "name": "A4",
          "ticks": 3072000,
          "time": 88.2352,
          "velocity": 0.6692913385826772
        },
        {
          "duration": 0.4227936666666636,
          "durationTicks": 14720,
          "midi": 71,
          "name": "B4",
          "ticks": 3087360,
          "time": 88.676376,
          "velocity": 0.7086614173228346
        },
        {
          "duration": 0.4227936666666636,
          "durationTicks": 14720,
          "midi": 74,
          "name": "D5",
          "ticks": 3102720,
          "time": 89.117552,
          "velocity": 0.7874015748031497
        },
        {
          "duration": 0.42279366666667784,
          "durationTicks": 14720,
          "midi": 71,
          "name": "B4",
          "ticks": 3118080,
          "time": 89.558728,
          "velocity": 0.7480314960629921
        },
        {
          "duration": 0.2022056666666714,
          "durationTicks": 7040,
          "midi": 72,
          "name": "C5",
          "ticks": 3133440,
          "time": 89.999904,
          "velocity": 0.7874015748031497
        },
        {
          "duration": 0.2022056666666714,
          "durationTicks": 7040,
          "midi": 69,
          "name": "A4",
          "ticks": 3141120,
          "time": 90.22049200000001,
          "velocity": 0.7480314960629921
        },
        {
          "duration": 0.3676466666666727,
          "durationTicks": 12800,
          "midi": 67,
          "name": "G4",
          "ticks": 3148800,
          "time": 90.44108,
          "velocity": 0.7244094488188977
        },
        {
          "duration": 0.42279366666667784,
          "durationTicks": 14720,
          "midi": 71,
          "name": "B4",
          "ticks": 3164160,
          "time": 90.882256,
          "velocity": 0.7480314960629921
        },
        {
          "duration": 0.42279366666667784,
          "durationTicks": 14720,
          "midi": 72,
          "name": "C5",
          "ticks": 3179520,
          "time": 91.323432,
          "velocity": 0.7716535433070866
        },
        {
          "duration": 0.4227936666666636,
          "durationTicks": 14720,
          "midi": 69,
          "name": "A4",
          "ticks": 3194880,
          "time": 91.76460800000001,
          "velocity": 0.7480314960629921
        },
        {
          "duration": 0.2022056666666714,
          "durationTicks": 7040,
          "midi": 67,
          "name": "G4",
          "ticks": 3210240,
          "time": 92.20578400000001,
          "velocity": 0.7480314960629921
        },
        {
          "duration": 0.2022056666666714,
          "durationTicks": 7040,
          "midi": 65,
          "name": "F4",
          "ticks": 3217920,
          "time": 92.426372,
          "velocity": 0.7086614173228346
        },
        {
          "duration": 0.2022056666666714,
          "durationTicks": 7040,
          "midi": 65,
          "name": "F4",
          "ticks": 3225600,
          "time": 92.64696,
          "velocity": 0.7244094488188977
        },
        {
          "duration": 0.2022056666666714,
          "durationTicks": 7040,
          "midi": 64,
          "name": "E4",
          "ticks": 3233280,
          "time": 92.867548,
          "velocity": 0.6850393700787402
        },
        {
          "duration": 1.323527999999996,
          "durationTicks": 46080,
          "midi": 62,
          "name": "D4",
          "ticks": 3240960,
          "time": 93.088136,
          "velocity": 0.6299212598425197
        },
        {
          "duration": 0.42279366666667784,
          "durationTicks": 14720,
          "midi": 62,
          "name": "D4",
          "ticks": 3302400,
          "time": 94.85284,
          "velocity": 0.6299212598425197
        },
        {
          "duration": 0.42279366666667784,
          "durationTicks": 14720,
          "midi": 62,
          "name": "D4",
          "ticks": 3317760,
          "time": 95.294016,
          "velocity": 0.6299212598425197
        },
        {
          "duration": 0.42279366666667784,
          "durationTicks": 14720,
          "midi": 69,
          "name": "A4",
          "ticks": 3333120,
          "time": 95.735192,
          "velocity": 0.6692913385826772
        },
        {
          "duration": 0.42279366666667784,
          "durationTicks": 14720,
          "midi": 71,
          "name": "B4",
          "ticks": 3348480,
          "time": 96.176368,
          "velocity": 0.7086614173228346
        },
        {
          "duration": 0.4227936666666636,
          "durationTicks": 14720,
          "midi": 74,
          "name": "D5",
          "ticks": 3363840,
          "time": 96.61754400000001,
          "velocity": 0.7874015748031497
        },
        {
          "duration": 0.4227936666666636,
          "durationTicks": 14720,
          "midi": 71,
          "name": "B4",
          "ticks": 3379200,
          "time": 97.05872000000001,
          "velocity": 0.7480314960629921
        },
        {
          "duration": 0.2022056666666714,
          "durationTicks": 7040,
          "midi": 72,
          "name": "C5",
          "ticks": 3394560,
          "time": 97.499896,
          "velocity": 0.7874015748031497
        },
        {
          "duration": 0.2022056666666714,
          "durationTicks": 7040,
          "midi": 69,
          "name": "A4",
          "ticks": 3402240,
          "time": 97.720484,
          "velocity": 0.7480314960629921
        },
        {
          "duration": 0.3860289999999935,
          "durationTicks": 13440,
          "midi": 67,
          "name": "G4",
          "ticks": 3409920,
          "time": 97.941072,
          "velocity": 0.7244094488188977
        },
        {
          "duration": 0.4227936666666636,
          "durationTicks": 14720,
          "midi": 71,
          "name": "B4",
          "ticks": 3425280,
          "time": 98.382248,
          "velocity": 0.7480314960629921
        },
        {
          "duration": 0.2022056666666714,
          "durationTicks": 7040,
          "midi": 72,
          "name": "C5",
          "ticks": 3440640,
          "time": 98.823424,
          "velocity": 0.7716535433070866
        },
        {
          "duration": 0.2022056666666714,
          "durationTicks": 7040,
          "midi": 71,
          "name": "B4",
          "ticks": 3448320,
          "time": 99.04401200000001,
          "velocity": 0.7716535433070866
        },
        {
          "duration": 0.42279366666667784,
          "durationTicks": 14720,
          "midi": 69,
          "name": "A4",
          "ticks": 3456000,
          "time": 99.2646,
          "velocity": 0.7480314960629921
        },
        {
          "duration": 0.2022056666666714,
          "durationTicks": 7040,
          "midi": 67,
          "name": "G4",
          "ticks": 3471360,
          "time": 99.705776,
          "velocity": 0.7480314960629921
        },
        {
          "duration": 0.2022056666666714,
          "durationTicks": 7040,
          "midi": 65,
          "name": "F4",
          "ticks": 3479040,
          "time": 99.926364,
          "velocity": 0.7086614173228346
        },
        {
          "duration": 0.2022056666666714,
          "durationTicks": 7040,
          "midi": 65,
          "name": "F4",
          "ticks": 3486720,
          "time": 100.146952,
          "velocity": 0.7244094488188977
        },
        {
          "duration": 0.2022056666666714,
          "durationTicks": 7040,
          "midi": 64,
          "name": "E4",
          "ticks": 3494400,
          "time": 100.36754,
          "velocity": 0.6850393700787402
        },
        {
          "duration": 1.3235280000000103,
          "durationTicks": 46080,
          "midi": 62,
          "name": "D4",
          "ticks": 3502080,
          "time": 100.588128,
          "velocity": 0.6299212598425197
        },
        {
          "duration": 0.4227936666666636,
          "durationTicks": 14720,
          "midi": 69,
          "name": "A4",
          "ticks": 3563520,
          "time": 102.352832,
          "velocity": 0.6299212598425197
        },
        {
          "duration": 0.2022056666666714,
          "durationTicks": 7040,
          "midi": 69,
          "name": "A4",
          "ticks": 3578880,
          "time": 102.794008,
          "velocity": 0.6299212598425197
        },
        {
          "duration": 0.2022056666666714,
          "durationTicks": 7040,
          "midi": 67,
          "name": "G4",
          "ticks": 3586560,
          "time": 103.014596,
          "velocity": 0.5905511811023622
        },
        {
          "duration": 0.4227936666666636,
          "durationTicks": 14720,
          "midi": 69,
          "name": "A4",
          "ticks": 3594240,
          "time": 103.235184,
          "velocity": 0.6299212598425197
        },
        {
          "duration": 0.42279366666667784,
          "durationTicks": 14720,
          "midi": 65,
          "name": "F4",
          "ticks": 3609600,
          "time": 103.67636,
          "velocity": 0.6141732283464567
        },
        {
          "duration": 0.42279366666667784,
          "durationTicks": 14720,
          "midi": 62,
          "name": "D4",
          "ticks": 3624960,
          "time": 104.117536,
          "velocity": 0.6299212598425197
        },
        {
          "duration": 0.42279366666667784,
          "durationTicks": 14720,
          "midi": 65,
          "name": "F4",
          "ticks": 3640320,
          "time": 104.558712,
          "velocity": 0.6141732283464567
        },
        {
          "duration": 0.8639696666666765,
          "durationTicks": 30080,
          "midi": 67,
          "name": "G4",
          "ticks": 3655680,
          "time": 104.999888,
          "velocity": 0.5984251968503937
        },
        {
          "duration": 0.2022056666666714,
          "durationTicks": 7040,
          "midi": 70,
          "name": "A#4",
          "ticks": 3686400,
          "time": 105.88224,
          "velocity": 0.6692913385826772
        },
        {
          "duration": 0.2022056666666714,
          "durationTicks": 7040,
          "midi": 69,
          "name": "A4",
          "ticks": 3694080,
          "time": 106.102828,
          "velocity": 0.6299212598425197
        },
        {
          "duration": 0.2022056666666714,
          "durationTicks": 7040,
          "midi": 65,
          "name": "F4",
          "ticks": 3701760,
          "time": 106.32341600000001,
          "velocity": 0.6535433070866141
        },
        {
          "duration": 0.2022056666666714,
          "durationTicks": 7040,
          "midi": 67,
          "name": "G4",
          "ticks": 3709440,
          "time": 106.544004,
          "velocity": 0.6299212598425197
        },
        {
          "duration": 0.3860289999999935,
          "durationTicks": 13440,
          "midi": 64,
          "name": "E4",
          "ticks": 3717120,
          "time": 106.76459200000001,
          "velocity": 0.5905511811023622
        },
        {
          "duration": 0.4227936666666636,
          "durationTicks": 14720,
          "midi": 62,
          "name": "D4",
          "ticks": 3732480,
          "time": 107.205768,
          "velocity": 0.6299212598425197
        },
        {
          "duration": 0.4227936666666636,
          "durationTicks": 14720,
          "midi": 65,
          "name": "F4",
          "ticks": 3747840,
          "time": 107.646944,
          "velocity": 0.6456692913385826
        },
        {
          "duration": 0.4227936666666636,
          "durationTicks": 14720,
          "midi": 67,
          "name": "G4",
          "ticks": 3763200,
          "time": 108.08812,
          "velocity": 0.6614173228346457
        },
        {
          "duration": 0.2022056666666714,
          "durationTicks": 7040,
          "midi": 67,
          "name": "G4",
          "ticks": 3778560,
          "time": 108.529296,
          "velocity": 0.6692913385826772
        },
        {
          "duration": 0.2022056666666714,
          "durationTicks": 7040,
          "midi": 65,
          "name": "F4",
          "ticks": 3786240,
          "time": 108.74988400000001,
          "velocity": 0.6299212598425197
        },
        {
          "duration": 0.42279366666667784,
          "durationTicks": 14720,
          "midi": 62,
          "name": "D4",
          "ticks": 3793920,
          "time": 108.970472,
          "velocity": 0.6456692913385826
        },
        {
          "duration": 1.3235280000000103,
          "durationTicks": 46080,
          "midi": 60,
          "name": "C4",
          "ticks": 3809280,
          "time": 109.411648,
          "velocity": 0.6062992125984252
        },
        {
          "duration": 0.4227936666666636,
          "durationTicks": 14720,
          "midi": 69,
          "name": "A4",
          "ticks": 3870720,
          "time": 111.17635200000001,
          "velocity": 0.6299212598425197
        },
        {
          "duration": 0.2022056666666714,
          "durationTicks": 7040,
          "midi": 69,
          "name": "A4",
          "ticks": 3886080,
          "time": 111.61752800000001,
          "velocity": 0.6299212598425197
        },
        {
          "duration": 0.2022056666666714,
          "durationTicks": 7040,
          "midi": 67,
          "name": "G4",
          "ticks": 3893760,
          "time": 111.838116,
          "velocity": 0.5905511811023622
        },
        {
          "duration": 0.4227936666666636,
          "durationTicks": 14720,
          "midi": 69,
          "name": "A4",
          "ticks": 3901440,
          "time": 112.058704,
          "velocity": 0.6299212598425197
        },
        {
          "duration": 0.4227936666666636,
          "durationTicks": 14720,
          "midi": 65,
          "name": "F4",
          "ticks": 3916800,
          "time": 112.49988,
          "velocity": 0.6141732283464567
        },
        {
          "duration": 0.4227936666666636,
          "durationTicks": 14720,
          "midi": 62,
          "name": "D4",
          "ticks": 3932160,
          "time": 112.941056,
          "velocity": 0.6299212598425197
        },
        {
          "duration": 0.4227936666666636,
          "durationTicks": 14720,
          "midi": 65,
          "name": "F4",
          "ticks": 3947520,
          "time": 113.382232,
          "velocity": 0.6141732283464567
        },
        {
          "duration": 0.8639696666666623,
          "durationTicks": 30080,
          "midi": 67,
          "name": "G4",
          "ticks": 3962880,
          "time": 113.823408,
          "velocity": 0.5984251968503937
        },
        {
          "duration": 0.20220566666665718,
          "durationTicks": 7040,
          "midi": 70,
          "name": "A#4",
          "ticks": 3993600,
          "time": 114.70576,
          "velocity": 0.6692913385826772
        },
        {
          "duration": 0.20220566666665718,
          "durationTicks": 7040,
          "midi": 69,
          "name": "A4",
          "ticks": 4001280,
          "time": 114.926348,
          "velocity": 0.6299212598425197
        },
        {
          "duration": 0.2022056666666714,
          "durationTicks": 7040,
          "midi": 65,
          "name": "F4",
          "ticks": 4008960,
          "time": 115.146936,
          "velocity": 0.6535433070866141
        },
        {
          "duration": 0.20220566666665718,
          "durationTicks": 7040,
          "midi": 67,
          "name": "G4",
          "ticks": 4016640,
          "time": 115.367524,
          "velocity": 0.6299212598425197
        },
        {
          "duration": 0.3860289999999935,
          "durationTicks": 13440,
          "midi": 64,
          "name": "E4",
          "ticks": 4024320,
          "time": 115.58811200000001,
          "velocity": 0.5984251968503937
        },
        {
          "duration": 0.4227936666666494,
          "durationTicks": 14720,
          "midi": 62,
          "name": "D4",
          "ticks": 4039680,
          "time": 116.02928800000001,
          "velocity": 0.6299212598425197
        },
        {
          "duration": 0.4227936666666494,
          "durationTicks": 14720,
          "midi": 65,
          "name": "F4",
          "ticks": 4055040,
          "time": 116.470464,
          "velocity": 0.6456692913385826
        },
        {
          "duration": 0.4227936666666494,
          "durationTicks": 14720,
          "midi": 67,
          "name": "G4",
          "ticks": 4070400,
          "time": 116.91164,
          "velocity": 0.6614173228346457
        },
        {
          "duration": 0.20220566666665718,
          "durationTicks": 7040,
          "midi": 67,
          "name": "G4",
          "ticks": 4085760,
          "time": 117.352816,
          "velocity": 0.6614173228346457
        },
        {
          "duration": 0.2022056666666714,
          "durationTicks": 7040,
          "midi": 65,
          "name": "F4",
          "ticks": 4093440,
          "time": 117.573404,
          "velocity": 0.6456692913385826
        },
        {
          "duration": 0.20220566666665718,
          "durationTicks": 7040,
          "midi": 62,
          "name": "D4",
          "ticks": 4101120,
          "time": 117.793992,
          "velocity": 0.6456692913385826
        },
        {
          "duration": 0.09558813333332239,
          "durationTicks": 3328,
          "midi": 64,
          "name": "E4",
          "ticks": 4108800,
          "time": 118.01458000000001,
          "velocity": 0.6141732283464567
        },
        {
          "duration": 0.09558813333332239,
          "durationTicks": 3328,
          "midi": 60,
          "name": "C4",
          "ticks": 4112640,
          "time": 118.124874,
          "velocity": 0.6141732283464567
        },
        {
          "duration": 0.8639696666666623,
          "durationTicks": 30080,
          "midi": 62,
          "name": "D4",
          "ticks": 4116480,
          "time": 118.235168,
          "velocity": 0.6299212598425197
        },
        {
          "duration": 0.7720580000000012,
          "durationTicks": 26880,
          "midi": 50,
          "name": "D3",
          "ticks": 4176000,
          "time": 119.944725,
          "velocity": 0.6299212598425197
        },
        {
          "duration": 0.41176426666666543,
          "durationTicks": 14336,
          "midi": 50,
          "name": "D3",
          "ticks": 4206720,
          "time": 120.827077,
          "velocity": 0.6299212598425197
        },
        {
          "duration": 0.41176426666666543,
          "durationTicks": 14336,
          "midi": 53,
          "name": "F3",
          "ticks": 4222080,
          "time": 121.268253,
          "velocity": 0.6456692913385826
        },
        {
          "duration": 0.41176426666666543,
          "durationTicks": 14336,
          "midi": 57,
          "name": "A3",
          "ticks": 4237440,
          "time": 121.709429,
          "velocity": 0.6614173228346457
        },
        {
          "duration": 0.41176426666667965,
          "durationTicks": 14336,
          "midi": 50,
          "name": "D3",
          "ticks": 4252800,
          "time": 122.150605,
          "velocity": 0.6456692913385826
        },
        {
          "duration": 0.8455873333333415,
          "durationTicks": 29440,
          "midi": 48,
          "name": "C3",
          "ticks": 4268160,
          "time": 122.591781,
          "velocity": 0.6299212598425197
        },
        {
          "duration": 0.8455873333333415,
          "durationTicks": 29440,
          "midi": 53,
          "name": "F3",
          "ticks": 4298880,
          "time": 123.47413300000001,
          "velocity": 0.6456692913385826
        },
        {
          "duration": 0.3933819333333304,
          "durationTicks": 13696,
          "midi": 55,
          "name": "G3",
          "ticks": 4329600,
          "time": 124.356485,
          "velocity": 0.6614173228346457
        },
        {
          "duration": 0.41176426666666543,
          "durationTicks": 14336,
          "midi": 57,
          "name": "A3",
          "ticks": 4344960,
          "time": 124.797661,
          "velocity": 0.6456692913385826
        },
        {
          "duration": 0.4227936666666636,
          "durationTicks": 14720,
          "midi": 50,
          "name": "D3",
          "ticks": 4360320,
          "time": 125.238837,
          "velocity": 0.6456692913385826
        },
        {
          "duration": 0.41176426666666543,
          "durationTicks": 14336,
          "midi": 48,
          "name": "C3",
          "ticks": 4375680,
          "time": 125.680013,
          "velocity": 0.6299212598425197
        },
        {
          "duration": 0.4227936666666636,
          "durationTicks": 14720,
          "midi": 55,
          "name": "G3",
          "ticks": 4391040,
          "time": 126.121189,
          "velocity": 0.6614173228346457
        },
        {
          "duration": 0.41176426666666543,
          "durationTicks": 14336,
          "midi": 57,
          "name": "A3",
          "ticks": 4406400,
          "time": 126.562365,
          "velocity": 0.6456692913385826
        },
        {
          "duration": 1.323527999999996,
          "durationTicks": 46080,
          "midi": 60,
          "name": "C4",
          "ticks": 4421760,
          "time": 127.003541,
          "velocity": 0.6299212598425197
        },
        {
          "duration": 0.772057999999987,
          "durationTicks": 26880,
          "midi": 50,
          "name": "D3",
          "ticks": 4483200,
          "time": 128.768245,
          "velocity": 0.6299212598425197
        },
        {
          "duration": 0.41176426666666543,
          "durationTicks": 14336,
          "midi": 50,
          "name": "D3",
          "ticks": 4513920,
          "time": 129.650597,
          "velocity": 0.6299212598425197
        },
        {
          "duration": 0.41176426666666543,
          "durationTicks": 14336,
          "midi": 53,
          "name": "F3",
          "ticks": 4529280,
          "time": 130.09177300000002,
          "velocity": 0.6456692913385826
        },
        {
          "duration": 0.41176426666666543,
          "durationTicks": 14336,
          "midi": 57,
          "name": "A3",
          "ticks": 4544640,
          "time": 130.532949,
          "velocity": 0.6614173228346457
        },
        {
          "duration": 0.41176426666666543,
          "durationTicks": 14336,
          "midi": 50,
          "name": "D3",
          "ticks": 4560000,
          "time": 130.97412500000002,
          "velocity": 0.6456692913385826
        },
        {
          "duration": 0.8455873333333557,
          "durationTicks": 29440,
          "midi": 48,
          "name": "C3",
          "ticks": 4575360,
          "time": 131.415301,
          "velocity": 0.6299212598425197
        },
        {
          "duration": 0.8455873333333557,
          "durationTicks": 29440,
          "midi": 53,
          "name": "F3",
          "ticks": 4606080,
          "time": 132.297653,
          "velocity": 0.6456692913385826
        },
        {
          "duration": 0.3933819333333304,
          "durationTicks": 13696,
          "midi": 55,
          "name": "G3",
          "ticks": 4636800,
          "time": 133.180005,
          "velocity": 0.6614173228346457
        },
        {
          "duration": 0.41176426666666543,
          "durationTicks": 14336,
          "midi": 57,
          "name": "A3",
          "ticks": 4652160,
          "time": 133.621181,
          "velocity": 0.6456692913385826
        },
        {
          "duration": 0.42279366666667784,
          "durationTicks": 14720,
          "midi": 50,
          "name": "D3",
          "ticks": 4667520,
          "time": 134.062357,
          "velocity": 0.6456692913385826
        },
        {
          "duration": 0.41176426666666543,
          "durationTicks": 14336,
          "midi": 48,
          "name": "C3",
          "ticks": 4682880,
          "time": 134.503533,
          "velocity": 0.6299212598425197
        },
        {
          "duration": 0.4227936666666494,
          "durationTicks": 14720,
          "midi": 53,
          "name": "F3",
          "ticks": 4698240,
          "time": 134.94470900000002,
          "velocity": 0.6614173228346457
        },
        {
          "duration": 0.41176426666666543,
          "durationTicks": 14336,
          "midi": 55,
          "name": "G3",
          "ticks": 4713600,
          "time": 135.385885,
          "velocity": 0.6456692913385826
        }
      ]
    },
    {
      "channel": 0,
      "controlChanges": {
        "1": [
          {
            "number": 1,
            "ticks": 0,
            "time": 0,
            "value": 0
          },
          {
            "number": 1,
            "ticks": 537600,
            "time": 15.44116,
            "value": 0
          },
          {
            "number": 1,
            "ticks": 2380800,
            "time": 68.38228000000001,
            "value": 0
          },
          {
            "number": 1,
            "ticks": 2995200,
            "time": 86.02932,
            "value": 0
          },
          {
            "number": 1,
            "ticks": 4147200,
            "time": 119.11752,
            "value": 0
          }
        ],
        "11": [
          {
            "number": 11,
            "ticks": 0,
            "time": 0,
            "value": 0
          },
          {
            "number": 11,
            "ticks": 537600,
            "time": 15.44116,
            "value": 0.8661417322834646
          },
          {
            "number": 11,
            "ticks": 612480,
            "time": 17.591893,
            "value": 0.8661417322834646
          },
          {
            "number": 11,
            "ticks": 612480,
            "time": 17.591893,
            "value": 0.15748031496062992
          },
          {
            "number": 11,
            "ticks": 612992,
            "time": 17.606598866666666,
            "value": 0.16535433070866143
          },
          {
            "number": 11,
            "ticks": 613504,
            "time": 17.621304733333336,
            "value": 0.1732283464566929
          },
          {
            "number": 11,
            "ticks": 614016,
            "time": 17.636010600000002,
            "value": 0.18110236220472442
          },
          {
            "number": 11,
            "ticks": 614528,
            "time": 17.650716466666665,
            "value": 0.1889763779527559
          },
          {
            "number": 11,
            "ticks": 615040,
            "time": 17.665422333333332,
            "value": 0.1968503937007874
          },
          {
            "number": 11,
            "ticks": 615552,
            "time": 17.680128200000002,
            "value": 0.2047244094488189
          },
          {
            "number": 11,
            "ticks": 616064,
            "time": 17.69483406666667,
            "value": 0.2125984251968504
          },
          {
            "number": 11,
            "ticks": 616576,
            "time": 17.709539933333332,
            "value": 0.2204724409448819
          },
          {
            "number": 11,
            "ticks": 617088,
            "time": 17.7242458,
            "value": 0.2283464566929134
          },
          {
            "number": 11,
            "ticks": 617600,
            "time": 17.73895166666667,
            "value": 0.23622047244094488
          },
          {
            "number": 11,
            "ticks": 618112,
            "time": 17.753657533333335,
            "value": 0.2440944881889764
          },
          {
            "number": 11,
            "ticks": 618624,
            "time": 17.7683634,
            "value": 0.25196850393700787
          },
          {
            "number": 11,
            "ticks": 619136,
            "time": 17.783069266666665,
            "value": 0.25984251968503935
          },
          {
            "number": 11,
            "ticks": 619648,
            "time": 17.797775133333335,
            "value": 0.2677165354330709
          },
          {
            "number": 11,
            "ticks": 620160,
            "time": 17.812481000000002,
            "value": 0.2755905511811024
          },
          {
            "number": 11,
            "ticks": 620672,
            "time": 17.827186866666665,
            "value": 0.28346456692913385
          },
          {
            "number": 11,
            "ticks": 621184,
            "time": 17.841892733333335,
            "value": 0.29133858267716534
          },
          {
            "number": 11,
            "ticks": 621696,
            "time": 17.8565986,
            "value": 0.2992125984251969
          },
          {
            "number": 11,
            "ticks": 622208,
            "time": 17.87130446666667,
            "value": 0.30708661417322836
          },
          {
            "number": 11,
            "ticks": 622720,
            "time": 17.88601033333333,
            "value": 0.31496062992125984
          },
          {
            "number": 11,
            "ticks": 623232,
            "time": 17.9007162,
            "value": 0.3228346456692913
          },
          {
            "number": 11,
            "ticks": 623744,
            "time": 17.915422066666668,
            "value": 0.33070866141732286
          },
          {
            "number": 11,
            "ticks": 624256,
            "time": 17.930127933333335,
            "value": 0.33858267716535434
          },
          {
            "number": 11,
            "ticks": 624768,
            "time": 17.944833799999998,
            "value": 0.3464566929133858
          },
          {
            "number": 11,
            "ticks": 625280,
            "time": 17.959539666666668,
            "value": 0.3543307086614173
          },
          {
            "number": 11,
            "ticks": 625792,
            "time": 17.974245533333335,
            "value": 0.36220472440944884
          },
          {
            "number": 11,
            "ticks": 626304,
            "time": 17.9889514,
            "value": 0.3700787401574803
          },
          {
            "number": 11,
            "ticks": 626816,
            "time": 18.003657266666664,
            "value": 0.3779527559055118
          },
          {
            "number": 11,
            "ticks": 627328,
            "time": 18.018363133333335,
            "value": 0.3858267716535433
          },
          {
            "number": 11,
            "ticks": 627840,
            "time": 18.033069,
            "value": 0.3937007874015748
          },
          {
            "number": 11,
            "ticks": 628352,
            "time": 18.047774866666668,
            "value": 0.4015748031496063
          },
          {
            "number": 11,
            "ticks": 628864,
            "time": 18.062480733333334,
            "value": 0.4094488188976378
          },
          {
            "number": 11,
            "ticks": 629376,
            "time": 18.0771866,
            "value": 0.41732283464566927
          },
          {
            "number": 11,
            "ticks": 629888,
            "time": 18.091892466666668,
            "value": 0.4251968503937008
          },
          {
            "number": 11,
            "ticks": 630400,
            "time": 18.106598333333334,
            "value": 0.4330708661417323
          },
          {
            "number": 11,
            "ticks": 630912,
            "time": 18.1213042,
            "value": 0.4409448818897638
          },
          {
            "number": 11,
            "ticks": 631424,
            "time": 18.136010066666667,
            "value": 0.44881889763779526
          },
          {
            "number": 11,
            "ticks": 631936,
            "time": 18.150715933333334,
            "value": 0.4566929133858268
          },
          {
            "number": 11,
            "ticks": 632448,
            "time": 18.1654218,
            "value": 0.4645669291338583
          },
          {
            "number": 11,
            "ticks": 632960,
            "time": 18.180127666666667,
            "value": 0.47244094488188976
          },
          {
            "number": 11,
            "ticks": 633472,
            "time": 18.194833533333334,
            "value": 0.48031496062992124
          },
          {
            "number": 11,
            "ticks": 633984,
            "time": 18.2095394,
            "value": 0.4881889763779528
          },
          {
            "number": 11,
            "ticks": 634496,
            "time": 18.224245266666667,
            "value": 0.49606299212598426
          },
          {
            "number": 11,
            "ticks": 635008,
            "time": 18.238951133333334,
            "value": 0.5039370078740157
          },
          {
            "number": 11,
            "ticks": 635520,
            "time": 18.253657,
            "value": 0.5118110236220472
          },
          {
            "number": 11,
            "ticks": 636032,
            "time": 18.268362866666667,
            "value": 0.5196850393700787
          },
          {
            "number": 11,
            "ticks": 636544,
            "time": 18.283068733333334,
            "value": 0.5275590551181102
          },
          {
            "number": 11,
            "ticks": 637056,
            "time": 18.2977746,
            "value": 0.5354330708661418
          },
          {
            "number": 11,
            "ticks": 637568,
            "time": 18.312480466666667,
            "value": 0.5433070866141733
          },
          {
            "number": 11,
            "ticks": 638080,
            "time": 18.327186333333334,
            "value": 0.5511811023622047
          },
          {
            "number": 11,
            "ticks": 638592,
            "time": 18.3418922,
            "value": 0.5590551181102362
          },
          {
            "number": 11,
            "ticks": 639104,
            "time": 18.356598066666667,
            "value": 0.5669291338582677
          },
          {
            "number": 11,
            "ticks": 639616,
            "time": 18.371303933333333,
            "value": 0.5748031496062992
          },
          {
            "number": 11,
            "ticks": 640128,
            "time": 18.3860098,
            "value": 0.5826771653543307
          },
          {
            "number": 11,
            "ticks": 640640,
            "time": 18.400715666666667,
            "value": 0.5905511811023622
          },
          {
            "number": 11,
            "ticks": 641152,
            "time": 18.415421533333333,
            "value": 0.5984251968503937
          },
          {
            "number": 11,
            "ticks": 641664,
            "time": 18.4301274,
            "value": 0.6062992125984252
          },
          {
            "number": 11,
            "ticks": 642176,
            "time": 18.444833266666667,
            "value": 0.6141732283464567
          },
          {
            "number": 11,
            "ticks": 642688,
            "time": 18.459539133333333,
            "value": 0.6220472440944882
          },
          {
            "number": 11,
            "ticks": 643200,
            "time": 18.474245,
            "value": 0.6299212598425197
          },
          {
            "number": 11,
            "ticks": 643712,
            "time": 18.488950866666666,
            "value": 0.6377952755905512
          },
          {
            "number": 11,
            "ticks": 644224,
            "time": 18.503656733333337,
            "value": 0.6456692913385826
          },
          {
            "number": 11,
            "ticks": 644736,
            "time": 18.5183626,
            "value": 0.6535433070866141
          },
          {
            "number": 11,
            "ticks": 645248,
            "time": 18.533068466666666,
            "value": 0.6614173228346457
          },
          {
            "number": 11,
            "ticks": 645760,
            "time": 18.547774333333333,
            "value": 0.6692913385826772
          },
          {
            "number": 11,
            "ticks": 646272,
            "time": 18.562480200000003,
            "value": 0.6771653543307087
          },
          {
            "number": 11,
            "ticks": 646784,
            "time": 18.577186066666666,
            "value": 0.6850393700787402
          },
          {
            "number": 11,
            "ticks": 647296,
            "time": 18.591891933333333,
            "value": 0.6929133858267716
          },
          {
            "number": 11,
            "ticks": 647808,
            "time": 18.6065978,
            "value": 0.7007874015748031
          },
          {
            "number": 11,
            "ticks": 648320,
            "time": 18.62130366666667,
            "value": 0.7086614173228346
          },
          {
            "number": 11,
            "ticks": 648832,
            "time": 18.636009533333333,
            "value": 0.7165354330708661
          },
          {
            "number": 11,
            "ticks": 649344,
            "time": 18.6507154,
            "value": 0.7244094488188977
          },
          {
            "number": 11,
            "ticks": 649856,
            "time": 18.665421266666666,
            "value": 0.7322834645669292
          },
          {
            "number": 11,
            "ticks": 650368,
            "time": 18.680127133333336,
            "value": 0.7401574803149606
          },
          {
            "number": 11,
            "ticks": 650880,
            "time": 18.694833,
            "value": 0.7480314960629921
          },
          {
            "number": 11,
            "ticks": 651392,
            "time": 18.709538866666666,
            "value": 0.7559055118110236
          },
          {
            "number": 11,
            "ticks": 651904,
            "time": 18.724244733333336,
            "value": 0.7637795275590551
          },
          {
            "number": 11,
            "ticks": 652416,
            "time": 18.738950600000003,
            "value": 0.7716535433070866
          },
          {
            "number": 11,
            "ticks": 652928,
            "time": 18.753656466666666,
            "value": 0.7795275590551181
          },
          {
            "number": 11,
            "ticks": 653440,
            "time": 18.768362333333332,
            "value": 0.7874015748031497
          },
          {
            "number": 11,
            "ticks": 653952,
            "time": 18.783068200000002,
            "value": 0.7952755905511811
          },
          {
            "number": 11,
            "ticks": 654464,
            "time": 18.79777406666667,
            "value": 0.8031496062992126
          },
          {
            "number": 11,
            "ticks": 654976,
            "time": 18.812479933333332,
            "value": 0.8110236220472441
          },
          {
            "number": 11,
            "ticks": 655488,
            "time": 18.8271858,
            "value": 0.8188976377952756
          },
          {
            "number": 11,
            "ticks": 656000,
            "time": 18.84189166666667,
            "value": 0.8267716535433071
          },
          {
            "number": 11,
            "ticks": 656512,
            "time": 18.856597533333336,
            "value": 0.8346456692913385
          },
          {
            "number": 11,
            "ticks": 657024,
            "time": 18.8713034,
            "value": 0.84251968503937
          },
          {
            "number": 11,
            "ticks": 657536,
            "time": 18.886009266666665,
            "value": 0.8503937007874016
          },
          {
            "number": 11,
            "ticks": 658048,
            "time": 18.900715133333335,
            "value": 0.8661417322834646
          },
          {
            "number": 11,
            "ticks": 2380800,
            "time": 68.38228000000001,
            "value": 0.8661417322834646
          },
          {
            "number": 11,
            "ticks": 2995200,
            "time": 86.02932,
            "value": 0
          },
          {
            "number": 11,
            "ticks": 4147200,
            "time": 119.11752,
            "value": 0.8661417322834646
          }
        ],
        "64": [
          {
            "number": 64,
            "ticks": 0,
            "time": 0,
            "value": 0
          },
          {
            "number": 64,
            "ticks": 537600,
            "time": 15.44116,
            "value": 0
          },
          {
            "number": 64,
            "ticks": 2380800,
            "time": 68.38228000000001,
            "value": 0
          },
          {
            "number": 64,
            "ticks": 2995200,
            "time": 86.02932,
            "value": 0
          },
          {
            "number": 64,
            "ticks": 4147200,
            "time": 119.11752,
            "value": 0
          }
        ]
      },
      "pitchBends": [],
      "instrument": {
        "family": "piano",
        "name": "acoustic grand piano",
        "number": 0
      },
      "name": "lute                     Ch3",
      "notes": [
        {
          "duration": 1.761027533333337,
          "durationTicks": 61312,
          "midi": 50,
          "name": "D3",
          "ticks": 612480,
          "time": 17.591893,
          "velocity": 0.6299212598425197
        },
        {
          "duration": 0.7720580000000012,
          "durationTicks": 26880,
          "midi": 50,
          "name": "D3",
          "ticks": 673920,
          "time": 19.356597,
          "velocity": 0.6299212598425197
        },
        {
          "duration": 0.41176426666666543,
          "durationTicks": 14336,
          "midi": 50,
          "name": "D3",
          "ticks": 704640,
          "time": 20.238949,
          "velocity": 0.6299212598425197
        },
        {
          "duration": 0.41176426666666543,
          "durationTicks": 14336,
          "midi": 53,
          "name": "F3",
          "ticks": 720000,
          "time": 20.680125,
          "velocity": 0.6456692913385826
        },
        {
          "duration": 0.41176426666666543,
          "durationTicks": 14336,
          "midi": 57,
          "name": "A3",
          "ticks": 735360,
          "time": 21.121301,
          "velocity": 0.6614173228346457
        },
        {
          "duration": 0.41176426666666543,
          "durationTicks": 14336,
          "midi": 50,
          "name": "D3",
          "ticks": 750720,
          "time": 21.562477,
          "velocity": 0.6456692913385826
        },
        {
          "duration": 0.8455873333333344,
          "durationTicks": 29440,
          "midi": 48,
          "name": "C3",
          "ticks": 766080,
          "time": 22.003653,
          "velocity": 0.6299212598425197
        },
        {
          "duration": 0.8455873333333308,
          "durationTicks": 29440,
          "midi": 53,
          "name": "F3",
          "ticks": 796800,
          "time": 22.886005,
          "velocity": 0.6456692913385826
        },
        {
          "duration": 0.3933819333333304,
          "durationTicks": 13696,
          "midi": 55,
          "name": "G3",
          "ticks": 827520,
          "time": 23.768357,
          "velocity": 0.6614173228346457
        },
        {
          "duration": 0.41176426666666543,
          "durationTicks": 14336,
          "midi": 57,
          "name": "A3",
          "ticks": 842880,
          "time": 24.209533,
          "velocity": 0.6456692913385826
        },
        {
          "duration": 0.42279366666667073,
          "durationTicks": 14720,
          "midi": 50,
          "name": "D3",
          "ticks": 858240,
          "time": 24.650709,
          "velocity": 0.6456692913385826
        },
        {
          "duration": 0.41176426666666543,
          "durationTicks": 14336,
          "midi": 48,
          "name": "C3",
          "ticks": 873600,
          "time": 25.091885,
          "velocity": 0.6299212598425197
        },
        {
          "duration": 0.4227936666666672,
          "durationTicks": 14720,
          "midi": 55,
          "name": "G3",
          "ticks": 888960,
          "time": 25.533061,
          "velocity": 0.6614173228346457
        },
        {
          "duration": 0.41176426666666543,
          "durationTicks": 14336,
          "midi": 57,
          "name": "A3",
          "ticks": 904320,
          "time": 25.974237000000002,
          "velocity": 0.6456692913385826
        },
        {
          "duration": 1.3235279999999996,
          "durationTicks": 46080,
          "midi": 60,
          "name": "C4",
          "ticks": 919680,
          "time": 26.415413,
          "velocity": 0.6299212598425197
        },
        {
          "duration": 0.7720580000000012,
          "durationTicks": 26880,
          "midi": 50,
          "name": "D3",
          "ticks": 981120,
          "time": 28.180117,
          "velocity": 0.6299212598425197
        },
        {
          "duration": 0.411764266666669,
          "durationTicks": 14336,
          "midi": 50,
          "name": "D3",
          "ticks": 1011840,
          "time": 29.062469,
          "velocity": 0.6299212598425197
        },
        {
          "duration": 0.41176426666666543,
          "durationTicks": 14336,
          "midi": 53,
          "name": "F3",
          "ticks": 1027200,
          "time": 29.503645000000002,
          "velocity": 0.6456692913385826
        },
        {
          "duration": 0.411764266666669,
          "durationTicks": 14336,
          "midi": 57,
          "name": "A3",
          "ticks": 1042560,
          "time": 29.944821,
          "velocity": 0.6614173228346457
        },
        {
          "duration": 0.411764266666669,
          "durationTicks": 14336,
          "midi": 50,
          "name": "D3",
          "ticks": 1057920,
          "time": 30.385997,
          "velocity": 0.6456692913385826
        },
        {
          "duration": 0.8455873333333344,
          "durationTicks": 29440,
          "midi": 48,
          "name": "C3",
          "ticks": 1073280,
          "time": 30.827173000000002,
          "velocity": 0.6299212598425197
        },
        {
          "duration": 0.8455873333333344,
          "durationTicks": 29440,
          "midi": 53,
          "name": "F3",
          "ticks": 1104000,
          "time": 31.709525,
          "velocity": 0.6456692913385826
        },
        {
          "duration": 0.3933819333333304,
          "durationTicks": 13696,
          "midi": 55,
          "name": "G3",
          "ticks": 1134720,
          "time": 32.591877000000004,
          "velocity": 0.6614173228346457
        },
        {
          "duration": 0.41176426666666543,
          "durationTicks": 14336,
          "midi": 57,
          "name": "A3",
          "ticks": 1150080,
          "time": 33.033053,
          "velocity": 0.6456692913385826
        },
        {
          "duration": 0.4227936666666636,
          "durationTicks": 14720,
          "midi": 50,
          "name": "D3",
          "ticks": 1165440,
          "time": 33.474229,
          "velocity": 0.6456692913385826
        },
        {
          "duration": 0.41176426666667254,
          "durationTicks": 14336,
          "midi": 48,
          "name": "C3",
          "ticks": 1180800,
          "time": 33.915405,
          "velocity": 0.6299212598425197
        },
        {
          "duration": 0.4227936666666636,
          "durationTicks": 14720,
          "midi": 53,
          "name": "F3",
          "ticks": 1196160,
          "time": 34.356581,
          "velocity": 0.6614173228346457
        },
        {
          "duration": 0.41176426666666543,
          "durationTicks": 14336,
          "midi": 55,
          "name": "G3",
          "ticks": 1211520,
          "time": 34.797757000000004,
          "velocity": 0.6456692913385826
        },
        {
          "duration": 1.323527999999996,
          "durationTicks": 46080,
          "midi": 57,
          "name": "A3",
          "ticks": 1226880,
          "time": 35.238933,
          "velocity": 0.6299212598425197
        },
        {
          "duration": 0.7904403333333363,
          "durationTicks": 27520,
          "midi": 57,
          "name": "A3",
          "ticks": 1288320,
          "time": 37.003637,
          "velocity": 0.6299212598425197
        },
        {
          "duration": 0.7904403333333363,
          "durationTicks": 27520,
          "midi": 50,
          "name": "D3",
          "ticks": 1319040,
          "time": 37.885989,
          "velocity": 0.6299212598425197
        },
        {
          "duration": 0.41176426666667254,
          "durationTicks": 14336,
          "midi": 50,
          "name": "D3",
          "ticks": 1349760,
          "time": 38.768341,
          "velocity": 0.6614173228346457
        },
        {
          "duration": 0.41176426666667254,
          "durationTicks": 14336,
          "midi": 55,
          "name": "G3",
          "ticks": 1365120,
          "time": 39.209517,
          "velocity": 0.6456692913385826
        },
        {
          "duration": 0.41176426666666543,
          "durationTicks": 14336,
          "midi": 53,
          "name": "F3",
          "ticks": 1380480,
          "time": 39.650693000000004,
          "velocity": 0.6299212598425197
        },
        {
          "duration": 0.7904403333333363,
          "durationTicks": 27520,
          "midi": 52,
          "name": "E3",
          "ticks": 1395840,
          "time": 40.091869,
          "velocity": 0.6692913385826772
        },
        {
          "duration": 0.4227936666666636,
          "durationTicks": 14720,
          "midi": 48,
          "name": "C3",
          "ticks": 1426560,
          "time": 40.974221,
          "velocity": 0.6456692913385826
        },
        {
          "duration": 0.41176426666667254,
          "durationTicks": 14336,
          "midi": 50,
          "name": "D3",
          "ticks": 1441920,
          "time": 41.415397,
          "velocity": 0.6299212598425197
        },
        {
          "duration": 0.4227936666666636,
          "durationTicks": 14720,
          "midi": 53,
          "name": "F3",
          "ticks": 1457280,
          "time": 41.856573000000004,
          "velocity": 0.6614173228346457
        },
        {
          "duration": 0.41176426666666543,
          "durationTicks": 14336,
          "midi": 55,
          "name": "G3",
          "ticks": 1472640,
          "time": 42.297749,
          "velocity": 0.6456692913385826
        },
        {
          "duration": 1.323527999999996,
          "durationTicks": 46080,
          "midi": 57,
          "name": "A3",
          "ticks": 1488000,
          "time": 42.738925,
          "velocity": 0.6299212598425197
        },
        {
          "duration": 0.7904403333333363,
          "durationTicks": 27520,
          "midi": 57,
          "name": "A3",
          "ticks": 1549440,
          "time": 44.503629000000004,
          "velocity": 0.6299212598425197
        },
        {
          "duration": 0.7904403333333363,
          "durationTicks": 27520,
          "midi": 50,
          "name": "D3",
          "ticks": 1580160,
          "time": 45.385981,
          "velocity": 0.6299212598425197
        },
        {
          "duration": 0.41176426666667254,
          "durationTicks": 14336,
          "midi": 50,
          "name": "D3",
          "ticks": 1610880,
          "time": 46.268333,
          "velocity": 0.6614173228346457
        },
        {
          "duration": 0.41176426666666543,
          "durationTicks": 14336,
          "midi": 55,
          "name": "G3",
          "ticks": 1626240,
          "time": 46.709509000000004,
          "velocity": 0.6456692913385826
        },
        {
          "duration": 0.41176426666666543,
          "durationTicks": 14336,
          "midi": 53,
          "name": "F3",
          "ticks": 1641600,
          "time": 47.150685,
          "velocity": 0.6299212598425197
        },
        {
          "duration": 0.7904403333333363,
          "durationTicks": 27520,
          "midi": 52,
          "name": "E3",
          "ticks": 1656960,
          "time": 47.591861,
          "velocity": 0.6692913385826772
        },
        {
          "duration": 0.41176426666667254,
          "durationTicks": 14336,
          "midi": 48,
          "name": "C3",
          "ticks": 1687680,
          "time": 48.474213,
          "velocity": 0.6456692913385826
        },
        {
          "duration": 0.41176426666666543,
          "durationTicks": 14336,
          "midi": 50,
          "name": "D3",
          "ticks": 1703040,
          "time": 48.915389000000005,
          "velocity": 0.6299212598425197
        },
        {
          "duration": 0.41176426666666543,
          "durationTicks": 14336,
          "midi": 53,
          "name": "F3",
          "ticks": 1718400,
          "time": 49.356565,
          "velocity": 0.6614173228346457
        },
        {
          "duration": 0.41176426666666543,
          "durationTicks": 14336,
          "midi": 55,
          "name": "G3",
          "ticks": 1733760,
          "time": 49.797741,
          "velocity": 0.6456692913385826
        },
        {
          "duration": 1.3235280000000031,
          "durationTicks": 46080,
          "midi": 57,
          "name": "A3",
          "ticks": 1749120,
          "time": 50.238917,
          "velocity": 0.6299212598425197
        },
        {
          "duration": 0.7720580000000012,
          "durationTicks": 26880,
          "midi": 50,
          "name": "D3",
          "ticks": 1810560,
          "time": 52.003621,
          "velocity": 0.6299212598425197
        },
        {
          "duration": 0.41176426666667254,
          "durationTicks": 14336,
          "midi": 50,
          "name": "D3",
          "ticks": 1841280,
          "time": 52.885973,
          "velocity": 0.6299212598425197
        },
        {
          "duration": 0.41176426666667254,
          "durationTicks": 14336,
          "midi": 53,
          "name": "F3",
          "ticks": 1856640,
          "time": 53.327149,
          "velocity": 0.6456692913385826
        },
        {
          "duration": 0.41176426666666543,
          "durationTicks": 14336,
          "midi": 57,
          "name": "A3",
          "ticks": 1872000,
          "time": 53.768325000000004,
          "velocity": 0.6614173228346457
        },
        {
          "duration": 0.41176426666666543,
          "durationTicks": 14336,
          "midi": 50,
          "name": "D3",
          "ticks": 1887360,
          "time": 54.209501,
          "velocity": 0.6456692913385826
        },
        {
          "duration": 0.8455873333333344,
          "durationTicks": 29440,
          "midi": 48,
          "name": "C3",
          "ticks": 1902720,
          "time": 54.650677,
          "velocity": 0.6299212598425197
        },
        {
          "duration": 0.8455873333333415,
          "durationTicks": 29440,
          "midi": 53,
          "name": "F3",
          "ticks": 1933440,
          "time": 55.533029,
          "velocity": 0.6456692913385826
        },
        {
          "duration": 0.3933819333333375,
          "durationTicks": 13696,
          "midi": 55,
          "name": "G3",
          "ticks": 1964160,
          "time": 56.415381000000004,
          "velocity": 0.6614173228346457
        },
        {
          "duration": 0.41176426666666543,
          "durationTicks": 14336,
          "midi": 57,
          "name": "A3",
          "ticks": 1979520,
          "time": 56.856557,
          "velocity": 0.6456692913385826
        },
        {
          "duration": 0.42279366666667073,
          "durationTicks": 14720,
          "midi": 50,
          "name": "D3",
          "ticks": 1994880,
          "time": 57.297733,
          "velocity": 0.6456692913385826
        },
        {
          "duration": 0.41176426666667254,
          "durationTicks": 14336,
          "midi": 48,
          "name": "C3",
          "ticks": 2010240,
          "time": 57.738909,
          "velocity": 0.6299212598425197
        },
        {
          "duration": 0.42279366666667073,
          "durationTicks": 14720,
          "midi": 55,
          "name": "G3",
          "ticks": 2025600,
          "time": 58.180085,
          "velocity": 0.6614173228346457
        },
        {
          "duration": 0.41176426666666543,
          "durationTicks": 14336,
          "midi": 57,
          "name": "A3",
          "ticks": 2040960,
          "time": 58.621261000000004,
          "velocity": 0.6456692913385826
        },
        {
          "duration": 1.323527999999996,
          "durationTicks": 46080,
          "midi": 60,
          "name": "C4",
          "ticks": 2056320,
          "time": 59.062437,
          "velocity": 0.6299212598425197
        },
        {
          "duration": 0.7720579999999941,
          "durationTicks": 26880,
          "midi": 50,
          "name": "D3",
          "ticks": 2117760,
          "time": 60.827141000000005,
          "velocity": 0.6299212598425197
        },
        {
          "duration": 0.41176426666666543,
          "durationTicks": 14336,
          "midi": 50,
          "name": "D3",
          "ticks": 2148480,
          "time": 61.709493,
          "velocity": 0.6299212598425197
        },
        {
          "duration": 0.41176426666667254,
          "durationTicks": 14336,
          "midi": 53,
          "name": "F3",
          "ticks": 2163840,
          "time": 62.150669,
          "velocity": 0.6456692913385826
        },
        {
          "duration": 0.41176426666667254,
          "durationTicks": 14336,
          "midi": 57,
          "name": "A3",
          "ticks": 2179200,
          "time": 62.591845,
          "velocity": 0.6614173228346457
        },
        {
          "duration": 0.41176426666666543,
          "durationTicks": 14336,
          "midi": 50,
          "name": "D3",
          "ticks": 2194560,
          "time": 63.033021000000005,
          "velocity": 0.6456692913385826
        },
        {
          "duration": 0.878675533333336,
          "durationTicks": 30592,
          "midi": 48,
          "name": "C3",
          "ticks": 2209920,
          "time": 63.474197000000004,
          "velocity": 0.6299212598425197
        },
        {
          "duration": 0.878675533333336,
          "durationTicks": 30592,
          "midi": 53,
          "name": "F3",
          "ticks": 2240640,
          "time": 64.356549,
          "velocity": 0.6456692913385826
        },
        {
          "duration": 0.3933819333333446,
          "durationTicks": 13696,
          "midi": 55,
          "name": "G3",
          "ticks": 2271360,
          "time": 65.238901,
          "velocity": 0.6614173228346457
        },
        {
          "duration": 0.41176426666667965,
          "durationTicks": 14336,
          "midi": 57,
          "name": "A3",
          "ticks": 2286720,
          "time": 65.680077,
          "velocity": 0.6456692913385826
        },
        {
          "duration": 0.42279366666667784,
          "durationTicks": 14720,
          "midi": 50,
          "name": "D3",
          "ticks": 2302080,
          "time": 66.121253,
          "velocity": 0.6456692913385826
        },
        {
          "duration": 0.41176426666666543,
          "durationTicks": 14336,
          "midi": 48,
          "name": "C3",
          "ticks": 2317440,
          "time": 66.56242900000001,
          "velocity": 0.6299212598425197
        },
        {
          "duration": 0.4227936666666636,
          "durationTicks": 14720,
          "midi": 53,
          "name": "F3",
          "ticks": 2332800,
          "time": 67.00360500000001,
          "velocity": 0.6614173228346457
        },
        {
          "duration": 0.41176426666666543,
          "durationTicks": 14336,
          "midi": 55,
          "name": "G3",
          "ticks": 2348160,
          "time": 67.444781,
          "velocity": 0.6456692913385826
        },
        {
          "duration": 1.4705866666666623,
          "durationTicks": 51200,
          "midi": 57,
          "name": "A3",
          "ticks": 2363520,
          "time": 67.885957,
          "velocity": 0.6299212598425197
        },
        {
          "duration": 0.878675533333336,
          "durationTicks": 30592,
          "midi": 62,
          "name": "D4",
          "ticks": 2426880,
          "time": 69.705808,
          "velocity": 0.6299212598425197
        },
        {
          "duration": 0.43749953333333735,
          "durationTicks": 15232,
          "midi": 69,
          "name": "A4",
          "ticks": 2426880,
          "time": 69.705808,
          "velocity": 0.6299212598425197
        },
        {
          "duration": 0.2169115333333309,
          "durationTicks": 7552,
          "midi": 69,
          "name": "A4",
          "ticks": 2442240,
          "time": 70.146984,
          "velocity": 0.6299212598425197
        },
        {
          "duration": 0.21691153333334512,
          "durationTicks": 7552,
          "midi": 67,
          "name": "G4",
          "ticks": 2449920,
          "time": 70.367572,
          "velocity": 0.5905511811023622
        },
        {
          "duration": 0.43749953333333735,
          "durationTicks": 15232,
          "midi": 62,
          "name": "D4",
          "ticks": 2457600,
          "time": 70.58816,
          "velocity": 0.6299212598425197
        },
        {
          "duration": 0.43749953333333735,
          "durationTicks": 15232,
          "midi": 69,
          "name": "A4",
          "ticks": 2457600,
          "time": 70.58816,
          "velocity": 0.6299212598425197
        },
        {
          "duration": 0.43749953333333735,
          "durationTicks": 15232,
          "midi": 65,
          "name": "F4",
          "ticks": 2472960,
          "time": 71.029336,
          "velocity": 0.6141732283464567
        },
        {
          "duration": 0.43749953333333735,
          "durationTicks": 15232,
          "midi": 62,
          "name": "D4",
          "ticks": 2488320,
          "time": 71.470512,
          "velocity": 0.6299212598425197
        },
        {
          "duration": 0.43749953333333735,
          "durationTicks": 15232,
          "midi": 69,
          "name": "A4",
          "ticks": 2488320,
          "time": 71.470512,
          "velocity": 0.6614173228346457
        },
        {
          "duration": 0.43749953333333735,
          "durationTicks": 15232,
          "midi": 62,
          "name": "D4",
          "ticks": 2503680,
          "time": 71.911688,
          "velocity": 0.6456692913385826
        },
        {
          "duration": 0.43749953333333735,
          "durationTicks": 15232,
          "midi": 65,
          "name": "F4",
          "ticks": 2503680,
          "time": 71.911688,
          "velocity": 0.6141732283464567
        },
        {
          "duration": 0.878675533333336,
          "durationTicks": 30592,
          "midi": 60,
          "name": "C4",
          "ticks": 2519040,
          "time": 72.352864,
          "velocity": 0.6299212598425197
        },
        {
          "duration": 0.878675533333336,
          "durationTicks": 30592,
          "midi": 67,
          "name": "G4",
          "ticks": 2519040,
          "time": 72.352864,
          "velocity": 0.5984251968503937
        },
        {
          "duration": 0.4411759999999987,
          "durationTicks": 15360,
          "midi": 65,
          "name": "F4",
          "ticks": 2549760,
          "time": 73.23521600000001,
          "velocity": 0.6456692913385826
        },
        {
          "duration": 0.2169115333333309,
          "durationTicks": 7552,
          "midi": 70,
          "name": "A#4",
          "ticks": 2549760,
          "time": 73.23521600000001,
          "velocity": 0.6692913385826772
        },
        {
          "duration": 0.21691153333334512,
          "durationTicks": 7552,
          "midi": 69,
          "name": "A4",
          "ticks": 2557440,
          "time": 73.455804,
          "velocity": 0.6299212598425197
        },
        {
          "duration": 0.2169115333333309,
          "durationTicks": 7552,
          "midi": 65,
          "name": "F4",
          "ticks": 2565120,
          "time": 73.676392,
          "velocity": 0.6535433070866141
        },
        {
          "duration": 0.21691153333334512,
          "durationTicks": 7552,
          "midi": 67,
          "name": "G4",
          "ticks": 2572800,
          "time": 73.89698,
          "velocity": 0.6299212598425197
        },
        {
          "duration": 0.3860289999999935,
          "durationTicks": 13440,
          "midi": 64,
          "name": "E4",
          "ticks": 2580480,
          "time": 74.117568,
          "velocity": 0.5905511811023622
        },
        {
          "duration": 0.3933819333333304,
          "durationTicks": 13696,
          "midi": 67,
          "name": "G4",
          "ticks": 2580480,
          "time": 74.117568,
          "velocity": 0.6614173228346457
        },
        {
          "duration": 0.43749953333333735,
          "durationTicks": 15232,
          "midi": 62,
          "name": "D4",
          "ticks": 2595840,
          "time": 74.558744,
          "velocity": 0.6299212598425197
        },
        {
          "duration": 0.43749953333333735,
          "durationTicks": 15232,
          "midi": 69,
          "name": "A4",
          "ticks": 2595840,
          "time": 74.558744,
          "velocity": 0.6456692913385826
        },
        {
          "duration": 0.43749953333333735,
          "durationTicks": 15232,
          "midi": 62,
          "name": "D4",
          "ticks": 2611200,
          "time": 74.99992,
          "velocity": 0.6456692913385826
        },
        {
          "duration": 0.43749953333333735,
          "durationTicks": 15232,
          "midi": 65,
          "name": "F4",
          "ticks": 2611200,
          "time": 74.99992,
          "velocity": 0.6456692913385826
        },
        {
          "duration": 0.43749953333333735,
          "durationTicks": 15232,
          "midi": 60,
          "name": "C4",
          "ticks": 2626560,
          "time": 75.441096,
          "velocity": 0.6299212598425197
        },
        {
          "duration": 0.43749953333333735,
          "durationTicks": 15232,
          "midi": 67,
          "name": "G4",
          "ticks": 2626560,
          "time": 75.441096,
          "velocity": 0.6614173228346457
        },
        {
          "duration": 0.21691153333334512,
          "durationTicks": 7552,
          "midi": 67,
          "name": "G4",
          "ticks": 2641920,
          "time": 75.882272,
          "velocity": 0.6614173228346457
        },
        {
          "duration": 0.2169115333333309,
          "durationTicks": 7552,
          "midi": 65,
          "name": "F4",
          "ticks": 2649600,
          "time": 76.10286,
          "velocity": 0.6299212598425197
        },
        {
          "duration": 0.43749953333333735,
          "durationTicks": 15232,
          "midi": 62,
          "name": "D4",
          "ticks": 2657280,
          "time": 76.323448,
          "velocity": 0.6456692913385826
        },
        {
          "duration": 0.43749953333333735,
          "durationTicks": 15232,
          "midi": 69,
          "name": "A4",
          "ticks": 2657280,
          "time": 76.323448,
          "velocity": 0.6456692913385826
        },
        {
          "duration": 0.878675533333336,
          "durationTicks": 30592,
          "midi": 60,
          "name": "C4",
          "ticks": 2672640,
          "time": 76.764624,
          "velocity": 0.6062992125984252
        },
        {
          "duration": 1.3235280000000103,
          "durationTicks": 46080,
          "midi": 72,
          "name": "C5",
          "ticks": 2672640,
          "time": 76.764624,
          "velocity": 0.6299212598425197
        },
        {
          "duration": 0.21691153333334512,
          "durationTicks": 7552,
          "midi": 62,
          "name": "D4",
          "ticks": 2703360,
          "time": 77.646976,
          "velocity": 0.6299212598425197
        },
        {
          "duration": 0.2169115333333309,
          "durationTicks": 7552,
          "midi": 64,
          "name": "E4",
          "ticks": 2711040,
          "time": 77.867564,
          "velocity": 0.6062992125984252
        },
        {
          "duration": 0.2169115333333309,
          "durationTicks": 7552,
          "midi": 65,
          "name": "F4",
          "ticks": 2718720,
          "time": 78.08815200000001,
          "velocity": 0.6062992125984252
        },
        {
          "duration": 0.21691153333334512,
          "durationTicks": 7552,
          "midi": 67,
          "name": "G4",
          "ticks": 2726400,
          "time": 78.30874,
          "velocity": 0.6062992125984252
        },
        {
          "duration": 0.878675533333336,
          "durationTicks": 30592,
          "midi": 62,
          "name": "D4",
          "ticks": 2734080,
          "time": 78.529328,
          "velocity": 0.6299212598425197
        },
        {
          "duration": 0.43749953333333735,
          "durationTicks": 15232,
          "midi": 69,
          "name": "A4",
          "ticks": 2734080,
          "time": 78.529328,
          "velocity": 0.6299212598425197
        },
        {
          "duration": 0.2169115333333309,
          "durationTicks": 7552,
          "midi": 69,
          "name": "A4",
          "ticks": 2749440,
          "time": 78.970504,
          "velocity": 0.6299212598425197
        },
        {
          "duration": 0.21691153333334512,
          "durationTicks": 7552,
          "midi": 67,
          "name": "G4",
          "ticks": 2757120,
          "time": 79.191092,
          "velocity": 0.5905511811023622
        },
        {
          "duration": 0.43749953333333735,
          "durationTicks": 15232,
          "midi": 62,
          "name": "D4",
          "ticks": 2764800,
          "time": 79.41168,
          "velocity": 0.6299212598425197
        },
        {
          "duration": 0.43749953333333735,
          "durationTicks": 15232,
          "midi": 69,
          "name": "A4",
          "ticks": 2764800,
          "time": 79.41168,
          "velocity": 0.6299212598425197
        },
        {
          "duration": 0.43749953333333735,
          "durationTicks": 15232,
          "midi": 65,
          "name": "F4",
          "ticks": 2780160,
          "time": 79.852856,
          "velocity": 0.6456692913385826
        },
        {
          "duration": 0.43749953333333735,
          "durationTicks": 15232,
          "midi": 62,
          "name": "D4",
          "ticks": 2795520,
          "time": 80.294032,
          "velocity": 0.6299212598425197
        },
        {
          "duration": 0.43749953333333735,
          "durationTicks": 15232,
          "midi": 69,
          "name": "A4",
          "ticks": 2795520,
          "time": 80.294032,
          "velocity": 0.6614173228346457
        },
        {
          "duration": 0.43749953333333735,
          "durationTicks": 15232,
          "midi": 62,
          "name": "D4",
          "ticks": 2810880,
          "time": 80.735208,
          "velocity": 0.6456692913385826
        },
        {
          "duration": 0.43749953333333735,
          "durationTicks": 15232,
          "midi": 65,
          "name": "F4",
          "ticks": 2810880,
          "time": 80.735208,
          "velocity": 0.6141732283464567
        },
        {
          "duration": 0.878675533333336,
          "durationTicks": 30592,
          "midi": 60,
          "name": "C4",
          "ticks": 2826240,
          "time": 81.176384,
          "velocity": 0.6299212598425197
        },
        {
          "duration": 0.878675533333336,
          "durationTicks": 30592,
          "midi": 67,
          "name": "G4",
          "ticks": 2826240,
          "time": 81.176384,
          "velocity": 0.5984251968503937
        },
        {
          "duration": 0.4411760000000129,
          "durationTicks": 15360,
          "midi": 65,
          "name": "F4",
          "ticks": 2856960,
          "time": 82.058736,
          "velocity": 0.6456692913385826
        },
        {
          "duration": 0.21691153333334512,
          "durationTicks": 7552,
          "midi": 70,
          "name": "A#4",
          "ticks": 2856960,
          "time": 82.058736,
          "velocity": 0.6692913385826772
        },
        {
          "duration": 0.2169115333333309,
          "durationTicks": 7552,
          "midi": 69,
          "name": "A4",
          "ticks": 2864640,
          "time": 82.279324,
          "velocity": 0.6299212598425197
        },
        {
          "duration": 0.2169115333333309,
          "durationTicks": 7552,
          "midi": 65,
          "name": "F4",
          "ticks": 2872320,
          "time": 82.49991200000001,
          "velocity": 0.6535433070866141
        },
        {
          "duration": 0.2169115333333309,
          "durationTicks": 7552,
          "midi": 67,
          "name": "G4",
          "ticks": 2880000,
          "time": 82.7205,
          "velocity": 0.6299212598425197
        },
        {
          "duration": 0.3860289999999935,
          "durationTicks": 13440,
          "midi": 64,
          "name": "E4",
          "ticks": 2887680,
          "time": 82.94108800000001,
          "velocity": 0.5984251968503937
        },
        {
          "duration": 0.3933819333333304,
          "durationTicks": 13696,
          "midi": 67,
          "name": "G4",
          "ticks": 2887680,
          "time": 82.94108800000001,
          "velocity": 0.6614173228346457
        },
        {
          "duration": 0.43749953333333735,
          "durationTicks": 15232,
          "midi": 62,
          "name": "D4",
          "ticks": 2903040,
          "time": 83.382264,
          "velocity": 0.6299212598425197
        },
        {
          "duration": 0.43749953333333735,
          "durationTicks": 15232,
          "midi": 69,
          "name": "A4",
          "ticks": 2903040,
          "time": 83.382264,
          "velocity": 0.6456692913385826
        },
        {
          "duration": 0.43749953333333735,
          "durationTicks": 15232,
          "midi": 62,
          "name": "D4",
          "ticks": 2918400,
          "time": 83.82344,
          "velocity": 0.6456692913385826
        },
        {
          "duration": 0.43749953333333735,
          "durationTicks": 15232,
          "midi": 65,
          "name": "F4",
          "ticks": 2918400,
          "time": 83.82344,
          "velocity": 0.6456692913385826
        },
        {
          "duration": 0.43749953333333735,
          "durationTicks": 15232,
          "midi": 60,
          "name": "C4",
          "ticks": 2933760,
          "time": 84.264616,
          "velocity": 0.6299212598425197
        },
        {
          "duration": 0.43749953333333735,
          "durationTicks": 15232,
          "midi": 67,
          "name": "G4",
          "ticks": 2933760,
          "time": 84.264616,
          "velocity": 0.6614173228346457
        },
        {
          "duration": 0.2169115333333309,
          "durationTicks": 7552,
          "midi": 65,
          "name": "F4",
          "ticks": 2949120,
          "time": 84.705792,
          "velocity": 0.6614173228346457
        },
        {
          "duration": 0.2169115333333309,
          "durationTicks": 7552,
          "midi": 67,
          "name": "G4",
          "ticks": 2949120,
          "time": 84.705792,
          "velocity": 0.6614173228346457
        },
        {
          "duration": 0.2169115333333309,
          "durationTicks": 7552,
          "midi": 65,
          "name": "F4",
          "ticks": 2956800,
          "time": 84.92638000000001,
          "velocity": 0.6456692913385826
        },
        {
          "duration": 0.21691153333334512,
          "durationTicks": 7552,
          "midi": 62,
          "name": "D4",
          "ticks": 2964480,
          "time": 85.146968,
          "velocity": 0.6456692913385826
        },
        {
          "duration": 0.43749953333333735,
          "durationTicks": 15232,
          "midi": 67,
          "name": "G4",
          "ticks": 2964480,
          "time": 85.146968,
          "velocity": 0.6456692913385826
        },
        {
          "duration": 0.10661753333333479,
          "durationTicks": 3712,
          "midi": 64,
          "name": "E4",
          "ticks": 2972160,
          "time": 85.36755600000001,
          "velocity": 0.6141732283464567
        },
        {
          "duration": 0.10661753333333479,
          "durationTicks": 3712,
          "midi": 60,
          "name": "C4",
          "ticks": 2976000,
          "time": 85.47785,
          "velocity": 0.6141732283464567
        },
        {
          "duration": 1.764704000000009,
          "durationTicks": 61440,
          "midi": 62,
          "name": "D4",
          "ticks": 2979840,
          "time": 85.588144,
          "velocity": 0.6299212598425197
        },
        {
          "duration": 1.764704000000009,
          "durationTicks": 61440,
          "midi": 69,
          "name": "A4",
          "ticks": 2979840,
          "time": 85.588144,
          "velocity": 0.6299212598425197
        },
        {
          "duration": 0.21691153333334512,
          "durationTicks": 7552,
          "midi": 62,
          "name": "D4",
          "ticks": 4147200,
          "time": 119.11752,
          "velocity": 0.6299212598425197
        },
        {
          "duration": 0.2169115333333309,
          "durationTicks": 7552,
          "midi": 64,
          "name": "E4",
          "ticks": 4154880,
          "time": 119.338108,
          "velocity": 0.6299212598425197
        },
        {
          "duration": 0.21691153333334512,
          "durationTicks": 7552,
          "midi": 65,
          "name": "F4",
          "ticks": 4162560,
          "time": 119.558696,
          "velocity": 0.6299212598425197
        },
        {
          "duration": 0.2169115333333309,
          "durationTicks": 7552,
          "midi": 67,
          "name": "G4",
          "ticks": 4170240,
          "time": 119.779284,
          "velocity": 0.6299212598425197
        },
        {
          "duration": 0.878675533333336,
          "durationTicks": 30592,
          "midi": 62,
          "name": "D4",
          "ticks": 4177920,
          "time": 119.99987200000001,
          "velocity": 0.6299212598425197
        },
        {
          "duration": 0.43749953333332314,
          "durationTicks": 15232,
          "midi": 69,
          "name": "A4",
          "ticks": 4177920,
          "time": 119.99987200000001,
          "velocity": 0.6299212598425197
        },
        {
          "duration": 0.2169115333333309,
          "durationTicks": 7552,
          "midi": 69,
          "name": "A4",
          "ticks": 4193280,
          "time": 120.44104800000001,
          "velocity": 0.6299212598425197
        },
        {
          "duration": 0.21691153333334512,
          "durationTicks": 7552,
          "midi": 67,
          "name": "G4",
          "ticks": 4200960,
          "time": 120.661636,
          "velocity": 0.5905511811023622
        },
        {
          "duration": 0.43749953333333735,
          "durationTicks": 15232,
          "midi": 62,
          "name": "D4",
          "ticks": 4208640,
          "time": 120.88222400000001,
          "velocity": 0.6299212598425197
        },
        {
          "duration": 0.43749953333333735,
          "durationTicks": 15232,
          "midi": 69,
          "name": "A4",
          "ticks": 4208640,
          "time": 120.88222400000001,
          "velocity": 0.6299212598425197
        },
        {
          "duration": 0.43749953333333735,
          "durationTicks": 15232,
          "midi": 65,
          "name": "F4",
          "ticks": 4224000,
          "time": 121.3234,
          "velocity": 0.6141732283464567
        },
        {
          "duration": 0.43749953333333735,
          "durationTicks": 15232,
          "midi": 62,
          "name": "D4",
          "ticks": 4239360,
          "time": 121.764576,
          "velocity": 0.6299212598425197
        },
        {
          "duration": 0.43749953333333735,
          "durationTicks": 15232,
          "midi": 69,
          "name": "A4",
          "ticks": 4239360,
          "time": 121.764576,
          "velocity": 0.6614173228346457
        },
        {
          "duration": 0.43749953333333735,
          "durationTicks": 15232,
          "midi": 62,
          "name": "D4",
          "ticks": 4254720,
          "time": 122.205752,
          "velocity": 0.6456692913385826
        },
        {
          "duration": 0.43749953333333735,
          "durationTicks": 15232,
          "midi": 65,
          "name": "F4",
          "ticks": 4254720,
          "time": 122.205752,
          "velocity": 0.6141732283464567
        },
        {
          "duration": 0.878675533333336,
          "durationTicks": 30592,
          "midi": 60,
          "name": "C4",
          "ticks": 4270080,
          "time": 122.646928,
          "velocity": 0.6299212598425197
        },
        {
          "duration": 0.878675533333336,
          "durationTicks": 30592,
          "midi": 67,
          "name": "G4",
          "ticks": 4270080,
          "time": 122.646928,
          "velocity": 0.5984251968503937
        },
        {
          "duration": 0.4411759999999987,
          "durationTicks": 15360,
          "midi": 65,
          "name": "F4",
          "ticks": 4300800,
          "time": 123.52928,
          "velocity": 0.6456692913385826
        },
        {
          "duration": 0.21691153333334512,
          "durationTicks": 7552,
          "midi": 70,
          "name": "A#4",
          "ticks": 4300800,
          "time": 123.52928,
          "velocity": 0.6692913385826772
        },
        {
          "duration": 0.2169115333333309,
          "durationTicks": 7552,
          "midi": 69,
          "name": "A4",
          "ticks": 4308480,
          "time": 123.749868,
          "velocity": 0.6299212598425197
        },
        {
          "duration": 0.21691153333334512,
          "durationTicks": 7552,
          "midi": 65,
          "name": "F4",
          "ticks": 4316160,
          "time": 123.970456,
          "velocity": 0.6535433070866141
        },
        {
          "duration": 0.2169115333333309,
          "durationTicks": 7552,
          "midi": 67,
          "name": "G4",
          "ticks": 4323840,
          "time": 124.191044,
          "velocity": 0.6299212598425197
        },
        {
          "duration": 0.3860290000000077,
          "durationTicks": 13440,
          "midi": 64,
          "name": "E4",
          "ticks": 4331520,
          "time": 124.411632,
          "velocity": 0.5905511811023622
        },
        {
          "duration": 0.3933819333333304,
          "durationTicks": 13696,
          "midi": 67,
          "name": "G4",
          "ticks": 4331520,
          "time": 124.411632,
          "velocity": 0.6614173228346457
        },
        {
          "duration": 0.43749953333332314,
          "durationTicks": 15232,
          "midi": 62,
          "name": "D4",
          "ticks": 4346880,
          "time": 124.85280800000001,
          "velocity": 0.6299212598425197
        },
        {
          "duration": 0.43749953333332314,
          "durationTicks": 15232,
          "midi": 69,
          "name": "A4",
          "ticks": 4346880,
          "time": 124.85280800000001,
          "velocity": 0.6456692913385826
        },
        {
          "duration": 0.43749953333333735,
          "durationTicks": 15232,
          "midi": 62,
          "name": "D4",
          "ticks": 4362240,
          "time": 125.29398400000001,
          "velocity": 0.6456692913385826
        },
        {
          "duration": 0.43749953333333735,
          "durationTicks": 15232,
          "midi": 65,
          "name": "F4",
          "ticks": 4362240,
          "time": 125.29398400000001,
          "velocity": 0.6456692913385826
        },
        {
          "duration": 0.43749953333333735,
          "durationTicks": 15232,
          "midi": 60,
          "name": "C4",
          "ticks": 4377600,
          "time": 125.73516000000001,
          "velocity": 0.6299212598425197
        },
        {
          "duration": 0.43749953333333735,
          "durationTicks": 15232,
          "midi": 67,
          "name": "G4",
          "ticks": 4377600,
          "time": 125.73516000000001,
          "velocity": 0.6614173228346457
        },
        {
          "duration": 0.2169115333333309,
          "durationTicks": 7552,
          "midi": 67,
          "name": "G4",
          "ticks": 4392960,
          "time": 126.176336,
          "velocity": 0.6614173228346457
        },
        {
          "duration": 0.21691153333334512,
          "durationTicks": 7552,
          "midi": 65,
          "name": "F4",
          "ticks": 4400640,
          "time": 126.396924,
          "velocity": 0.6299212598425197
        },
        {
          "duration": 0.43749953333333735,
          "durationTicks": 15232,
          "midi": 62,
          "name": "D4",
          "ticks": 4408320,
          "time": 126.617512,
          "velocity": 0.6456692913385826
        },
        {
          "duration": 0.43749953333333735,
          "durationTicks": 15232,
          "midi": 69,
          "name": "A4",
          "ticks": 4408320,
          "time": 126.617512,
          "velocity": 0.6456692913385826
        },
        {
          "duration": 1.323527999999996,
          "durationTicks": 46080,
          "midi": 60,
          "name": "C4",
          "ticks": 4423680,
          "time": 127.058688,
          "velocity": 0.6062992125984252
        },
        {
          "duration": 0.878675533333336,
          "durationTicks": 30592,
          "midi": 72,
          "name": "C5",
          "ticks": 4423680,
          "time": 127.058688,
          "velocity": 0.6299212598425197
        },
        {
          "duration": 0.21691153333334512,
          "durationTicks": 7552,
          "midi": 72,
          "name": "C5",
          "ticks": 4454400,
          "time": 127.94104,
          "velocity": 0.6299212598425197
        },
        {
          "duration": 0.2169115333333309,
          "durationTicks": 7552,
          "midi": 74,
          "name": "D5",
          "ticks": 4462080,
          "time": 128.161628,
          "velocity": 0.6299212598425197
        },
        {
          "duration": 0.2169115333333309,
          "durationTicks": 7552,
          "midi": 72,
          "name": "C5",
          "ticks": 4469760,
          "time": 128.382216,
          "velocity": 0.6299212598425197
        },
        {
          "duration": 0.21691153333335933,
          "durationTicks": 7552,
          "midi": 70,
          "name": "A#4",
          "ticks": 4477440,
          "time": 128.602804,
          "velocity": 0.6062992125984252
        },
        {
          "duration": 0.878675533333336,
          "durationTicks": 30592,
          "midi": 62,
          "name": "D4",
          "ticks": 4485120,
          "time": 128.823392,
          "velocity": 0.6299212598425197
        },
        {
          "duration": 0.43749953333332314,
          "durationTicks": 15232,
          "midi": 69,
          "name": "A4",
          "ticks": 4485120,
          "time": 128.823392,
          "velocity": 0.6299212598425197
        },
        {
          "duration": 0.2169115333333309,
          "durationTicks": 7552,
          "midi": 69,
          "name": "A4",
          "ticks": 4500480,
          "time": 129.264568,
          "velocity": 0.6299212598425197
        },
        {
          "duration": 0.2169115333333309,
          "durationTicks": 7552,
          "midi": 67,
          "name": "G4",
          "ticks": 4508160,
          "time": 129.48515600000002,
          "velocity": 0.5905511811023622
        },
        {
          "duration": 0.43749953333332314,
          "durationTicks": 15232,
          "midi": 62,
          "name": "D4",
          "ticks": 4515840,
          "time": 129.705744,
          "velocity": 0.6299212598425197
        },
        {
          "duration": 0.2169115333333309,
          "durationTicks": 7552,
          "midi": 69,
          "name": "A4",
          "ticks": 4515840,
          "time": 129.705744,
          "velocity": 0.6299212598425197
        },
        {
          "duration": 0.2169115333333309,
          "durationTicks": 7552,
          "midi": 67,
          "name": "G4",
          "ticks": 4523392,
          "time": 129.92265553333334,
          "velocity": 0.6299212598425197
        },
        {
          "duration": 0.2169115333333309,
          "durationTicks": 7552,
          "midi": 65,
          "name": "F4",
          "ticks": 4530944,
          "time": 130.13956706666667,
          "velocity": 0.6141732283464567
        },
        {
          "duration": 0.2169115333333309,
          "durationTicks": 7552,
          "midi": 64,
          "name": "E4",
          "ticks": 4538496,
          "time": 130.3564786,
          "velocity": 0.6141732283464567
        },
        {
          "duration": 0.43749953333332314,
          "durationTicks": 15232,
          "midi": 62,
          "name": "D4",
          "ticks": 4546048,
          "time": 130.57339013333333,
          "velocity": 0.6299212598425197
        },
        {
          "duration": 0.43749953333332314,
          "durationTicks": 15232,
          "midi": 69,
          "name": "A4",
          "ticks": 4546048,
          "time": 130.57339013333333,
          "velocity": 0.6614173228346457
        },
        {
          "duration": 0.43749953333335156,
          "durationTicks": 15232,
          "midi": 62,
          "name": "D4",
          "ticks": 4561408,
          "time": 131.01456613333332,
          "velocity": 0.6456692913385826
        },
        {
          "duration": 0.43749953333335156,
          "durationTicks": 15232,
          "midi": 65,
          "name": "F4",
          "ticks": 4561408,
          "time": 131.01456613333332,
          "velocity": 0.6141732283464567
        },
        {
          "duration": 0.878675533333336,
          "durationTicks": 30592,
          "midi": 60,
          "name": "C4",
          "ticks": 4576768,
          "time": 131.45574213333333,
          "velocity": 0.6299212598425197
        },
        {
          "duration": 0.878675533333336,
          "durationTicks": 30592,
          "midi": 67,
          "name": "G4",
          "ticks": 4576768,
          "time": 131.45574213333333,
          "velocity": 0.5984251968503937
        },
        {
          "duration": 0.44117599999998447,
          "durationTicks": 15360,
          "midi": 65,
          "name": "F4",
          "ticks": 4607488,
          "time": 132.33809413333333,
          "velocity": 0.6456692913385826
        },
        {
          "duration": 0.2169115333333309,
          "durationTicks": 7552,
          "midi": 70,
          "name": "A#4",
          "ticks": 4607488,
          "time": 132.33809413333333,
          "velocity": 0.6692913385826772
        },
        {
          "duration": 0.2169115333333309,
          "durationTicks": 7552,
          "midi": 69,
          "name": "A4",
          "ticks": 4615168,
          "time": 132.55868213333332,
          "velocity": 0.6299212598425197
        },
        {
          "duration": 0.21691153333335933,
          "durationTicks": 7552,
          "midi": 65,
          "name": "F4",
          "ticks": 4622848,
          "time": 132.7792701333333,
          "velocity": 0.6535433070866141
        },
        {
          "duration": 0.2169115333333309,
          "durationTicks": 7552,
          "midi": 67,
          "name": "G4",
          "ticks": 4630528,
          "time": 132.99985813333333,
          "velocity": 0.6299212598425197
        },
        {
          "duration": 0.3860290000000077,
          "durationTicks": 13440,
          "midi": 64,
          "name": "E4",
          "ticks": 4638208,
          "time": 133.22044613333333,
          "velocity": 0.5984251968503937
        },
        {
          "duration": 0.3933819333333588,
          "durationTicks": 13696,
          "midi": 67,
          "name": "G4",
          "ticks": 4638208,
          "time": 133.22044613333333,
          "velocity": 0.6614173228346457
        },
        {
          "duration": 0.43749953333332314,
          "durationTicks": 15232,
          "midi": 62,
          "name": "D4",
          "ticks": 4653568,
          "time": 133.66162213333334,
          "velocity": 0.6299212598425197
        },
        {
          "duration": 0.43749953333332314,
          "durationTicks": 15232,
          "midi": 69,
          "name": "A4",
          "ticks": 4653568,
          "time": 133.66162213333334,
          "velocity": 0.6456692913385826
        },
        {
          "duration": 0.43749953333335156,
          "durationTicks": 15232,
          "midi": 62,
          "name": "D4",
          "ticks": 4668928,
          "time": 134.10279813333332,
          "velocity": 0.6456692913385826
        },
        {
          "duration": 0.43749953333335156,
          "durationTicks": 15232,
          "midi": 65,
          "name": "F4",
          "ticks": 4668928,
          "time": 134.10279813333332,
          "velocity": 0.6456692913385826
        },
        {
          "duration": 0.43749953333332314,
          "durationTicks": 15232,
          "midi": 60,
          "name": "C4",
          "ticks": 4684288,
          "time": 134.54397413333334,
          "velocity": 0.6299212598425197
        },
        {
          "duration": 0.43749953333332314,
          "durationTicks": 15232,
          "midi": 67,
          "name": "G4",
          "ticks": 4684288,
          "time": 134.54397413333334,
          "velocity": 0.6614173228346457
        },
        {
          "duration": 0.2169115333333309,
          "durationTicks": 7552,
          "midi": 65,
          "name": "F4",
          "ticks": 4699648,
          "time": 134.98515013333332,
          "velocity": 0.6614173228346457
        },
        {
          "duration": 0.2169115333333309,
          "durationTicks": 7552,
          "midi": 67,
          "name": "G4",
          "ticks": 4699648,
          "time": 134.98515013333332,
          "velocity": 0.6614173228346457
        },
        {
          "duration": 0.21691153333335933,
          "durationTicks": 7552,
          "midi": 65,
          "name": "F4",
          "ticks": 4707328,
          "time": 135.2057381333333,
          "velocity": 0.6456692913385826
        },
        {
          "duration": 0.2169115333333309,
          "durationTicks": 7552,
          "midi": 62,
          "name": "D4",
          "ticks": 4715008,
          "time": 135.42632613333333,
          "velocity": 0.6456692913385826
        },
        {
          "duration": 0.43749953333332314,
          "durationTicks": 15232,
          "midi": 67,
          "name": "G4",
          "ticks": 4715008,
          "time": 135.42632613333333,
          "velocity": 0.6456692913385826
        },
        {
          "duration": 0.106617533333349,
          "durationTicks": 3712,
          "midi": 64,
          "name": "E4",
          "ticks": 4722688,
          "time": 135.64691413333333,
          "velocity": 0.6141732283464567
        },
        {
          "duration": 0.10661753333332058,
          "durationTicks": 3712,
          "midi": 60,
          "name": "C4",
          "ticks": 4726528,
          "time": 135.75720813333334,
          "velocity": 0.6141732283464567
        }
      ]
    },
    {
      "channel": 0,
      "controlChanges": {
        "1": [
          {
            "number": 1,
            "ticks": 0,
            "time": 0,
            "value": 0
          },
          {
            "number": 1,
            "ticks": 614400,
            "time": 17.64704,
            "value": 0
          },
          {
            "number": 1,
            "ticks": 1305600,
            "time": 37.49996,
            "value": 0
          },
          {
            "number": 1,
            "ticks": 2380800,
            "time": 68.38228000000001,
            "value": 0
          }
        ],
        "11": [
          {
            "number": 11,
            "ticks": 0,
            "time": 0,
            "value": 0
          },
          {
            "number": 11,
            "ticks": 614400,
            "time": 17.64704,
            "value": 0.8661417322834646
          },
          {
            "number": 11,
            "ticks": 1305600,
            "time": 37.49996,
            "value": 0
          },
          {
            "number": 11,
            "ticks": 2380800,
            "time": 68.38228000000001,
            "value": 0.8661417322834646
          }
        ],
        "64": [
          {
            "number": 64,
            "ticks": 0,
            "time": 0,
            "value": 0
          },
          {
            "number": 64,
            "ticks": 614400,
            "time": 17.64704,
            "value": 0
          },
          {
            "number": 64,
            "ticks": 1305600,
            "time": 37.49996,
            "value": 0
          },
          {
            "number": 64,
            "ticks": 2380800,
            "time": 68.38228000000001,
            "value": 0
          }
        ]
      },
      "pitchBends": [],
      "instrument": {
        "family": "piano",
        "name": "acoustic grand piano",
        "number": 0
      },
      "name": "voice                    Ch4",
      "notes": [
        {
          "duration": 0.42279366666667073,
          "durationTicks": 14720,
          "midi": 69,
          "name": "A4",
          "ticks": 675840,
          "time": 19.411744,
          "velocity": 0.6299212598425197
        },
        {
          "duration": 0.20220566666666784,
          "durationTicks": 7040,
          "midi": 69,
          "name": "A4",
          "ticks": 691200,
          "time": 19.85292,
          "velocity": 0.6299212598425197
        },
        {
          "duration": 0.20220566666666784,
          "durationTicks": 7040,
          "midi": 67,
          "name": "G4",
          "ticks": 698880,
          "time": 20.073508,
          "velocity": 0.5905511811023622
        },
        {
          "duration": 0.4044113333333321,
          "durationTicks": 14080,
          "midi": 69,
          "name": "A4",
          "ticks": 706560,
          "time": 20.294096,
          "velocity": 0.6299212598425197
        },
        {
          "duration": 0.4044113333333321,
          "durationTicks": 14080,
          "midi": 65,
          "name": "F4",
          "ticks": 721920,
          "time": 20.735272000000002,
          "velocity": 0.6141732283464567
        },
        {
          "duration": 0.4044113333333321,
          "durationTicks": 14080,
          "midi": 62,
          "name": "D4",
          "ticks": 737280,
          "time": 21.176448,
          "velocity": 0.6299212598425197
        },
        {
          "duration": 0.4044113333333321,
          "durationTicks": 14080,
          "midi": 65,
          "name": "F4",
          "ticks": 752640,
          "time": 21.617624,
          "velocity": 0.6141732283464567
        },
        {
          "duration": 0.8639696666666659,
          "durationTicks": 30080,
          "midi": 67,
          "name": "G4",
          "ticks": 768000,
          "time": 22.0588,
          "velocity": 0.5984251968503937
        },
        {
          "duration": 0.20220566666666429,
          "durationTicks": 7040,
          "midi": 70,
          "name": "A#4",
          "ticks": 798720,
          "time": 22.941152000000002,
          "velocity": 0.6692913385826772
        },
        {
          "duration": 0.20220566666666784,
          "durationTicks": 7040,
          "midi": 69,
          "name": "A4",
          "ticks": 806400,
          "time": 23.16174,
          "velocity": 0.6299212598425197
        },
        {
          "duration": 0.20220566666666784,
          "durationTicks": 7040,
          "midi": 65,
          "name": "F4",
          "ticks": 814080,
          "time": 23.382328,
          "velocity": 0.6535433070866141
        },
        {
          "duration": 0.20220566666666784,
          "durationTicks": 7040,
          "midi": 67,
          "name": "G4",
          "ticks": 821760,
          "time": 23.602916,
          "velocity": 0.6299212598425197
        },
        {
          "duration": 0.3860290000000006,
          "durationTicks": 13440,
          "midi": 64,
          "name": "E4",
          "ticks": 829440,
          "time": 23.823504,
          "velocity": 0.5905511811023622
        },
        {
          "duration": 0.4044113333333321,
          "durationTicks": 14080,
          "midi": 62,
          "name": "D4",
          "ticks": 844800,
          "time": 24.264680000000002,
          "velocity": 0.6299212598425197
        },
        {
          "duration": 0.4044113333333321,
          "durationTicks": 14080,
          "midi": 65,
          "name": "F4",
          "ticks": 860160,
          "time": 24.705856,
          "velocity": 0.6456692913385826
        },
        {
          "duration": 0.4044113333333321,
          "durationTicks": 14080,
          "midi": 67,
          "name": "G4",
          "ticks": 875520,
          "time": 25.147032,
          "velocity": 0.6614173228346457
        },
        {
          "duration": 0.20220566666666784,
          "durationTicks": 7040,
          "midi": 67,
          "name": "G4",
          "ticks": 890880,
          "time": 25.588208,
          "velocity": 0.6692913385826772
        },
        {
          "duration": 0.20220566666666784,
          "durationTicks": 7040,
          "midi": 65,
          "name": "F4",
          "ticks": 898560,
          "time": 25.808796,
          "velocity": 0.6535433070866141
        },
        {
          "duration": 0.4227936666666672,
          "durationTicks": 14720,
          "midi": 62,
          "name": "D4",
          "ticks": 906240,
          "time": 26.029384,
          "velocity": 0.6299212598425197
        },
        {
          "duration": 1.3235280000000031,
          "durationTicks": 46080,
          "midi": 60,
          "name": "C4",
          "ticks": 921600,
          "time": 26.47056,
          "velocity": 0.5905511811023622
        },
        {
          "duration": 0.4227936666666636,
          "durationTicks": 14720,
          "midi": 69,
          "name": "A4",
          "ticks": 983040,
          "time": 28.235264,
          "velocity": 0.6299212598425197
        },
        {
          "duration": 0.20220566666666429,
          "durationTicks": 7040,
          "midi": 69,
          "name": "A4",
          "ticks": 998400,
          "time": 28.67644,
          "velocity": 0.6299212598425197
        },
        {
          "duration": 0.20220566666666429,
          "durationTicks": 7040,
          "midi": 67,
          "name": "G4",
          "ticks": 1006080,
          "time": 28.897028000000002,
          "velocity": 0.5905511811023622
        },
        {
          "duration": 0.39705840000000237,
          "durationTicks": 13824,
          "midi": 69,
          "name": "A4",
          "ticks": 1013760,
          "time": 29.117616,
          "velocity": 0.6299212598425197
        },
        {
          "duration": 0.4044113333333357,
          "durationTicks": 14080,
          "midi": 65,
          "name": "F4",
          "ticks": 1029120,
          "time": 29.558792,
          "velocity": 0.6141732283464567
        },
        {
          "duration": 0.4044113333333321,
          "durationTicks": 14080,
          "midi": 62,
          "name": "D4",
          "ticks": 1044480,
          "time": 29.999968000000003,
          "velocity": 0.6299212598425197
        },
        {
          "duration": 0.4044113333333357,
          "durationTicks": 14080,
          "midi": 65,
          "name": "F4",
          "ticks": 1059840,
          "time": 30.441144,
          "velocity": 0.6141732283464567
        },
        {
          "duration": 0.8639696666666659,
          "durationTicks": 30080,
          "midi": 67,
          "name": "G4",
          "ticks": 1075200,
          "time": 30.88232,
          "velocity": 0.5984251968503937
        },
        {
          "duration": 0.20220566666666429,
          "durationTicks": 7040,
          "midi": 70,
          "name": "A#4",
          "ticks": 1105920,
          "time": 31.764672,
          "velocity": 0.6692913385826772
        },
        {
          "duration": 0.20220566666666784,
          "durationTicks": 7040,
          "midi": 69,
          "name": "A4",
          "ticks": 1113600,
          "time": 31.98526,
          "velocity": 0.6299212598425197
        },
        {
          "duration": 0.20220566666666429,
          "durationTicks": 7040,
          "midi": 65,
          "name": "F4",
          "ticks": 1121280,
          "time": 32.205848,
          "velocity": 0.6535433070866141
        },
        {
          "duration": 0.20220566666666429,
          "durationTicks": 7040,
          "midi": 67,
          "name": "G4",
          "ticks": 1128960,
          "time": 32.426436,
          "velocity": 0.6299212598425197
        },
        {
          "duration": 0.3860290000000006,
          "durationTicks": 13440,
          "midi": 64,
          "name": "E4",
          "ticks": 1136640,
          "time": 32.647024,
          "velocity": 0.5984251968503937
        },
        {
          "duration": 0.4044113333333357,
          "durationTicks": 14080,
          "midi": 62,
          "name": "D4",
          "ticks": 1152000,
          "time": 33.0882,
          "velocity": 0.6299212598425197
        },
        {
          "duration": 0.4044113333333357,
          "durationTicks": 14080,
          "midi": 65,
          "name": "F4",
          "ticks": 1167360,
          "time": 33.529376,
          "velocity": 0.6456692913385826
        },
        {
          "duration": 0.4044113333333357,
          "durationTicks": 14080,
          "midi": 67,
          "name": "G4",
          "ticks": 1182720,
          "time": 33.970552,
          "velocity": 0.6614173228346457
        },
        {
          "duration": 0.20220566666666429,
          "durationTicks": 7040,
          "midi": 67,
          "name": "G4",
          "ticks": 1198080,
          "time": 34.411728000000004,
          "velocity": 0.6771653543307087
        },
        {
          "duration": 0.20220566666666429,
          "durationTicks": 7040,
          "midi": 65,
          "name": "F4",
          "ticks": 1205760,
          "time": 34.632316,
          "velocity": 0.6614173228346457
        },
        {
          "duration": 0.20220566666666429,
          "durationTicks": 7040,
          "midi": 62,
          "name": "D4",
          "ticks": 1213440,
          "time": 34.852904,
          "velocity": 0.6456692913385826
        },
        {
          "duration": 0.0955881333333366,
          "durationTicks": 3328,
          "midi": 64,
          "name": "E4",
          "ticks": 1221120,
          "time": 35.073492,
          "velocity": 0.5984251968503937
        },
        {
          "duration": 0.0955881333333366,
          "durationTicks": 3328,
          "midi": 60,
          "name": "C4",
          "ticks": 1224960,
          "time": 35.183786,
          "velocity": 0.5984251968503937
        },
        {
          "duration": 1.3235280000000031,
          "durationTicks": 46080,
          "midi": 62,
          "name": "D4",
          "ticks": 1228800,
          "time": 35.29408,
          "velocity": 0.5905511811023622
        },
        {
          "duration": 0.4227936666666636,
          "durationTicks": 14720,
          "midi": 69,
          "name": "A4",
          "ticks": 2426880,
          "time": 69.705808,
          "velocity": 0.6299212598425197
        },
        {
          "duration": 0.2022056666666714,
          "durationTicks": 7040,
          "midi": 69,
          "name": "A4",
          "ticks": 2442240,
          "time": 70.146984,
          "velocity": 0.6299212598425197
        },
        {
          "duration": 0.2022056666666714,
          "durationTicks": 7040,
          "midi": 67,
          "name": "G4",
          "ticks": 2449920,
          "time": 70.367572,
          "velocity": 0.5905511811023622
        },
        {
          "duration": 0.40441133333332857,
          "durationTicks": 14080,
          "midi": 69,
          "name": "A4",
          "ticks": 2457600,
          "time": 70.58816,
          "velocity": 0.6299212598425197
        },
        {
          "duration": 0.40441133333332857,
          "durationTicks": 14080,
          "midi": 65,
          "name": "F4",
          "ticks": 2472960,
          "time": 71.029336,
          "velocity": 0.6141732283464567
        },
        {
          "duration": 0.40441133333332857,
          "durationTicks": 14080,
          "midi": 62,
          "name": "D4",
          "ticks": 2488320,
          "time": 71.470512,
          "velocity": 0.6299212598425197
        },
        {
          "duration": 0.40441133333332857,
          "durationTicks": 14080,
          "midi": 65,
          "name": "F4",
          "ticks": 2503680,
          "time": 71.911688,
          "velocity": 0.6141732283464567
        },
        {
          "duration": 0.8639696666666765,
          "durationTicks": 30080,
          "midi": 67,
          "name": "G4",
          "ticks": 2519040,
          "time": 72.352864,
          "velocity": 0.5984251968503937
        },
        {
          "duration": 0.2022056666666714,
          "durationTicks": 7040,
          "midi": 70,
          "name": "A#4",
          "ticks": 2549760,
          "time": 73.23521600000001,
          "velocity": 0.6692913385826772
        },
        {
          "duration": 0.2022056666666714,
          "durationTicks": 7040,
          "midi": 69,
          "name": "A4",
          "ticks": 2557440,
          "time": 73.455804,
          "velocity": 0.6299212598425197
        },
        {
          "duration": 0.2022056666666714,
          "durationTicks": 7040,
          "midi": 65,
          "name": "F4",
          "ticks": 2565120,
          "time": 73.676392,
          "velocity": 0.6535433070866141
        },
        {
          "duration": 0.2022056666666714,
          "durationTicks": 7040,
          "midi": 67,
          "name": "G4",
          "ticks": 2572800,
          "time": 73.89698,
          "velocity": 0.6299212598425197
        },
        {
          "duration": 0.3860289999999935,
          "durationTicks": 13440,
          "midi": 64,
          "name": "E4",
          "ticks": 2580480,
          "time": 74.117568,
          "velocity": 0.5905511811023622
        },
        {
          "duration": 0.40441133333332857,
          "durationTicks": 14080,
          "midi": 62,
          "name": "D4",
          "ticks": 2595840,
          "time": 74.558744,
          "velocity": 0.6299212598425197
        },
        {
          "duration": 0.40441133333332857,
          "durationTicks": 14080,
          "midi": 65,
          "name": "F4",
          "ticks": 2611200,
          "time": 74.99992,
          "velocity": 0.6456692913385826
        },
        {
          "duration": 0.40441133333332857,
          "durationTicks": 14080,
          "midi": 67,
          "name": "G4",
          "ticks": 2626560,
          "time": 75.441096,
          "velocity": 0.6614173228346457
        },
        {
          "duration": 0.2022056666666714,
          "durationTicks": 7040,
          "midi": 67,
          "name": "G4",
          "ticks": 2641920,
          "time": 75.882272,
          "velocity": 0.6692913385826772
        },
        {
          "duration": 0.2022056666666714,
          "durationTicks": 7040,
          "midi": 65,
          "name": "F4",
          "ticks": 2649600,
          "time": 76.10286,
          "velocity": 0.6535433070866141
        },
        {
          "duration": 0.42279366666667784,
          "durationTicks": 14720,
          "midi": 62,
          "name": "D4",
          "ticks": 2657280,
          "time": 76.323448,
          "velocity": 0.6299212598425197
        },
        {
          "duration": 1.3235280000000103,
          "durationTicks": 46080,
          "midi": 60,
          "name": "C4",
          "ticks": 2672640,
          "time": 76.764624,
          "velocity": 0.5905511811023622
        },
        {
          "duration": 0.4227936666666636,
          "durationTicks": 14720,
          "midi": 69,
          "name": "A4",
          "ticks": 2734080,
          "time": 78.529328,
          "velocity": 0.6299212598425197
        },
        {
          "duration": 0.2022056666666714,
          "durationTicks": 7040,
          "midi": 69,
          "name": "A4",
          "ticks": 2749440,
          "time": 78.970504,
          "velocity": 0.6299212598425197
        },
        {
          "duration": 0.2022056666666714,
          "durationTicks": 7040,
          "midi": 67,
          "name": "G4",
          "ticks": 2757120,
          "time": 79.191092,
          "velocity": 0.5905511811023622
        },
        {
          "duration": 0.3970584000000059,
          "durationTicks": 13824,
          "midi": 69,
          "name": "A4",
          "ticks": 2764800,
          "time": 79.41168,
          "velocity": 0.6299212598425197
        },
        {
          "duration": 0.40441133333332857,
          "durationTicks": 14080,
          "midi": 65,
          "name": "F4",
          "ticks": 2780160,
          "time": 79.852856,
          "velocity": 0.6141732283464567
        },
        {
          "duration": 0.40441133333332857,
          "durationTicks": 14080,
          "midi": 62,
          "name": "D4",
          "ticks": 2795520,
          "time": 80.294032,
          "velocity": 0.6299212598425197
        },
        {
          "duration": 0.40441133333332857,
          "durationTicks": 14080,
          "midi": 65,
          "name": "F4",
          "ticks": 2810880,
          "time": 80.735208,
          "velocity": 0.6141732283464567
        },
        {
          "duration": 0.8639696666666765,
          "durationTicks": 30080,
          "midi": 67,
          "name": "G4",
          "ticks": 2826240,
          "time": 81.176384,
          "velocity": 0.5984251968503937
        },
        {
          "duration": 0.2022056666666714,
          "durationTicks": 7040,
          "midi": 70,
          "name": "A#4",
          "ticks": 2856960,
          "time": 82.058736,
          "velocity": 0.6692913385826772
        },
        {
          "duration": 0.2022056666666714,
          "durationTicks": 7040,
          "midi": 69,
          "name": "A4",
          "ticks": 2864640,
          "time": 82.279324,
          "velocity": 0.6299212598425197
        },
        {
          "duration": 0.20220566666665718,
          "durationTicks": 7040,
          "midi": 65,
          "name": "F4",
          "ticks": 2872320,
          "time": 82.49991200000001,
          "velocity": 0.6535433070866141
        },
        {
          "duration": 0.2022056666666714,
          "durationTicks": 7040,
          "midi": 67,
          "name": "G4",
          "ticks": 2880000,
          "time": 82.7205,
          "velocity": 0.6299212598425197
        },
        {
          "duration": 0.3860289999999935,
          "durationTicks": 13440,
          "midi": 64,
          "name": "E4",
          "ticks": 2887680,
          "time": 82.94108800000001,
          "velocity": 0.5984251968503937
        },
        {
          "duration": 0.40441133333332857,
          "durationTicks": 14080,
          "midi": 62,
          "name": "D4",
          "ticks": 2903040,
          "time": 83.382264,
          "velocity": 0.6299212598425197
        },
        {
          "duration": 0.40441133333332857,
          "durationTicks": 14080,
          "midi": 65,
          "name": "F4",
          "ticks": 2918400,
          "time": 83.82344,
          "velocity": 0.6456692913385826
        },
        {
          "duration": 0.40441133333332857,
          "durationTicks": 14080,
          "midi": 67,
          "name": "G4",
          "ticks": 2933760,
          "time": 84.264616,
          "velocity": 0.6614173228346457
        },
        {
          "duration": 0.2022056666666714,
          "durationTicks": 7040,
          "midi": 67,
          "name": "G4",
          "ticks": 2949120,
          "time": 84.705792,
          "velocity": 0.6771653543307087
        },
        {
          "duration": 0.2022056666666714,
          "durationTicks": 7040,
          "midi": 65,
          "name": "F4",
          "ticks": 2956800,
          "time": 84.92638000000001,
          "velocity": 0.6614173228346457
        },
        {
          "duration": 0.2022056666666714,
          "durationTicks": 7040,
          "midi": 62,
          "name": "D4",
          "ticks": 2964480,
          "time": 85.146968,
          "velocity": 0.6456692913385826
        },
        {
          "duration": 0.09558813333332239,
          "durationTicks": 3328,
          "midi": 64,
          "name": "E4",
          "ticks": 2972160,
          "time": 85.36755600000001,
          "velocity": 0.5984251968503937
        },
        {
          "duration": 0.0955881333333366,
          "durationTicks": 3328,
          "midi": 60,
          "name": "C4",
          "ticks": 2976000,
          "time": 85.47785,
          "velocity": 0.5984251968503937
        },
        {
          "duration": 1.323527999999996,
          "durationTicks": 46080,
          "midi": 62,
          "name": "D4",
          "ticks": 2979840,
          "time": 85.588144,
          "velocity": 0.5905511811023622
        },
        {
          "duration": 0.4227936666666636,
          "durationTicks": 14720,
          "midi": 62,
          "name": "D4",
          "ticks": 3041280,
          "time": 87.35284800000001,
          "velocity": 0.6299212598425197
        },
        {
          "duration": 0.4227936666666636,
          "durationTicks": 14720,
          "midi": 62,
          "name": "D4",
          "ticks": 3056640,
          "time": 87.79402400000001,
          "velocity": 0.6299212598425197
        },
        {
          "duration": 0.4227936666666636,
          "durationTicks": 14720,
          "midi": 69,
          "name": "A4",
          "ticks": 3072000,
          "time": 88.2352,
          "velocity": 0.6299212598425197
        },
        {
          "duration": 0.4227936666666636,
          "durationTicks": 14720,
          "midi": 71,
          "name": "B4",
          "ticks": 3087360,
          "time": 88.676376,
          "velocity": 0.6692913385826772
        },
        {
          "duration": 0.4227936666666636,
          "durationTicks": 14720,
          "midi": 74,
          "name": "D5",
          "ticks": 3102720,
          "time": 89.117552,
          "velocity": 0.7086614173228346
        },
        {
          "duration": 0.42279366666667784,
          "durationTicks": 14720,
          "midi": 71,
          "name": "B4",
          "ticks": 3118080,
          "time": 89.558728,
          "velocity": 0.6692913385826772
        },
        {
          "duration": 0.2022056666666714,
          "durationTicks": 7040,
          "midi": 72,
          "name": "C5",
          "ticks": 3133440,
          "time": 89.999904,
          "velocity": 0.7086614173228346
        },
        {
          "duration": 0.2022056666666714,
          "durationTicks": 7040,
          "midi": 69,
          "name": "A4",
          "ticks": 3141120,
          "time": 90.22049200000001,
          "velocity": 0.6692913385826772
        },
        {
          "duration": 0.3676466666666727,
          "durationTicks": 12800,
          "midi": 67,
          "name": "G4",
          "ticks": 3148800,
          "time": 90.44108,
          "velocity": 0.6456692913385826
        },
        {
          "duration": 0.42279366666667784,
          "durationTicks": 14720,
          "midi": 71,
          "name": "B4",
          "ticks": 3164160,
          "time": 90.882256,
          "velocity": 0.6692913385826772
        },
        {
          "duration": 0.42279366666667784,
          "durationTicks": 14720,
          "midi": 72,
          "name": "C5",
          "ticks": 3179520,
          "time": 91.323432,
          "velocity": 0.6929133858267716
        },
        {
          "duration": 0.4227936666666636,
          "durationTicks": 14720,
          "midi": 69,
          "name": "A4",
          "ticks": 3194880,
          "time": 91.76460800000001,
          "velocity": 0.6692913385826772
        },
        {
          "duration": 0.2022056666666714,
          "durationTicks": 7040,
          "midi": 67,
          "name": "G4",
          "ticks": 3210240,
          "time": 92.20578400000001,
          "velocity": 0.6692913385826772
        },
        {
          "duration": 0.2022056666666714,
          "durationTicks": 7040,
          "midi": 65,
          "name": "F4",
          "ticks": 3217920,
          "time": 92.426372,
          "velocity": 0.6299212598425197
        },
        {
          "duration": 0.2022056666666714,
          "durationTicks": 7040,
          "midi": 65,
          "name": "F4",
          "ticks": 3225600,
          "time": 92.64696,
          "velocity": 0.6456692913385826
        },
        {
          "duration": 0.2022056666666714,
          "durationTicks": 7040,
          "midi": 64,
          "name": "E4",
          "ticks": 3233280,
          "time": 92.867548,
          "velocity": 0.6062992125984252
        },
        {
          "duration": 1.323527999999996,
          "durationTicks": 46080,
          "midi": 62,
          "name": "D4",
          "ticks": 3240960,
          "time": 93.088136,
          "velocity": 0.5511811023622047
        },
        {
          "duration": 0.42279366666667784,
          "durationTicks": 14720,
          "midi": 62,
          "name": "D4",
          "ticks": 3302400,
          "time": 94.85284,
          "velocity": 0.6299212598425197
        },
        {
          "duration": 0.42279366666667784,
          "durationTicks": 14720,
          "midi": 62,
          "name": "D4",
          "ticks": 3317760,
          "time": 95.294016,
          "velocity": 0.6299212598425197
        },
        {
          "duration": 0.42279366666667784,
          "durationTicks": 14720,
          "midi": 69,
          "name": "A4",
          "ticks": 3333120,
          "time": 95.735192,
          "velocity": 0.6299212598425197
        },
        {
          "duration": 0.42279366666667784,
          "durationTicks": 14720,
          "midi": 71,
          "name": "B4",
          "ticks": 3348480,
          "time": 96.176368,
          "velocity": 0.6692913385826772
        },
        {
          "duration": 0.4227936666666636,
          "durationTicks": 14720,
          "midi": 74,
          "name": "D5",
          "ticks": 3363840,
          "time": 96.61754400000001,
          "velocity": 0.7086614173228346
        },
        {
          "duration": 0.4227936666666636,
          "durationTicks": 14720,
          "midi": 71,
          "name": "B4",
          "ticks": 3379200,
          "time": 97.05872000000001,
          "velocity": 0.6692913385826772
        },
        {
          "duration": 0.2022056666666714,
          "durationTicks": 7040,
          "midi": 72,
          "name": "C5",
          "ticks": 3394560,
          "time": 97.499896,
          "velocity": 0.7086614173228346
        },
        {
          "duration": 0.2022056666666714,
          "durationTicks": 7040,
          "midi": 69,
          "name": "A4",
          "ticks": 3402240,
          "time": 97.720484,
          "velocity": 0.6692913385826772
        },
        {
          "duration": 0.3860289999999935,
          "durationTicks": 13440,
          "midi": 67,
          "name": "G4",
          "ticks": 3409920,
          "time": 97.941072,
          "velocity": 0.6456692913385826
        },
        {
          "duration": 0.4227936666666636,
          "durationTicks": 14720,
          "midi": 71,
          "name": "B4",
          "ticks": 3425280,
          "time": 98.382248,
          "velocity": 0.6692913385826772
        },
        {
          "duration": 0.2022056666666714,
          "durationTicks": 7040,
          "midi": 72,
          "name": "C5",
          "ticks": 3440640,
          "time": 98.823424,
          "velocity": 0.6929133858267716
        },
        {
          "duration": 0.2022056666666714,
          "durationTicks": 7040,
          "midi": 71,
          "name": "B4",
          "ticks": 3448320,
          "time": 99.04401200000001,
          "velocity": 0.6929133858267716
        },
        {
          "duration": 0.42279366666667784,
          "durationTicks": 14720,
          "midi": 69,
          "name": "A4",
          "ticks": 3456000,
          "time": 99.2646,
          "velocity": 0.6692913385826772
        },
        {
          "duration": 0.2022056666666714,
          "durationTicks": 7040,
          "midi": 67,
          "name": "G4",
          "ticks": 3471360,
          "time": 99.705776,
          "velocity": 0.6692913385826772
        },
        {
          "duration": 0.2022056666666714,
          "durationTicks": 7040,
          "midi": 65,
          "name": "F4",
          "ticks": 3479040,
          "time": 99.926364,
          "velocity": 0.6299212598425197
        },
        {
          "duration": 0.2022056666666714,
          "durationTicks": 7040,
          "midi": 65,
          "name": "F4",
          "ticks": 3486720,
          "time": 100.146952,
          "velocity": 0.6456692913385826
        },
        {
          "duration": 0.2022056666666714,
          "durationTicks": 7040,
          "midi": 64,
          "name": "E4",
          "ticks": 3494400,
          "time": 100.36754,
          "velocity": 0.6062992125984252
        },
        {
          "duration": 1.3235280000000103,
          "durationTicks": 46080,
          "midi": 62,
          "name": "D4",
          "ticks": 3502080,
          "time": 100.588128,
          "velocity": 0.5511811023622047
        },
        {
          "duration": 0.4227936666666636,
          "durationTicks": 14720,
          "midi": 69,
          "name": "A4",
          "ticks": 3563520,
          "time": 102.352832,
          "velocity": 0.6299212598425197
        },
        {
          "duration": 0.2022056666666714,
          "durationTicks": 7040,
          "midi": 69,
          "name": "A4",
          "ticks": 3578880,
          "time": 102.794008,
          "velocity": 0.6299212598425197
        },
        {
          "duration": 0.2022056666666714,
          "durationTicks": 7040,
          "midi": 67,
          "name": "G4",
          "ticks": 3586560,
          "time": 103.014596,
          "velocity": 0.5905511811023622
        },
        {
          "duration": 0.3970584000000059,
          "durationTicks": 13824,
          "midi": 69,
          "name": "A4",
          "ticks": 3594240,
          "time": 103.235184,
          "velocity": 0.6299212598425197
        },
        {
          "duration": 0.40441133333332857,
          "durationTicks": 14080,
          "midi": 65,
          "name": "F4",
          "ticks": 3609600,
          "time": 103.67636,
          "velocity": 0.6141732283464567
        },
        {
          "duration": 0.40441133333332857,
          "durationTicks": 14080,
          "midi": 62,
          "name": "D4",
          "ticks": 3624960,
          "time": 104.117536,
          "velocity": 0.6299212598425197
        },
        {
          "duration": 0.40441133333332857,
          "durationTicks": 14080,
          "midi": 65,
          "name": "F4",
          "ticks": 3640320,
          "time": 104.558712,
          "velocity": 0.6141732283464567
        },
        {
          "duration": 0.8639696666666765,
          "durationTicks": 30080,
          "midi": 67,
          "name": "G4",
          "ticks": 3655680,
          "time": 104.999888,
          "velocity": 0.5984251968503937
        },
        {
          "duration": 0.2022056666666714,
          "durationTicks": 7040,
          "midi": 70,
          "name": "A#4",
          "ticks": 3686400,
          "time": 105.88224,
          "velocity": 0.6692913385826772
        },
        {
          "duration": 0.2022056666666714,
          "durationTicks": 7040,
          "midi": 69,
          "name": "A4",
          "ticks": 3694080,
          "time": 106.102828,
          "velocity": 0.6299212598425197
        },
        {
          "duration": 0.2022056666666714,
          "durationTicks": 7040,
          "midi": 65,
          "name": "F4",
          "ticks": 3701760,
          "time": 106.32341600000001,
          "velocity": 0.6535433070866141
        },
        {
          "duration": 0.2022056666666714,
          "durationTicks": 7040,
          "midi": 67,
          "name": "G4",
          "ticks": 3709440,
          "time": 106.544004,
          "velocity": 0.6299212598425197
        },
        {
          "duration": 0.3860289999999935,
          "durationTicks": 13440,
          "midi": 64,
          "name": "E4",
          "ticks": 3717120,
          "time": 106.76459200000001,
          "velocity": 0.5905511811023622
        },
        {
          "duration": 0.40441133333332857,
          "durationTicks": 14080,
          "midi": 62,
          "name": "D4",
          "ticks": 3732480,
          "time": 107.205768,
          "velocity": 0.6299212598425197
        },
        {
          "duration": 0.40441133333332857,
          "durationTicks": 14080,
          "midi": 65,
          "name": "F4",
          "ticks": 3747840,
          "time": 107.646944,
          "velocity": 0.6456692913385826
        },
        {
          "duration": 0.40441133333332857,
          "durationTicks": 14080,
          "midi": 67,
          "name": "G4",
          "ticks": 3763200,
          "time": 108.08812,
          "velocity": 0.6614173228346457
        },
        {
          "duration": 0.2022056666666714,
          "durationTicks": 7040,
          "midi": 67,
          "name": "G4",
          "ticks": 3778560,
          "time": 108.529296,
          "velocity": 0.6692913385826772
        },
        {
          "duration": 0.2022056666666714,
          "durationTicks": 7040,
          "midi": 65,
          "name": "F4",
          "ticks": 3786240,
          "time": 108.74988400000001,
          "velocity": 0.6299212598425197
        },
        {
          "duration": 0.42279366666667784,
          "durationTicks": 14720,
          "midi": 62,
          "name": "D4",
          "ticks": 3793920,
          "time": 108.970472,
          "velocity": 0.6456692913385826
        },
        {
          "duration": 1.3235280000000103,
          "durationTicks": 46080,
          "midi": 60,
          "name": "C4",
          "ticks": 3809280,
          "time": 109.411648,
          "velocity": 0.5905511811023622
        },
        {
          "duration": 0.4227936666666636,
          "durationTicks": 14720,
          "midi": 69,
          "name": "A4",
          "ticks": 3870720,
          "time": 111.17635200000001,
          "velocity": 0.6299212598425197
        },
        {
          "duration": 0.2022056666666714,
          "durationTicks": 7040,
          "midi": 69,
          "name": "A4",
          "ticks": 3886080,
          "time": 111.61752800000001,
          "velocity": 0.6299212598425197
        },
        {
          "duration": 0.2022056666666714,
          "durationTicks": 7040,
          "midi": 67,
          "name": "G4",
          "ticks": 3893760,
          "time": 111.838116,
          "velocity": 0.5905511811023622
        },
        {
          "duration": 0.3970584000000059,
          "durationTicks": 13824,
          "midi": 69,
          "name": "A4",
          "ticks": 3901440,
          "time": 112.058704,
          "velocity": 0.6299212598425197
        },
        {
          "duration": 0.40441133333332857,
          "durationTicks": 14080,
          "midi": 65,
          "name": "F4",
          "ticks": 3916800,
          "time": 112.49988,
          "velocity": 0.6141732283464567
        },
        {
          "duration": 0.4044113333333428,
          "durationTicks": 14080,
          "midi": 62,
          "name": "D4",
          "ticks": 3932160,
          "time": 112.941056,
          "velocity": 0.6299212598425197
        },
        {
          "duration": 0.4044113333333428,
          "durationTicks": 14080,
          "midi": 65,
          "name": "F4",
          "ticks": 3947520,
          "time": 113.382232,
          "velocity": 0.6141732283464567
        },
        {
          "duration": 0.8639696666666623,
          "durationTicks": 30080,
          "midi": 67,
          "name": "G4",
          "ticks": 3962880,
          "time": 113.823408,
          "velocity": 0.5984251968503937
        },
        {
          "duration": 0.20220566666665718,
          "durationTicks": 7040,
          "midi": 70,
          "name": "A#4",
          "ticks": 3993600,
          "time": 114.70576,
          "velocity": 0.6692913385826772
        },
        {
          "duration": 0.20220566666665718,
          "durationTicks": 7040,
          "midi": 69,
          "name": "A4",
          "ticks": 4001280,
          "time": 114.926348,
          "velocity": 0.6299212598425197
        },
        {
          "duration": 0.2022056666666714,
          "durationTicks": 7040,
          "midi": 65,
          "name": "F4",
          "ticks": 4008960,
          "time": 115.146936,
          "velocity": 0.6535433070866141
        },
        {
          "duration": 0.20220566666665718,
          "durationTicks": 7040,
          "midi": 67,
          "name": "G4",
          "ticks": 4016640,
          "time": 115.367524,
          "velocity": 0.6299212598425197
        },
        {
          "duration": 0.3860289999999935,
          "durationTicks": 13440,
          "midi": 64,
          "name": "E4",
          "ticks": 4024320,
          "time": 115.58811200000001,
          "velocity": 0.5984251968503937
        },
        {
          "duration": 0.4044113333333428,
          "durationTicks": 14080,
          "midi": 62,
          "name": "D4",
          "ticks": 4039680,
          "time": 116.02928800000001,
          "velocity": 0.6299212598425197
        },
        {
          "duration": 0.4044113333333428,
          "durationTicks": 14080,
          "midi": 65,
          "name": "F4",
          "ticks": 4055040,
          "time": 116.470464,
          "velocity": 0.6456692913385826
        },
        {
          "duration": 0.4044113333333428,
          "durationTicks": 14080,
          "midi": 67,
          "name": "G4",
          "ticks": 4070400,
          "time": 116.91164,
          "velocity": 0.6614173228346457
        },
        {
          "duration": 0.20220566666665718,
          "durationTicks": 7040,
          "midi": 67,
          "name": "G4",
          "ticks": 4085760,
          "time": 117.352816,
          "velocity": 0.6614173228346457
        },
        {
          "duration": 0.2022056666666714,
          "durationTicks": 7040,
          "midi": 65,
          "name": "F4",
          "ticks": 4093440,
          "time": 117.573404,
          "velocity": 0.6456692913385826
        },
        {
          "duration": 0.20220566666665718,
          "durationTicks": 7040,
          "midi": 62,
          "name": "D4",
          "ticks": 4101120,
          "time": 117.793992,
          "velocity": 0.6456692913385826
        },
        {
          "duration": 0.09558813333332239,
          "durationTicks": 3328,
          "midi": 64,
          "name": "E4",
          "ticks": 4108800,
          "time": 118.01458000000001,
          "velocity": 0.5669291338582677
        },
        {
          "duration": 0.09558813333332239,
          "durationTicks": 3328,
          "midi": 60,
          "name": "C4",
          "ticks": 4112640,
          "time": 118.124874,
          "velocity": 0.5669291338582677
        },
        {
          "duration": 1.323527999999996,
          "durationTicks": 46080,
          "midi": 62,
          "name": "D4",
          "ticks": 4116480,
          "time": 118.235168,
          "velocity": 0.5905511811023622
        },
        {
          "duration": 0.4227936666666494,
          "durationTicks": 14720,
          "midi": 69,
          "name": "A4",
          "ticks": 4177920,
          "time": 119.99987200000001,
          "velocity": 0.6299212598425197
        },
        {
          "duration": 0.20220566666665718,
          "durationTicks": 7040,
          "midi": 69,
          "name": "A4",
          "ticks": 4193280,
          "time": 120.44104800000001,
          "velocity": 0.6299212598425197
        },
        {
          "duration": 0.20220566666665718,
          "durationTicks": 7040,
          "midi": 67,
          "name": "G4",
          "ticks": 4200960,
          "time": 120.661636,
          "velocity": 0.5905511811023622
        },
        {
          "duration": 0.4044113333333428,
          "durationTicks": 14080,
          "midi": 69,
          "name": "A4",
          "ticks": 4208640,
          "time": 120.88222400000001,
          "velocity": 0.6299212598425197
        },
        {
          "duration": 0.4044113333333428,
          "durationTicks": 14080,
          "midi": 65,
          "name": "F4",
          "ticks": 4224000,
          "time": 121.3234,
          "velocity": 0.6141732283464567
        },
        {
          "duration": 0.4044113333333428,
          "durationTicks": 14080,
          "midi": 62,
          "name": "D4",
          "ticks": 4239360,
          "time": 121.764576,
          "velocity": 0.6299212598425197
        },
        {
          "duration": 0.4044113333333428,
          "durationTicks": 14080,
          "midi": 65,
          "name": "F4",
          "ticks": 4254720,
          "time": 122.205752,
          "velocity": 0.6141732283464567
        },
        {
          "duration": 0.8639696666666623,
          "durationTicks": 30080,
          "midi": 67,
          "name": "G4",
          "ticks": 4270080,
          "time": 122.646928,
          "velocity": 0.5984251968503937
        },
        {
          "duration": 0.20220566666665718,
          "durationTicks": 7040,
          "midi": 70,
          "name": "A#4",
          "ticks": 4300800,
          "time": 123.52928,
          "velocity": 0.6692913385826772
        },
        {
          "duration": 0.20220566666665718,
          "durationTicks": 7040,
          "midi": 69,
          "name": "A4",
          "ticks": 4308480,
          "time": 123.749868,
          "velocity": 0.6299212598425197
        },
        {
          "duration": 0.20220566666665718,
          "durationTicks": 7040,
          "midi": 65,
          "name": "F4",
          "ticks": 4316160,
          "time": 123.970456,
          "velocity": 0.6535433070866141
        },
        {
          "duration": 0.20220566666665718,
          "durationTicks": 7040,
          "midi": 67,
          "name": "G4",
          "ticks": 4323840,
          "time": 124.191044,
          "velocity": 0.6299212598425197
        },
        {
          "duration": 0.3860290000000077,
          "durationTicks": 13440,
          "midi": 64,
          "name": "E4",
          "ticks": 4331520,
          "time": 124.411632,
          "velocity": 0.5905511811023622
        },
        {
          "duration": 0.40441133333332857,
          "durationTicks": 14080,
          "midi": 62,
          "name": "D4",
          "ticks": 4346880,
          "time": 124.85280800000001,
          "velocity": 0.6299212598425197
        },
        {
          "duration": 0.4044113333333428,
          "durationTicks": 14080,
          "midi": 65,
          "name": "F4",
          "ticks": 4362240,
          "time": 125.29398400000001,
          "velocity": 0.6456692913385826
        },
        {
          "duration": 0.4044113333333428,
          "durationTicks": 14080,
          "midi": 67,
          "name": "G4",
          "ticks": 4377600,
          "time": 125.73516000000001,
          "velocity": 0.6614173228346457
        },
        {
          "duration": 0.20220566666665718,
          "durationTicks": 7040,
          "midi": 67,
          "name": "G4",
          "ticks": 4392960,
          "time": 126.176336,
          "velocity": 0.6692913385826772
        },
        {
          "duration": 0.20220566666665718,
          "durationTicks": 7040,
          "midi": 65,
          "name": "F4",
          "ticks": 4400640,
          "time": 126.396924,
          "velocity": 0.6535433070866141
        },
        {
          "duration": 0.4227936666666636,
          "durationTicks": 14720,
          "midi": 62,
          "name": "D4",
          "ticks": 4408320,
          "time": 126.617512,
          "velocity": 0.6299212598425197
        },
        {
          "duration": 1.323527999999996,
          "durationTicks": 46080,
          "midi": 60,
          "name": "C4",
          "ticks": 4423680,
          "time": 127.058688,
          "velocity": 0.5905511811023622
        },
        {
          "duration": 0.4227936666666494,
          "durationTicks": 14720,
          "midi": 69,
          "name": "A4",
          "ticks": 4485120,
          "time": 128.823392,
          "velocity": 0.6299212598425197
        },
        {
          "duration": 0.20220566666665718,
          "durationTicks": 7040,
          "midi": 69,
          "name": "A4",
          "ticks": 4500480,
          "time": 129.264568,
          "velocity": 0.6299212598425197
        },
        {
          "duration": 0.20220566666665718,
          "durationTicks": 7040,
          "midi": 67,
          "name": "G4",
          "ticks": 4508160,
          "time": 129.48515600000002,
          "velocity": 0.5905511811023622
        },
        {
          "duration": 0.3970583999999917,
          "durationTicks": 13824,
          "midi": 69,
          "name": "A4",
          "ticks": 4515840,
          "time": 129.705744,
          "velocity": 0.6299212598425197
        },
        {
          "duration": 0.4044113333333428,
          "durationTicks": 14080,
          "midi": 65,
          "name": "F4",
          "ticks": 4531200,
          "time": 130.14692,
          "velocity": 0.6141732283464567
        },
        {
          "duration": 0.4044113333333428,
          "durationTicks": 14080,
          "midi": 62,
          "name": "D4",
          "ticks": 4546560,
          "time": 130.588096,
          "velocity": 0.6299212598425197
        },
        {
          "duration": 0.4044113333333428,
          "durationTicks": 14080,
          "midi": 65,
          "name": "F4",
          "ticks": 4561920,
          "time": 131.029272,
          "velocity": 0.6141732283464567
        },
        {
          "duration": 0.8639696666666623,
          "durationTicks": 30080,
          "midi": 67,
          "name": "G4",
          "ticks": 4577280,
          "time": 131.470448,
          "velocity": 0.5984251968503937
        },
        {
          "duration": 0.20220566666665718,
          "durationTicks": 7040,
          "midi": 70,
          "name": "A#4",
          "ticks": 4608000,
          "time": 132.3528,
          "velocity": 0.6692913385826772
        },
        {
          "duration": 0.20220566666665718,
          "durationTicks": 7040,
          "midi": 69,
          "name": "A4",
          "ticks": 4615680,
          "time": 132.573388,
          "velocity": 0.6299212598425197
        },
        {
          "duration": 0.20220566666665718,
          "durationTicks": 7040,
          "midi": 65,
          "name": "F4",
          "ticks": 4623360,
          "time": 132.79397600000001,
          "velocity": 0.6535433070866141
        },
        {
          "duration": 0.20220566666665718,
          "durationTicks": 7040,
          "midi": 67,
          "name": "G4",
          "ticks": 4631040,
          "time": 133.014564,
          "velocity": 0.6299212598425197
        },
        {
          "duration": 0.3860290000000077,
          "durationTicks": 13440,
          "midi": 64,
          "name": "E4",
          "ticks": 4638720,
          "time": 133.235152,
          "velocity": 0.5984251968503937
        },
        {
          "duration": 0.4044113333333428,
          "durationTicks": 14080,
          "midi": 62,
          "name": "D4",
          "ticks": 4654080,
          "time": 133.676328,
          "velocity": 0.6299212598425197
        },
        {
          "duration": 0.4044113333333428,
          "durationTicks": 14080,
          "midi": 65,
          "name": "F4",
          "ticks": 4669440,
          "time": 134.117504,
          "velocity": 0.6456692913385826
        },
        {
          "duration": 0.4044113333333428,
          "durationTicks": 14080,
          "midi": 67,
          "name": "G4",
          "ticks": 4684800,
          "time": 134.55868,
          "velocity": 0.6614173228346457
        },
        {
          "duration": 0.20220566666665718,
          "durationTicks": 7040,
          "midi": 67,
          "name": "G4",
          "ticks": 4700160,
          "time": 134.999856,
          "velocity": 0.6771653543307087
        },
        {
          "duration": 0.20220566666665718,
          "durationTicks": 7040,
          "midi": 65,
          "name": "F4",
          "ticks": 4707840,
          "time": 135.22044400000001,
          "velocity": 0.6614173228346457
        },
        {
          "duration": 0.20220566666665718,
          "durationTicks": 7040,
          "midi": 62,
          "name": "D4",
          "ticks": 4715520,
          "time": 135.441032,
          "velocity": 0.6456692913385826
        },
        {
          "duration": 0.0955881333333366,
          "durationTicks": 3328,
          "midi": 64,
          "name": "E4",
          "ticks": 4723200,
          "time": 135.66162,
          "velocity": 0.5984251968503937
        },
        {
          "duration": 0.09558813333330818,
          "durationTicks": 3328,
          "midi": 60,
          "name": "C4",
          "ticks": 4727040,
          "time": 135.771914,
          "velocity": 0.5984251968503937
        }
      ]
    }
  ]
}